<?xml version="1.0" encoding="utf-8" ?><svg xmlns="http://www.w3.org/2000/svg" xmlns:xlink="http://www.w3.org/1999/xlink" width="1024" height="1024" viewBox="0 0 1024 1024"><path fill="#9B6DD4" d="M116.903 115.759C125.391 115.175 138.757 115.539 147.492 115.538L206.863 115.715L355.882 115.729L823.432 115.488L898.47 115.452L907.199 115.498C907.761 119.608 907.508 128.456 907.498 132.975L907.459 164.344L907.399 279.25L907.449 420.243L907.422 464.755C907.41 470.765 907.661 482.455 907.061 488.093L907.082 488.639C907.595 493.23 907.361 501.186 907.351 506.044L907.301 537.786C907.349 563.047 908.471 593.373 907.407 618.255L907.481 722.387L907.494 760.001C907.494 765.855 907.705 774.059 907.404 779.763C907.883 793.146 907.471 809.274 907.47 822.963L907.343 908.833C876.649 909.198 845.19 908.808 814.444 908.778L645.257 908.739L117.16 908.718L117.39 619.992C117.806 596.933 117.401 573.024 117.517 549.849C116.77 531.449 117.349 507.633 117.41 489.077L117.352 276.307L117.375 254.735L117.394 193.759C116.837 190.26 117.076 173.443 117.066 168.766L116.903 115.759Z"/><path fill="#2C1558" d="M117.517 549.849C134.446 576.773 160.113 591.55 192.69 588.121C215.782 585.69 234.603 570.413 246.288 550.805C256.706 568.924 272.303 580.59 292.475 585.993C312.249 591.3 333.327 588.42 350.953 578.003C362.801 571.128 370.78 562.703 378.481 551.452C385.36 561.171 390.987 567.601 400.731 574.525C426.745 593.011 461.771 593.795 488.111 575.498C498.572 568.232 503.472 561.268 511.112 551.405C523.008 569.702 539.845 582.621 561.45 587.215C582.118 591.5 603.643 587.463 621.353 575.978C630.131 570.237 639.624 560.93 644.752 551.726C646.805 554.662 648.86 557.635 651.139 560.401C676.474 591.153 722.657 597.955 755.427 574.901C764.074 568.919 771.444 561.274 777.107 552.414C786.505 568.9 803.391 580.993 821.586 585.961C841.612 591.319 862.952 588.402 880.806 577.864C892.148 571.29 899.132 563.015 907.018 552.897L907.109 596.958C907.124 601.287 906.916 614.503 907.407 618.255L907.481 722.387L907.494 760.001C907.494 765.855 907.705 774.059 907.404 779.763C907.883 793.146 907.471 809.274 907.47 822.963L907.343 908.833C876.649 909.198 845.19 908.808 814.444 908.778L645.257 908.739L117.16 908.718L117.39 619.992C117.806 596.933 117.401 573.024 117.517 549.849Z"/><path fill="#3B1F6E" d="M117.517 549.849C134.446 576.773 160.113 591.55 192.69 588.121C215.782 585.69 234.603 570.413 246.288 550.805C256.706 568.924 272.303 580.59 292.475 585.993C312.249 591.3 333.327 588.42 350.953 578.003C362.801 571.128 370.78 562.703 378.481 551.452C385.36 561.171 390.987 567.601 400.731 574.525C426.745 593.011 461.771 593.795 488.111 575.498C498.572 568.232 503.472 561.268 511.112 551.405C523.008 569.702 539.845 582.621 561.45 587.215C582.118 591.5 603.643 587.463 621.353 575.978C630.131 570.237 639.624 560.93 644.752 551.726C646.805 554.662 648.86 557.635 651.139 560.401C676.474 591.153 722.657 597.955 755.427 574.901C764.074 568.919 771.444 561.274 777.107 552.414C786.505 568.9 803.391 580.993 821.586 585.961C841.612 591.319 862.952 588.402 880.806 577.864C892.148 571.29 899.132 563.015 907.018 552.897L907.109 596.958C907.124 601.287 906.916 614.503 907.407 618.255L907.481 722.387L907.494 760.001C907.494 765.855 907.705 774.059 907.404 779.763C906.805 776.274 906.965 766.674 906.987 762.924C907.069 753.417 907.104 743.91 907.09 734.403L906.962 618.674C898.49 626.988 896.708 633.448 884.532 641.591C868.029 652.628 845.753 656.434 826.478 652.604C803.766 648.091 789.418 635.947 776.747 617.57C772.678 625.94 762.398 636.123 754.916 641.199C728.837 658.893 692.762 658.482 666.815 640.706C656.944 633.943 651.439 626.715 644.786 617.131C622.573 657 567.668 665.607 531.87 639.614C523.2 633.318 517.584 625.856 511.399 617.351C506.253 626.432 499.192 634.283 490.706 640.359C461.315 661.237 417.214 658.717 391.296 633.276C386.311 628.383 382.61 623.321 378.65 617.647C353.374 657.643 300.915 666.545 263.886 637.135C256.373 631.167 251.913 625.068 246.622 617.257C242.276 624.114 238.373 629.237 232.158 634.621C216.303 648.606 195.419 655.501 174.353 653.705C157.347 652.415 141.333 645.201 129.097 633.32C125.089 629.4 121.103 624.337 117.39 619.992C117.806 596.933 117.401 573.024 117.517 549.849Z"/><path fill="#9B6DD4" d="M461.387 698.704C481.627 695.893 504.116 704.48 519.839 717.138C579.859 765.458 558.568 877.97 475.879 886.125L475.177 886.224C455.206 888.853 432.683 880.86 417.209 868.457C355.615 819.091 378.157 707.768 461.387 698.704Z"/><path fill="#2C1558" d="M466.15 722.705C479.7 721.96 493.011 726.49 503.292 735.347C532.863 761.234 534.457 815.506 508.757 844.327C499.162 855.269 485.537 861.848 471.001 862.559C392.136 863.609 387.001 728.705 466.15 722.705Z"/><path fill="#9B6DD4" d="M738.607 701.462L781.24 701.4C789.625 701.397 801.107 701.086 809.257 701.796C829.69 703.445 848.93 712.092 863.729 726.277C888.154 749.956 894.75 787.367 886.082 819.507C881.947 834.842 874.302 846.767 863.286 858.025C848.295 872.896 828.53 881.989 807.484 883.696C800.058 884.29 788.689 883.931 781.065 883.907L738.673 883.924C737.835 823.687 738.724 761.852 738.607 701.462Z"/><path fill="#2C1558" d="M765.623 724.389C791.273 724.829 819.613 720.085 840.171 738.64C870.149 765.699 869.584 813.927 843.677 843.504C843.416 843.776 843.151 844.045 842.882 844.31C827.008 859.931 813.035 860.845 792.354 860.739L765.747 860.489L765.623 724.389Z"/><path fill="#9B6DD4" d="M649.362 701.248C673.76 700.904 699.79 708.98 709.997 733.295C715.669 746.567 715.809 761.553 710.386 774.929C703.736 791.156 692.219 799.675 676.627 806.293C682.873 810.144 689.203 813.755 694.129 819.307C704.098 830.542 715.391 868.29 720.919 883.654L692.361 883.817C684.513 864.375 680.869 845.336 668.899 827.795C656.242 810.966 648.819 810.861 628.83 811.594C620.821 811.888 611.628 811.793 603.51 811.895C603.198 835.654 603.401 859.834 603.456 883.615C594.157 883.734 584.857 883.77 575.558 883.725C575.271 857.655 575.594 831.119 575.63 805.019L575.636 701.318C599.39 700.763 625.408 701.293 649.362 701.248Z"/><path fill="#2C1558" d="M603.232 724.456L640.317 724.425C646.472 724.417 656.944 724.047 662.528 725.212C667.399 726.185 671.958 728.337 675.805 731.479C690.845 743.908 689.616 765.847 677.726 780.04C665.302 792.304 650.849 789.338 634.549 789.202C624.192 789.114 613.835 789.091 603.478 789.135C603.28 767.576 603.198 746.016 603.232 724.456Z"/><path fill="#9B6DD4" d="M142.275 701.234C182.035 700.846 221.798 700.773 261.559 701.015L261.513 725.49L168.407 725.53L168.163 782.535C194.619 782.528 221.614 781.94 247.99 782.322L247.863 790.908L247.768 808.158L168.231 807.988C168.107 833.332 168.112 858.676 168.245 884.019L141.494 883.856L141.335 705.871C141.321 703.748 141.04 702.492 142.275 701.234Z"/><path fill="#9B6DD4" d="M286.94 701.382C295.248 701.072 305.356 701.362 313.784 701.389L361.51 701.403L361.502 786.681C361.519 798.058 361.426 809.51 361.569 820.857C361.807 839.691 357.424 861.047 341.867 873.419C318.799 891.766 279.942 891.533 260.579 867.722C251.318 855.852 249.543 841.114 249.259 826.615C257.937 826.821 266.618 826.917 275.3 826.901C275.307 845.919 283.177 862.665 304.931 862.591C312.642 862.515 320.014 859.407 325.451 853.938C330.944 848.387 333.627 840.942 333.908 833.203C334.328 821.626 334.129 809.925 334.111 798.328L334.013 725.713C318.557 725.396 302.525 725.595 287.026 725.591L286.94 701.382Z"/><path fill="#1A0D3E" d="M898.47 115.452L907.199 115.498C907.761 119.608 907.508 128.456 907.498 132.975L907.459 164.344L907.399 279.25L907.449 420.243L907.422 464.755C907.41 470.765 907.661 482.455 907.061 488.093L907.082 488.639C892.661 507.984 878.511 518.427 853.725 522.548C833.481 525.915 812.883 518.809 796.845 506.602C787.771 499.696 783.094 492.784 776.979 483.299C773.309 491.042 768.095 497.952 761.658 503.606C750.291 515.675 728.345 522.881 711.896 523.269C711.526 523.278 711.156 523.281 710.787 523.279C695.975 522.617 686.276 519.782 673.681 512.371C668.625 509.578 662.182 504.07 658.129 499.947C652.93 493.91 649.473 489.799 645.323 482.876C641.183 495.834 624.995 509.9 613.102 515.813C605.459 519.613 600.143 521.123 591.923 522.888L591.337 521.804C592.937 516.4 597.186 507.362 599.544 501.97C606.09 487.221 612.747 472.522 619.514 457.874C623.737 448.562 628.938 436.067 633.851 427.173C634.878 425.316 643.454 417.64 645.495 415.723L672.651 390.507C675.742 376.824 678.922 360.709 681.671 346.892C682.617 344.211 684.007 336.316 684.629 333.278L689.984 307.139L697.894 268.169C699.476 260.647 701.578 252.14 702.849 244.661C704.383 238.369 705.655 231.632 706.954 225.251C707.617 222.19 708.189 219.397 708.711 216.308C722.734 206.846 742.158 195.908 756.997 187.035C772.272 177.902 791.521 165.538 806.889 157.6C812.02 142.767 818.512 129.362 823.432 115.488L898.47 115.452Z"/><path fill="#1A0D3E" d="M907.199 115.498C907.761 119.608 907.508 128.456 907.498 132.975L907.459 164.344L907.399 279.25L907.449 420.243L907.422 464.755C907.41 470.765 907.661 482.455 907.061 488.093L907.082 488.639C892.661 507.984 878.511 518.427 853.725 522.548C833.481 525.915 812.883 518.809 796.845 506.602C787.771 499.696 783.094 492.784 776.979 483.299C773.309 491.042 768.095 497.952 761.658 503.606C750.291 515.675 728.345 522.881 711.896 523.269C711.526 523.278 711.156 523.281 710.787 523.279C714.175 518.133 723.435 497.265 726.52 490.553L758.362 420.368C761.231 413.966 765.731 400.318 769.622 395.37C774.368 389.337 814.334 378.772 817.544 372.346C817.646 372.142 817.736 371.933 817.834 371.728C823.542 359.793 827.613 344.99 832.23 332.383C840.49 309.83 849.381 287.524 857.3 264.841C872.61 261.487 891.474 255.965 906.944 251.884L906.963 159.618L906.839 132.113C906.818 127.741 906.62 119.6 907.199 115.498Z"/><path fill="#3B1F6E" d="M907.199 115.498C907.761 119.608 907.508 128.456 907.498 132.975L907.459 164.344L907.399 279.25L907.449 420.243L907.422 464.755C907.41 470.765 907.661 482.455 907.061 488.093C906.516 480.77 906.823 469.711 906.842 462.145L906.928 416.711L906.877 272.508C896.567 275.187 885.836 277.403 875.421 279.774C870.923 296.992 866.278 314.172 861.487 331.311C856.958 347.562 852.107 364.017 848.202 380.398C836.263 387.322 815.789 394.855 802.048 401.632C798.484 407.841 761.65 501.609 761.658 503.606C750.291 515.675 728.345 522.881 711.896 523.269C711.526 523.278 711.156 523.281 710.787 523.279C714.175 518.133 723.435 497.265 726.52 490.553L758.362 420.368C761.231 413.966 765.731 400.318 769.622 395.37C774.368 389.337 814.334 378.772 817.544 372.346C817.646 372.142 817.736 371.933 817.834 371.728C823.542 359.793 827.613 344.99 832.23 332.383C840.49 309.83 849.381 287.524 857.3 264.841C872.61 261.487 891.474 255.965 906.944 251.884L906.963 159.618L906.839 132.113C906.818 127.741 906.62 119.6 907.199 115.498Z"/><path fill="#1A0D3E" d="M708.711 216.308C722.734 206.846 742.158 195.908 756.997 187.035C772.272 177.902 791.521 165.538 806.889 157.6C804.774 167.349 792.942 217.148 789.351 222.091C783.738 229.82 766.658 240.32 763.569 247.755C760.496 255.153 759.554 263.977 757.504 271.786C750.629 297.975 745.023 324.745 736.762 350.523C728.03 355.533 713.88 363.098 704.818 367.233C702.179 372.969 699.481 381.339 697.276 387.516C692.581 400.522 688.04 413.584 683.655 426.697C675.357 451.175 666.406 475.304 658.129 499.947C652.93 493.91 649.473 489.799 645.323 482.876C641.183 495.834 624.995 509.9 613.102 515.813C605.459 519.613 600.143 521.123 591.923 522.888L591.337 521.804C592.937 516.4 597.186 507.362 599.544 501.97C606.09 487.221 612.747 472.522 619.514 457.874C623.737 448.562 628.938 436.067 633.851 427.173C634.878 425.316 643.454 417.64 645.495 415.723L672.651 390.507C675.742 376.824 678.922 360.709 681.671 346.892C682.617 344.211 684.007 336.316 684.629 333.278L689.984 307.139L697.894 268.169C699.476 260.647 701.578 252.14 702.849 244.661C704.383 238.369 705.655 231.632 706.954 225.251C707.617 222.19 708.189 219.397 708.711 216.308Z"/><path fill="#3B1F6E" d="M823.432 115.488L898.47 115.452C897.379 118.896 894.053 123.501 892.163 126.817C889.358 131.737 886.615 136.636 883.874 141.596L850.682 200.448C846.834 207.272 841.543 218.375 836.879 224.918C835.841 226.374 827.971 231.473 825.895 232.871L801.287 249.505C798.809 251.197 792.24 255.467 790.224 257.28C788.487 261.663 786.908 268.099 785.623 272.772C783.116 281.847 780.689 290.945 778.344 300.063C773.243 319.547 767.495 339.321 762.642 358.79C751.933 364.82 730.818 376.508 721.192 383.671C710.866 411.11 700.743 438.625 690.823 466.213C686.225 478.867 679 500.945 673.681 512.371C668.625 509.578 662.182 504.07 658.129 499.947C666.406 475.304 675.357 451.175 683.655 426.697C688.04 413.584 692.581 400.522 697.276 387.516C699.481 381.339 702.179 372.969 704.818 367.233C713.88 363.098 728.03 355.533 736.762 350.523C745.023 324.745 750.629 297.975 757.504 271.786C759.554 263.977 760.496 255.153 763.569 247.755C766.658 240.32 783.738 229.82 789.351 222.091C792.942 217.148 804.774 167.349 806.889 157.6C812.02 142.767 818.512 129.362 823.432 115.488Z"/><defs><linearGradient id="gradient_0" gradientUnits="userSpaceOnUse" x1="470.20853" y1="256.00336" x2="470.25018" y2="116.3952"><stop offset="0" stop-color="#6655C4"/><stop offset="1" stop-color="#988DF1"/></linearGradient></defs><path fill="url(#gradient_0)" d="M116.903 115.759C125.391 115.175 138.757 115.539 147.492 115.538L206.863 115.715L355.882 115.729L823.432 115.488C818.512 129.362 812.02 142.767 806.889 157.6C791.521 165.538 772.272 177.902 756.997 187.035C742.158 195.908 722.734 206.846 708.711 216.308C708.189 219.397 707.617 222.19 706.954 225.251C705.655 231.632 704.383 238.369 702.849 244.661C701.676 242.663 700.263 239.622 697.646 239.196C682.047 236.659 665.702 241.397 650.03 242.245C633.871 243.312 617.79 243.96 601.719 245.884C593.646 246.85 577.825 250.833 569.772 253.743C568.547 254.186 568.628 255.239 568.404 256.413L561.233 251.843C536.442 238.993 514.57 235.359 487.073 243.537C475.809 246.888 469.264 251.781 459.421 257.16L453.071 262.384L454.069 260.235C451.325 243.053 294.09 247.102 274.114 248.951C265.631 249.736 240.794 244.759 235.735 252.218L234.471 251.698L231.637 245.951C219.842 222.161 208.194 198.298 196.695 174.364C178.587 169.787 160.52 165.048 142.497 160.147C134.329 146.856 125.783 128.158 117.28 116.099C117.801 135.842 117.285 155.782 117.536 175.54C117.613 181.554 117.611 187.755 117.394 193.759C116.837 190.26 117.076 173.443 117.066 168.766L116.903 115.759Z"/><path fill="#6A3FA3" d="M231.637 245.951C232.647 245.71 233.297 245.407 234.182 245.142C247.583 241.141 262.414 244.862 276.175 244.645C288.842 244.29 300.439 243.886 313.013 243.579C318.267 243.451 323.741 242.527 328.933 242.42C344.247 242.102 359.568 242.252 374.873 242.872C378.94 243.076 383.943 243.716 388.03 244.025C403.522 245.2 450.568 244.137 459.421 257.16L453.071 262.384L454.069 260.235C451.325 243.053 294.09 247.102 274.114 248.951C265.631 249.736 240.794 244.759 235.735 252.218L234.471 251.698L231.637 245.951Z"/><path fill="#6A3FA3" d="M561.233 251.843L562.336 251.779C562.884 251.181 564.617 249.32 565.41 249.105C592.585 241.729 620.775 239.75 648.824 238.452C657.145 238.067 700.515 230.795 703.127 236.914L703.349 236.98C705.435 233.179 704.012 228.262 706.954 225.251C705.655 231.632 704.383 238.369 702.849 244.661C701.676 242.663 700.263 239.622 697.646 239.196C682.047 236.659 665.702 241.397 650.03 242.245C633.871 243.312 617.79 243.96 601.719 245.884C593.646 246.85 577.825 250.833 569.772 253.743C568.547 254.186 568.628 255.239 568.404 256.413L561.233 251.843Z"/><path fill="#1A0D3E" d="M117.28 116.099C125.783 128.158 134.329 146.856 142.497 160.147C160.52 165.048 178.587 169.787 196.695 174.364C208.194 198.298 219.842 222.161 231.637 245.951L234.471 251.698C237.966 258.923 241.468 266.399 245.064 273.553C258.111 278.323 275.834 284.549 288.474 289.959C294.981 305.169 300.46 321.241 306.709 336.585C307.834 339.347 312.378 351.697 313.416 353.434C316.595 363.177 321.968 375.834 325.748 385.639L351.466 451.993C355.346 462.168 359.153 472.37 362.887 482.599C363.893 485.305 367.052 494.333 368.294 496.577C357.423 509.162 344.879 516.348 328.91 520.873C324.529 521.901 309.068 524.105 305.134 522.722C279.814 520.765 258.807 504.786 246.816 482.993C240.669 493.747 233.961 501.965 223.751 509.15C207.331 520.852 186.873 525.408 167.039 521.78C146.401 518.104 129.261 506.146 117.41 489.077L117.352 276.307L117.375 254.735L117.394 193.759C117.611 187.755 117.613 181.554 117.536 175.54C117.285 155.782 117.801 135.842 117.28 116.099Z"/><path fill="#1A0D3E" d="M117.352 276.307C127.566 277.227 144.426 280.771 155.088 282.543C156.458 289.586 159.127 297.161 161.328 304.052L170.808 333.801L181.209 366.68C183.107 372.761 185.41 380.946 187.671 386.718L188.18 387.114C216.81 409.111 251.404 428.028 279.635 450.55C281.085 451.707 306.103 520.407 305.939 522.171L305.134 522.722C279.814 520.765 258.807 504.786 246.816 482.993C240.669 493.747 233.961 501.965 223.751 509.15C207.331 520.852 186.873 525.408 167.039 521.78C146.401 518.104 129.261 506.146 117.41 489.077L117.352 276.307Z"/><path fill="#3B1F6E" d="M117.375 254.735C123.045 255.707 129.449 257.538 135.016 259.12C149.696 263.292 164.384 267.008 179.181 270.722C187 293.993 194.636 317.325 202.089 340.717C206.546 354.815 213.014 377.457 218.599 390.39L266.818 419.372C276.832 425.337 287.32 431.024 297.134 437.249C300.731 445.687 328.336 520.379 328.91 520.873C324.529 521.901 309.068 524.105 305.134 522.722L305.939 522.171C306.103 520.407 281.085 451.707 279.635 450.55C251.404 428.028 216.81 409.111 188.18 387.114L187.671 386.718C185.41 380.946 183.107 372.761 181.209 366.68L170.808 333.801L161.328 304.052C159.127 297.161 156.458 289.586 155.088 282.543C144.426 280.771 127.566 277.227 117.352 276.307L117.375 254.735Z"/><defs><linearGradient id="gradient_1" gradientUnits="userSpaceOnUse" x1="359.11331" y1="527.25653" x2="343.53943" y2="242.76981"><stop offset="0" stop-color="#00002E"/><stop offset="1" stop-color="#5B4BB4"/></linearGradient></defs><path fill="url(#gradient_1)" d="M234.471 251.698L235.735 252.218C240.794 244.759 265.631 249.736 274.114 248.951C294.09 247.102 451.325 243.053 454.069 260.235L453.071 262.384C434.299 279.6 423.655 301.349 422.448 326.903C422.128 333.682 421.929 343.788 425.537 349.692C435.824 358.242 442.91 355.174 449.117 344.742L449.591 344.827C450.164 346.255 450.142 346.582 450.35 348.081C452.576 350.871 455.296 352.86 458.818 353.701L458.732 354.37C457.249 365.108 448.018 368.455 447.806 381.866C447.707 388.122 447.968 397.931 451.1 403.54C458.516 416.817 464.352 419.103 463.408 435.923C462.443 453.093 449.383 457.68 449.612 475.216C449.669 479.575 449.577 482.371 450.89 486.749C451.732 489.609 452.888 492.367 454.337 494.972C456.857 499.492 467.822 514.117 463.918 519.131C448.719 523.071 438.132 525.115 422.791 520.008C401.365 512.874 388.064 502.371 377.833 482.432C374.829 487.892 372.188 491.748 368.294 496.577C367.052 494.333 363.893 485.305 362.887 482.599C359.153 472.37 355.346 462.168 351.466 451.993L325.748 385.639C321.968 375.834 316.595 363.177 313.416 353.434C312.378 351.697 307.834 339.347 306.709 336.585C300.46 321.241 294.981 305.169 288.474 289.959C275.834 284.549 258.111 278.323 245.064 273.553C241.468 266.399 237.966 258.923 234.471 251.698Z"/><defs><linearGradient id="gradient_2" gradientUnits="userSpaceOnUse" x1="649.11823" y1="516.86688" x2="621.45306" y2="243.43065"><stop offset="0" stop-color="#00002A"/><stop offset="1" stop-color="#5D4CB6"/></linearGradient></defs><path fill="url(#gradient_2)" d="M568.404 256.413C568.628 255.239 568.547 254.186 569.772 253.743C577.825 250.833 593.646 246.85 601.719 245.884C617.79 243.96 633.871 243.312 650.03 242.245C665.702 241.397 682.047 236.659 697.646 239.196C700.263 239.622 701.676 242.663 702.849 244.661C701.578 252.14 699.476 260.647 697.894 268.169L689.984 307.139L684.629 333.278C684.007 336.316 682.617 344.211 681.671 346.892C678.922 360.709 675.742 376.824 672.651 390.507L645.495 415.723C643.454 417.64 634.878 425.316 633.851 427.173C628.938 436.067 623.737 448.562 619.514 457.874C612.747 472.522 606.09 487.221 599.544 501.97C597.186 507.362 592.937 516.4 591.337 521.804L591.923 522.888C588.045 523.346 584.157 523.711 580.262 523.985C580.044 497.781 566.969 501.726 564.51 479.211C562.798 463.529 571.85 458.666 576.223 445.79C577.516 441.984 577.561 437.581 577.735 433.593C578.675 412.059 563.575 412.054 562.907 390.348C562.242 368.705 573.418 372.103 574.364 352.666C579.043 349.969 580.147 348.439 581.833 343.373C585.908 354.001 594.385 356.957 604.091 351.197C610.281 341.552 609.198 329.457 607.46 318.473C603.317 292.28 589.665 271.808 568.404 256.413Z"/><path fill="#2C1558" d="M465.815 353.723C470.978 352.029 473.92 349.92 475.494 344.561C478.435 350.883 480.912 351.914 486.869 355.36C484.864 360.127 480.921 363.945 479.227 367.981C472.227 384.658 476.047 401.388 487.126 415.161C491.594 420.821 491.811 440.352 488.148 445.966C479.046 459.914 474.59 473.536 480.439 490.052C483.312 498.162 488.793 501.893 491.584 511.37C487.094 515.074 476.839 522.188 471.105 523.169L470.75 523.06C468.334 520.328 466.165 522.33 463.918 519.131C467.822 514.117 456.857 499.492 454.337 494.972C452.888 492.367 451.732 489.609 450.89 486.749C449.577 482.371 449.669 479.575 449.612 475.216C449.383 457.68 462.443 453.093 463.408 435.923C464.352 419.103 458.516 416.817 451.1 403.54C447.968 397.931 447.707 388.122 447.806 381.866C448.018 368.455 457.249 365.108 458.732 354.37L458.818 353.701C461.391 353.377 463.219 353.28 465.815 353.723Z"/><path fill="#7D6CE8" d="M458.818 353.701C461.391 353.377 463.219 353.28 465.815 353.723C464.989 356.842 464.278 360.604 462.894 363.457C461.358 366.489 457.043 370.988 455.929 373.91C453.256 380.92 453.56 397.408 458.31 403.445C468.185 415.995 472.689 426.736 468.805 442.974C467.21 449.638 463.294 454.838 459.838 460.731C455.038 469.665 454.971 484.667 460.339 493.378C464.731 500.506 469.665 505.597 470.579 514.465C470.866 517.252 470.518 520.687 470.75 523.06C468.334 520.328 466.165 522.33 463.918 519.131C467.822 514.117 456.857 499.492 454.337 494.972C452.888 492.367 451.732 489.609 450.89 486.749C449.577 482.371 449.669 479.575 449.612 475.216C449.383 457.68 462.443 453.093 463.408 435.923C464.352 419.103 458.516 416.817 451.1 403.54C447.968 397.931 447.707 388.122 447.806 381.866C448.018 368.455 457.249 365.108 458.732 354.37L458.818 353.701Z"/><path fill="#2C1558" d="M555.283 344.573C557.237 349.676 560.332 352.395 565.728 353.579C568.354 353.515 571.703 352.994 574.364 352.666C573.418 372.103 562.242 368.705 562.907 390.348C563.575 412.054 578.675 412.059 577.735 433.593C577.561 437.581 577.516 441.984 576.223 445.79C571.85 458.666 562.798 463.529 564.51 479.211C566.969 501.726 580.044 497.781 580.262 523.985C578.451 524.068 576.45 524.016 574.624 524.009C566.03 523.671 560.76 522.751 552.548 520.597C552.779 499.727 540.443 500.54 537.908 481.782C534.711 458.131 549.326 458.571 550.929 436.275C553.881 414.441 533.729 407.005 536.06 384.814C537.617 369.998 545.146 367.562 547.132 353.404C551.709 351.185 553.11 348.839 555.283 344.573Z"/><path fill="#7D6CE8" d="M565.728 353.579C568.354 353.515 571.703 352.994 574.364 352.666C573.418 372.103 562.242 368.705 562.907 390.348C563.575 412.054 578.675 412.059 577.735 433.593C577.561 437.581 577.516 441.984 576.223 445.79C571.85 458.666 562.798 463.529 564.51 479.211C566.969 501.726 580.044 497.781 580.262 523.985C578.451 524.068 576.45 524.016 574.624 524.009C573.737 503.86 564.99 504.304 559.464 488.144C557.052 481.092 557.325 467.963 561.027 461.236C562.929 457.78 565.33 453.938 567.303 450.457C572.528 441.231 573.364 427.604 567.845 418.33C564.506 412.719 559.966 407.719 558.096 401.032C556.172 394.154 556.491 380.321 559.039 373.591C559.749 371.718 564.936 364.525 565.996 362.114C566.906 360.044 568.617 357.296 567.725 354.673C567.45 353.867 566.94 354.001 565.728 353.579Z"/><path fill="#2C1558" d="M528.645 345.332C532.516 353.116 533.294 351.281 540.158 354.684C542.323 355.757 535.888 365.336 534.772 367.207C529.707 375.704 528.972 382.602 529.576 392.156C530.566 407.841 542.569 414.213 544.108 428.937C544.848 435.336 544.197 445.521 540.13 450.694C531.765 461.334 530.217 470.076 531.559 483.349C532.58 493.444 538.113 497.642 542.928 505.833C544.808 509.03 545.713 514.666 546.434 518.521C544.112 517.611 542.074 516.598 539.835 515.519C520.583 504.436 501.659 485.002 513.02 462.077C519.995 448.002 526.032 445.213 523.889 426.915C521.734 408.524 507.475 402.494 508.754 382.946C509.631 369.54 518.294 365.73 518.736 354.342C523.867 352.154 526.524 350.669 528.645 345.332Z"/><path fill="#2C1558" d="M502.128 343.884C503.5 350.036 507.648 352.466 513.173 354.49C510.645 361.233 506.714 365.956 504.548 371.406C500.859 380.689 501.694 396.365 506.909 405.067C509.566 409.872 513.747 414.798 515.679 419.899C522.11 436.883 514.367 448.019 506.242 461.982C501.605 469.949 503.732 484.515 507.215 493.286C504.454 497.388 501.488 501.35 498.33 505.156C497.843 505.816 497.595 505.97 496.987 506.528C495.286 505.183 495.326 502.331 492.921 499.315C485.023 490.403 481.61 471.72 487.372 460.966C494.151 448.315 498.291 441.498 496.433 425.882C494.177 406.934 480.251 403.605 482.495 381.985C483.948 367.984 491.132 365.241 492.738 354.984L492.836 354.325C497.814 350.996 500.251 349.743 502.128 343.884Z"/></svg>