<?xml version="1.0" encoding="utf-8" ?><svg xmlns="http://www.w3.org/2000/svg" xmlns:xlink="http://www.w3.org/1999/xlink" width="1024" height="1024" viewBox="0 0 1024 1024"><path fill="#FDFEFE" d="M0 0L1024 0L1024 1024L0 1024L0 0Z"/><path fill="#9EE5E1" d="M424.379 32.6209C430.668 31.3184 436.994 28.1443 442.539 28.3491C445.85 28.4715 445.356 29.1072 448.837 27.189C451.506 27.8266 452.458 28.6859 454.426 26.2237C453.263 25.9537 452.979 25.889 451.794 25.817C460.415 21.9017 476.127 23.6155 485.652 23.308C488.422 23.2185 491.505 22.58 494.225 22.1102L493.868 22.0684C495.863 21.7976 496.302 22.1041 498.288 22.7684C498.94 22.3151 498.696 22.6353 498.891 21.7228C499.762 21.953 500.632 22.192 501.498 22.4397L501.912 22.1148L501.155 21.4194C502.402 21.1624 503.298 21.756 504.515 22.2837L505.5 21.9968C504.977 20.8901 505.289 21.4043 503.638 20.733C506.722 20.5625 507.076 22.4462 510.058 22.7836C515.218 23.3672 520.546 19.8209 524.825 22.0105L522.441 21.306C524.85 22.2041 526.073 22.0547 528.624 22.0931C529.904 21.3534 530.531 20.7309 531.859 20.6976L530.103 22.7392C531.297 22.5561 531.213 22.5792 532.09 21.7411C532.865 21.7906 535.126 21.9407 535.799 21.9154C537.334 21.8576 535.394 20.2032 537.835 21.2906C537.152 21.9569 536.81 22.1299 536.41 22.9958C537.252 22.9265 542.668 21.9336 542.809 21.9652C548 22.9874 550.731 24.2288 555.826 22.227C559.055 23.121 561.834 24.7672 565.245 25.0242C574.764 25.7417 583.724 29.237 593.286 28.2825C593.435 28.2677 601.394 33.6806 603.332 33.882C604.197 33.9718 609.244 36.1067 610.15 36.5737L610.164 35.9073L610.514 35.4616C622.569 37.7946 636.273 42.2116 647.383 47.4169C649.158 48.2483 650.433 47.3489 652.159 48.6354C650.582 49.0357 650.872 48.6375 650.118 49.5518C653.285 51.4794 657.225 48.6594 660.062 50.9559C660.143 51.0217 661.27 51.4131 661.343 51.439L661.435 50.1384C661.876 50.1176 682.013 60.4301 683.332 61.7489L683.823 60.8553L684.741 60.4132C686.864 62.6597 688.999 65.8255 691.289 67.396L691.685 66.4547C693.958 66.8913 695.402 68.6205 698.156 69.1619C700.945 69.7102 701.373 68.292 702.187 68.6829L701.288 69.1843C702.328 70.0485 703.384 70.8942 704.455 71.7211C704.073 72.076 703.691 72.4308 703.308 72.7857L704.019 73.1302L705.015 72.2321C706.256 73.0551 706.366 73.4654 707.169 74.723C711.164 75.5252 711.92 75.1186 714.177 78.4805L714.519 78.9974C715.385 80.2927 715.594 80.3622 716.872 81.28L717.97 80.352C721.347 81.7865 724.002 82.7714 727.032 84.8615L727.46 84.524L725.703 82.7524L725.831 82.1334C729.003 83.997 732.672 86.8421 735.42 88.4183L735.988 88.3434C740.325 87.7156 742.318 91.6395 743.772 92.2042C752.653 95.6533 744.773 95.9827 742.797 93.2304C742.447 93.2275 741.525 93.5121 741.174 93.5896C742.233 95.2688 746.253 98.0242 748.392 100.174C749.535 99.6965 749.432 99.1873 750.166 97.7251C750.702 100.52 748.883 98.0549 750.181 100.805C750.973 99.8325 750.61 100.321 751.278 99.3457C751.972 99.7385 752.452 99.7754 753.242 99.958L753.244 102.472L753.902 103.049C754.149 102.567 754.395 102.085 754.641 101.603C760.204 106.351 764.817 111.792 769.97 116.836C772.181 119.001 776.331 120.639 779.456 123.558L780.207 123.619L780.646 122.327L780.937 122.903C784.248 129.312 787.71 131.1 792.947 135.487C793.311 135.793 796.041 139.638 797.198 140.894L795.182 141.107C797.775 143.324 796.249 140.185 798.613 142.778L798.69 144.926C800.266 146.266 810.691 154.846 810.973 155.845C809.752 155.96 809.554 155.756 808.805 156.302C810.869 157.313 812.591 157.296 813.701 158.397L812.259 158.727C813.353 159.876 814.148 160.211 815.515 160.976C815.167 161.606 815.422 161.356 814.709 161.681C815.106 163.017 817.513 164.26 818.818 164.96C819.956 165.566 821.101 166.159 822.253 166.739L821.338 167.706L822.045 167.948C822.371 168.931 822.573 169.633 822.822 170.638C824.271 170.979 824.503 171.154 825.644 172.113L825.821 173.006L824.821 173.775C826.567 174.873 828.567 174.859 829.111 175.537L828.178 176.337C831.39 178.178 837.432 187.57 839.377 191.087C841.228 191.301 840.895 190.884 841.732 191.811L840.255 192.099C840.2 194.407 843.043 194.974 844.838 195.547C846.029 197.586 846.285 198.283 847.059 200.528C846.099 200.847 846.447 200.647 845.926 201.069C852.61 208.164 856.222 213.452 860.047 222.627C864.963 225.505 859.139 226.309 866.365 232.114C866.921 233.981 867.385 237.122 868.032 238.368C868.167 237.69 868.184 237.427 868.544 236.827C869.838 237.901 869.483 237.236 869.692 238.862L869.182 238.686L868.901 239.272L869.69 239.688C870.622 240.149 872.049 240.788 871.43 242.017C870.932 243.005 873.012 244.147 873.244 245.011C873.161 245.309 873.231 245.166 873.018 245.431C872.605 245.282 872.946 245.52 872.321 245.118C872.144 245.179 871.761 245.637 871.533 245.824L871.163 247.706C871.093 247.61 872.966 249.969 872.693 249.447C876.94 257.576 883.698 266.093 885.46 275.154C885.992 277.891 889.264 279.759 890.138 282.49C890.404 283.473 889.39 285.502 890.43 287.31L891.174 287.734L892.553 291.074L892.988 291.007L893.006 287.344C893.617 287.94 894.346 291.617 894.634 292.757L894.879 292.51C894.727 291.087 894.553 289.739 894.535 288.304L896.341 291.811L896.334 291.637C896.986 293.348 900.133 301.856 900.187 303.325L898.565 302.183L898.36 302.674C900.062 306.331 899.722 306.333 900.561 310.006L900.271 310.344C900.826 310.846 902.536 312.083 901.852 312.956C901.738 314.501 903.079 315.006 901.248 315.571C903.524 319.919 904.456 326.33 905.27 331.139C906.011 335.514 905.085 335.05 908.191 338.408L908.265 339.043L906.489 339.734C907.132 342.44 907.564 347.098 910.031 348.287C913.276 349.852 911.145 353.854 912.352 356.041C912.918 355.33 912.648 355.732 913.132 354.815C914.543 356.602 914.382 366.805 914.755 370.153C914.631 372.662 917.401 378.762 917.462 380.569C917.835 391.625 918.122 402.795 918.35 413.881C918.366 414.674 917.745 415.19 917.728 415.876C917.766 418.312 917.674 420.987 917.83 423.373C917.779 424.803 917.537 426.035 918.232 427.218C918.539 428.123 919.925 435.935 919.817 435.859C921.536 437.075 920.347 439.672 919.435 438.949L919.503 438.944C918.921 438.665 919.165 438.728 918.805 438.656C918.702 438.725 918.726 438.737 918.666 438.961C918.754 439.315 918.921 439.456 919.113 439.752C917.205 442.188 919.509 441.903 917.083 443.582C917.32 445.321 917.125 445.151 917.135 446.564C917.221 459.073 919.511 473.528 915.784 485.632C914.852 488.661 916.398 492.361 915.108 493.808L914.734 492.477L914.216 492.978C914.422 493.923 914.599 494.654 914.867 495.583L914.274 495.778L913.485 493.333C912.803 493.878 912.516 497.423 912.438 498.469C911.636 498.998 912.044 498.871 911.254 498.96C909.485 502.56 907.604 506.785 907.459 510.758C907.391 512.62 906.936 515.295 906.31 517.02C907.858 517.103 907.305 517.216 908.725 516.728C908.179 518.266 907.915 519.43 906.853 520.665C905.21 520.932 906.013 520.625 904.593 522.137C904.248 524.056 904.046 526.093 902.712 527.51L903.19 527.785C903.687 527.194 904.929 524.742 905.632 525.24C905.735 525.567 905.703 525.401 905.729 525.74L905.791 525.804C906.114 525.735 906.38 525.645 906.704 525.702C906.92 526.775 905.098 527.368 904.638 528.666L904.757 528.855C905.128 528.723 905.337 528.535 905.69 528.759C905.781 529.451 904.099 531.182 903.642 532.164L903.759 532.353C904.136 532.221 904.34 532.037 904.698 532.263C904.767 532.737 904.143 533.481 903.874 533.745C901.86 535.722 903.836 537.622 902.734 538.971C901.615 540.338 900.519 542.53 899.389 543.658L898.78 545.479L898.995 545.818C899.707 544.377 899.626 544.233 900.724 543.082C901.323 544.477 897.946 550.377 897.163 551.981L897.62 552.032C898.006 551.372 898.31 550.835 898.74 550.201C898.658 551.832 898.934 552.861 898.071 553.818C896.528 555.529 896.06 559.866 894.268 561.156C894.337 560.166 894.334 559.841 894.181 558.827L892.968 559.051L892.802 559.376L893.655 559.793C892.629 562.852 892.311 558.646 892.295 562.936L892.822 563.459L893.401 563.216C892.503 565.209 891.917 565.478 892.379 567.074C890.335 573.897 888.383 580.747 886.524 587.623L886.283 584.451C885.468 585.137 884.733 588.067 884.306 589.337L883.967 587.345C881.137 588.175 882.434 594.579 877.232 597.877C878.405 598.782 878.009 598.188 878.605 599.548C876.87 607.777 871.335 611.195 870.34 614.332L872.082 613.218L872.206 613.766C869.609 615.937 868.902 618.716 867.942 621.86L868.705 622.069C868.503 623.591 867.153 624.41 865.827 625.707C864.364 624.943 865.037 625.412 864.08 623.661C862.644 625.151 863.751 627.578 861.608 630.89C859.372 634.346 853.909 639.991 853.641 643.659C851.25 645.59 849.107 644.995 847.581 648.496C846.439 651.114 846.485 655.11 844.221 656.779C845.452 657.725 845.119 657.105 845.463 658.536C843.677 660.602 841.042 659.771 840.855 661.075C840.474 663.721 840.889 666.382 838.786 668.744L838.136 668.602C838.039 666.986 838.016 666.03 838.061 664.416C834.326 664.624 829.472 676.941 827.575 679.9C824.399 684.851 820.064 689.979 816.468 694.611C815.443 695.93 811.782 696.369 809.476 698.991L809.352 699.49L810.69 699.866C809.988 700.729 810.118 700.563 809.278 701.143C807.356 702.472 805.91 707.725 804.506 709.183C801.479 712.327 797.481 710.974 797.17 716.99L798.27 717.263L795.46 718.561L795.302 719.231L796.228 719.75L795.261 720.761C794.865 719.275 794.944 719.323 794.834 717.785L794.246 717.82C793.552 718.875 793.687 718.981 793.644 720.285L792.999 721.29C792.8 718.829 793.92 714.112 793.208 713.335C792.343 715.85 788.997 719.212 787.742 722.341C786.407 725.666 784.923 727.666 781.33 728.59C779.36 730.621 778.64 733.473 777.126 734.289C776.416 733.187 776.615 732.958 776.692 731.585L777.477 730.293C777.372 729.879 777.17 728.974 777.018 728.618C777.181 727.482 777.312 727.149 776.918 726.08C776.69 726.491 776.403 726.868 776.36 727.273L775.674 727.908C774.997 728.555 772.816 730.025 772.008 730.551C771.572 731.754 771.734 731.443 771.027 732.547C770.955 734.732 770.92 737.513 769.852 739.467C769.155 738.928 769.434 738.958 769.142 737.672C768.747 738.308 766.662 742.345 766.933 742.109C764.678 744.073 762.529 743.792 760.528 746.198L761.108 746.011C759.957 747.274 759.024 748.35 758.039 749.756C757.566 750.348 756.354 752.244 755.738 752.583C755.211 752.052 755.375 750.888 754.501 750.671C753.611 751.346 751.967 753.872 750.166 754.287C747.524 754.897 746.822 756.799 744.5 755.583C741.511 758.259 733.591 761.067 730.327 763.561C729.927 763.867 729.847 764.909 729.727 765.513C731.509 766.355 734.509 763.519 735.025 764.587L734.568 765.007C731.981 767.429 730.84 770.205 728.037 771.928C724.342 774.199 720.633 776.398 717.016 778.798L716.843 778.018L716.355 777.848C710.167 783.01 711.642 784.896 703.037 787.623L703.352 786.934L701.999 785.283L701.503 785.518C699.532 786.438 693.76 788.911 691.794 789.156L691.183 788.206C686.056 794.381 677.565 794.727 670.984 798.002C670.293 798.346 669.889 797.999 669.235 797.76C667.857 800.85 666.782 799.874 663.397 799.722L663.314 800.264C664.561 800.427 667.879 800.599 668.62 800.82C666.269 802.032 661.923 802.502 658.529 804.25L657.776 803.313C656.148 804.756 654.425 805.293 652.439 806.121L651.538 805.031C649.886 805.33 649.622 805.93 648.244 806.793L648.471 807.614C649.396 807.015 649.876 806.688 650.727 805.992L651.218 806.303C650.968 807.151 651.084 807.279 649.829 807.798C644.983 809.798 639.493 810.805 634.472 812.436C632.568 813.055 630.776 814.128 629.126 814.577L629.261 813.609C628.165 813.888 628.439 813.75 627.555 814.435C618.88 821.157 608.604 818.926 598.477 824.474L597.787 824.847C597.651 824.925 597.514 825.002 597.378 825.08C595.133 824.831 591.285 824.094 589.505 825.481C589.904 826.15 589.74 825.857 590.718 826.27L590.099 826.764C589.958 826.696 589.819 826.626 589.678 826.562C584.79 824.336 569.734 828.58 563.797 829.039C562.543 829.135 561.477 828.792 560.26 828.678C559.739 828.628 559.164 828.646 558.634 828.653L559.343 829.69C556.97 829.5 553.06 828.963 550.592 829.462C547.156 830.157 542.727 831.525 539.119 831.576C538.709 831.582 536.829 829.817 536.389 829.414C529.245 829.041 522.094 828.66 514.948 828.344C513.52 828.281 511.35 830.531 509.34 830.577C511.292 830.28 517.65 828.854 518.943 829.065L515.044 830.363C521.138 831.122 523.092 830.657 529.131 832.828L529.218 833.21C523.722 833.313 517.156 834.36 512.346 834.275L511.985 833.9L513.405 832.849C509.712 832.652 507.981 834.689 504.087 834.326L503.748 833.774C503.361 833.156 503.145 832.845 502.714 832.278C499.274 831.853 492.966 832.867 491.078 831.218L491.964 830.73L491.57 830.258C484.654 830.937 477.682 831.337 470.739 831.518C468.437 831.579 465.113 829.297 462.786 829.129C452.595 828.392 441.911 826.6 431.78 826.126C431.203 824.252 431.318 824.301 429.472 823.564C419.738 819.677 409.18 819.909 399.246 816.725C397.916 816.301 396.912 814.846 396.265 814.395C390.175 810.144 389.256 814.55 382.421 808.709C383.323 810.102 383.644 810.461 384.706 811.673C382.579 810.976 381.129 810.837 378.964 809.934C379.45 809.346 380.339 809.391 381.318 809.205L381.26 808.644C381.108 808.665 380.957 808.693 380.804 808.706C378.087 808.944 354.09 799.075 351.884 796.918C351.653 796.692 351.455 796.433 351.24 796.19L350.744 797.136C342.54 794.768 338.981 794.223 333.977 787.888L333.641 789.377C331.26 789.377 309.953 777.877 309.096 778.598L309.231 779.404C305.821 778.638 303.534 774.097 301.45 772.717C298.664 770.871 293.424 769.457 290.544 767.128L292.284 766.739C290.504 764.958 286.486 763.587 283.982 762.894C281.857 761.778 281.16 761.27 282.374 759.135C283.212 759.818 274.16 755.366 275.219 755.666L274.818 756.7C270.888 752.752 263.39 747.58 258.458 744.812C257.872 744.484 258.557 744.033 257.155 743.283L256.805 744.217C255.754 743.419 254.349 740.518 253.231 739.457C247.579 734.095 241.333 726.086 234.402 722.966C232.269 722.006 229.201 712.137 223.309 707.391C222.734 707.753 222.979 707.679 222.699 708.691C221.314 707.771 220.744 706.37 219.897 704.888L219.881 707.717L219.378 708.162C216.333 706.234 210.168 699.327 206.219 697.492C204.192 696.55 208.279 695.69 208.776 694.214C208.308 694.356 207.84 694.498 207.372 694.64C201.043 689.387 196.704 680.972 190.42 675.583C189.063 675.271 188.005 675.029 187.245 674.855L189.984 674.485L190.058 673.99C188.817 673.056 186.853 673.334 184.738 672.813L185.114 672.063L184.701 670.832L185.105 671.127L185.581 670.801C185.464 667.35 180.082 660.893 177.171 658.793L177.186 658.843L177.514 657.985C176.572 656.501 175.861 655.671 175.143 653.912C172.897 648.406 167.923 644.013 165.348 638.345C164.463 636.396 162.23 634.089 161.165 632.082C160.663 630.463 160.523 630.408 159.551 629.034C158.919 627.353 155.057 622.542 154.332 620.092C153.49 617.242 151.187 616.204 149.285 613.876C148.781 612.241 149.337 611.488 149.784 609.941C150.576 607.198 147.627 606.009 145.647 605.151C143.923 604.403 142.459 600.042 141.843 598.277L142.28 597.925L144.258 600.375C143.925 598.77 143.791 598.151 143.713 596.464L144.723 595.875C140.674 593.311 144.271 588.331 138.971 587.124L138.439 587.632L138.786 589.338L138.481 589.256C135.945 585.413 138.394 582.334 134.836 580.005C134.445 580.762 134.648 583.157 134.671 584.191L134.238 584.275C134.592 581.066 133.799 580.427 132.535 577.643C129.796 571.61 129.49 566.288 129.66 559.786L129.089 559.678L128.848 561.883L128.484 561.746C128.4 560.168 128.413 559.135 127.992 557.59C127.031 557.203 126.065 556.901 125.066 556.627C124.15 555.353 124.534 556.009 124.398 554.133C125.324 555.016 124.945 554.78 126.097 555.321C126.686 552.639 125.132 554.931 124.931 553.183C124.577 550.096 123.748 544.851 123.544 541.994L124.025 541.834C124.528 541.262 124.367 541.612 124.411 540.745C122.808 539.05 122.597 538.478 121.512 536.426L122.516 541.042C122.032 540.384 121.589 539.717 121.173 539.015L120.861 540.047C118.428 537.881 116.034 514.367 115.666 509.516C115.423 506.317 116.044 504.578 116.734 501.346C114.236 495.555 112.001 482.714 113.585 476.932L112.952 477.684C111.984 478.769 111.752 480.038 111.14 481.39L110.496 481.121L109.526 481.574C109.077 483.156 109.028 483.885 107.864 485.054L107.857 481.537L107.587 482.502C108.088 478.319 107.2 475.264 107.476 471.508C108.388 459.1 106.287 446.684 106.843 434.414L106.534 435.26C107.409 425.784 107.983 422.377 105.622 413.214L106.271 414.226L106.663 414.183C106.751 407.639 109.089 358.689 110.82 356.265C111.839 358.531 110.458 360.657 111.351 362.006L112.049 358.695C112.6 361.362 111.626 362.493 112.527 364.535L112.889 364.474L113.278 364.124C113.847 363.603 114.414 363.133 115.109 362.785L115.755 362.439C113.038 355.3 116.946 353.109 118.344 346.739L117.56 346.847L117.249 346.291L116.545 345.973L116.289 345.285C117.543 344.012 117.337 344.594 117.739 343.073L116.082 342.651L115.82 342.103C116.246 339.968 118.061 328.905 119.105 328.041C120.284 329.318 119.985 329.28 121.478 329.921C122.973 329.269 123.966 327.729 124.365 326.184L122.762 327.28L122.334 326.949C123.808 319.941 125.605 321.474 124.744 313.093C124.232 308.112 126.73 297.954 127.309 292.891L127.8 296.181C128.427 295.317 128.994 293.388 129.39 292.285C128.88 291.843 129.11 292.129 128.785 291.367C133.891 284.288 134.414 283.583 136.455 274.675C136.637 274.18 137.806 268.887 137.853 268.857C141.035 266.816 141.977 259.898 143.71 257.726C149.295 250.727 153.702 243.74 158.559 236.31C160.45 233.417 159.326 229.258 160.6 226.131C164.43 218.737 170.27 209.891 175.336 203.477C178.181 202.36 175.319 203.86 177.924 204.334C179.167 203.406 178.849 203.882 179.414 202.538C178.5 202.385 177.973 202.425 177.051 202.47L177.122 201.805C178.135 201.148 178.436 200.972 179.247 200.12L179.817 199.511C180.289 201.363 179.759 200.773 181.03 201.683L181.918 201.165C181.441 200.531 181.512 200.735 181.531 200.315C181.715 200.141 183.348 197.965 183.349 197.709C182.751 197.29 181.869 197.456 181.188 197.38L180.322 197.295L180.293 197.265C179.65 197.547 178.405 199.503 177.388 198.211C177.61 197.854 179.044 197.434 179.274 196.189C179.414 195.424 181.296 196.967 181.976 196.775C182.641 196.588 183.759 197.318 184.37 196.449C183.93 195.43 181.804 196.473 180.857 195.732L180.97 195.471C182.915 194.496 184.225 196.527 186.36 194.001L186.277 193.675C186.082 193.565 185.667 193.358 185.448 193.248C185.817 192.876 186.358 192.258 186.945 192.14L186.979 192.154C187.739 191.88 188.306 190.968 188.822 190.372C188.099 189.919 187.459 190.658 186.43 190.374L186.369 190.212C186.834 189.717 187.567 189.485 188.162 189.187C189.308 187.082 187.192 182.867 189.671 183.814C189.979 184.239 189.675 184.647 189.698 185.141L189.727 185.167C190.008 185.094 190.098 184.924 190.328 184.667L190.92 184C193.006 171.606 202.03 170.401 203.204 167.045L201.241 166.256L202.685 165.16L202.603 163.842C206.5 161.107 209.691 156.996 213.409 153.808C217.128 150.619 223.919 148.097 225.966 143.933C227.046 141.735 228.309 140.648 229.972 138.813L229.787 139.369C232.014 137.328 234.141 134.502 236.061 132.119L236.642 132.627C237.415 132.35 246.353 121.79 247.374 120.331L248.37 121.06L248.066 121.679C248.89 119.945 254.071 116.202 255.855 114.722C259.392 111.787 262.189 107.906 265.59 105.02C268.505 102.547 273.989 100.59 277.223 98.2555C281.033 95.7862 284.565 93.1041 288.514 90.8389C289.806 90.0977 294.289 89.1113 294.773 88.6242C298.656 84.7179 303.537 82.1929 308.265 79.4642C308.756 79.1805 309.975 79.9887 311.779 78.8626L311.014 78.3529L311.249 77.8536L314.717 76.7404L313.046 76.4741L313.018 75.6149C315.364 72.339 318.673 72.8781 323.033 69.1038L322.978 69.1023L325.206 69.3868L325.58 70.6678C329.119 65.5488 329.962 69.3867 334.653 66.5797C336.364 65.5556 334.37 67.2856 336.636 67.4205C338.376 65.7967 343.818 62.4626 344.274 61.8766C343.367 61.8134 342.166 62.2155 341.22 62.4469L341.139 61.5574L341.794 60.8051C346.151 60.7038 347.362 57.9147 352.455 56.7522C357.634 58.6413 354.215 55.0796 359.38 53.8947L360.894 55.1538C362.753 55.0741 362.355 54.2061 364.511 52.7762L365.264 53.7261L366.261 53.3259C368.444 48.1231 370.914 49.5331 374.94 45.7897C375.809 44.9822 375.397 45.1414 376.44 44.7874L376.913 45.667C378.408 45.4086 382.18 42.7377 382.172 42.7353C387.917 44.644 393.199 39.6144 398.533 37.7498C402.895 36.2248 407.026 36.8928 411.564 35.6131C414.064 34.9081 416.927 32.4536 419.146 32.8531L419.516 33.7648C420.72 32.2647 423.043 30.7497 424.379 32.6209Z"/><path fill="#BFEDEB" d="M190.92 184C193.537 182.196 195.438 176.221 198.812 174.289C200.769 172.67 203.219 170.976 204.632 168.855C205.571 167.445 208.297 166.865 207.238 168.985C205.715 172.033 202.099 173.808 200.369 177.054L200.437 177.067L200.459 177.127C199.935 178.143 194.918 183.689 193.592 185.692L192.592 187.191C191.753 188.417 190.9 189.897 190.094 191.188L189.095 192.687C187.614 194.908 184.027 199.72 181.918 201.165C181.441 200.531 181.512 200.735 181.531 200.315C181.715 200.141 183.348 197.965 183.349 197.709C182.751 197.29 181.869 197.456 181.188 197.38L180.322 197.295L180.293 197.265C179.65 197.547 178.405 199.503 177.388 198.211C177.61 197.854 179.044 197.434 179.274 196.189C179.414 195.424 181.296 196.967 181.976 196.775C182.641 196.588 183.759 197.318 184.37 196.449C183.93 195.43 181.804 196.473 180.857 195.732L180.97 195.471C182.915 194.496 184.225 196.527 186.36 194.001L186.277 193.675C186.082 193.565 185.667 193.358 185.448 193.248C185.817 192.876 186.358 192.258 186.945 192.14L186.979 192.154C187.739 191.88 188.306 190.968 188.822 190.372C188.099 189.919 187.459 190.658 186.43 190.374L186.369 190.212C186.834 189.717 187.567 189.485 188.162 189.187C189.308 187.082 187.192 182.867 189.671 183.814C189.979 184.239 189.675 184.647 189.698 185.141L189.727 185.167C190.008 185.094 190.098 184.924 190.328 184.667L190.92 184Z"/><path fill="#BFEDEB" d="M735.42 88.4183L735.988 88.3434C740.325 87.7156 742.318 91.6395 743.772 92.2042C752.653 95.6533 744.773 95.9827 742.797 93.2304C742.447 93.2275 741.525 93.5121 741.174 93.5896C739.814 93.8245 736.945 91.8525 737.098 91.0653L737.153 91.0314C737.117 90.7614 735.693 88.8533 735.42 88.4183Z"/><path fill="#BFEDEB" d="M903.19 527.785C903.687 527.194 904.929 524.742 905.632 525.24C905.735 525.567 905.703 525.401 905.729 525.74L905.791 525.804C906.114 525.735 906.38 525.645 906.704 525.702C906.92 526.775 905.098 527.368 904.638 528.666L904.757 528.855C905.128 528.723 905.337 528.535 905.69 528.759C905.781 529.451 904.099 531.182 903.642 532.164L903.759 532.353C904.136 532.221 904.34 532.037 904.698 532.263C904.767 532.737 904.143 533.481 903.874 533.745C901.86 535.722 903.836 537.622 902.734 538.971C901.615 540.338 900.519 542.53 899.389 543.658C900.18 539.436 903.36 531.107 903.19 527.785Z"/><path fill="#BFEDEB" d="M918.232 427.218C918.539 428.123 919.925 435.935 919.817 435.859C921.536 437.075 920.347 439.672 919.435 438.949L919.503 438.944C918.921 438.665 919.165 438.728 918.805 438.656C918.702 438.725 918.726 438.737 918.666 438.961C918.754 439.315 918.921 439.456 919.113 439.752C917.205 442.188 919.509 441.903 917.083 443.582C916.655 441.358 918.252 436.329 917.077 433.52C916.637 432.468 916.088 430.001 917.711 429.864C917.894 428.981 918.017 428.096 918.232 427.218Z"/><path fill="#BFEDEB" d="M776.918 726.08C778.273 723.883 785.702 715.91 787.693 715.773C788.517 716.812 785.243 718.556 784.977 718.991C782.531 722.997 780.701 725.363 777.018 728.618C777.181 727.482 777.312 727.149 776.918 726.08Z"/><path fill="#BFEDEB" d="M744.5 755.583C745.863 754.684 749.931 752.303 750.892 751.354C753.326 748.948 754.798 749.755 758.039 749.756C757.566 750.348 756.354 752.244 755.738 752.583C755.211 752.052 755.375 750.888 754.501 750.671C753.611 751.346 751.967 753.872 750.166 754.287C747.524 754.897 746.822 756.799 744.5 755.583Z"/><path fill="#BFEDEB" d="M111.14 481.39C110.828 478.817 108.512 471.68 112.807 470.496C112.921 470.534 113.662 476.377 113.585 476.932L112.952 477.684C111.984 478.769 111.752 480.038 111.14 481.39Z"/><path fill="#BFEDEB" d="M112.889 364.474L113.278 364.124C113.847 363.603 114.414 363.133 115.109 362.785L115.755 362.439C115.214 364.334 113.279 375.378 113.027 375.919L112.811 376.071C111.944 375.471 112.705 372.637 112.842 371.681C113.475 367.281 114.72 368.173 112.889 364.474Z"/><path fill="#BFEDEB" d="M282.374 759.135C283.905 759.264 286.282 761.114 287.019 762.237C286.806 762.514 284.61 762.753 283.982 762.894C281.857 761.778 281.16 761.27 282.374 759.135Z"/><path fill="#BFEDEB" d="M868.901 239.272L869.69 239.688C870.622 240.149 872.049 240.788 871.43 242.017C870.932 243.005 873.012 244.147 873.244 245.011C873.161 245.309 873.231 245.166 873.018 245.431C872.605 245.282 872.946 245.52 872.321 245.118C872.144 245.179 871.761 245.637 871.533 245.824C870.992 244.725 870.585 243.58 870.029 242.486L869.783 241.985C869.107 240.638 869.155 240.763 868.901 239.272Z"/><path fill="#BFEDEB" d="M419.516 33.7648C420.72 32.2647 423.043 30.7497 424.379 32.6209C423.497 33.5082 420.74 33.7638 419.516 33.7648Z"/><path fill="#BFEDEB" d="M900.271 310.344C900.826 310.846 902.536 312.083 901.852 312.956C901.738 314.501 903.079 315.006 901.248 315.571C899.882 313.067 900.253 313.248 900.271 310.344Z"/><path fill="#00C8C8" d="M444.545 810.647C234.254 773.177 93.7639 572.829 130.19 362.354C166.617 151.88 366.266 10.3983 576.919 45.7807C787.571 81.163 930.041 280.109 895.703 490.934C861.366 701.759 663.129 845.214 452.136 811.922C449.602 811.522 447.071 811.097 444.545 810.647Z"/><path fill="#0A0F2E" d="M492.256 52.9445C699.702 41.7451 876.978 200.774 888.289 408.215C899.6 615.655 740.666 793.017 533.232 804.439C325.64 815.871 148.114 656.79 136.794 449.191C125.475 241.593 284.651 64.1525 492.256 52.9445Z"/><path fill="#7EB8C9" d="M449.977 195.505L751.848 195.335C733.844 231.932 712.254 271.382 692.977 307.524L583.814 307.635L548.037 307.64C542.61 307.638 534.543 307.867 529.351 307.551L522.162 307.753C510.615 331.383 497.529 355.516 486.446 379.008C517.082 379.009 550.328 378.422 580.781 379.325C593.148 356.132 614.325 338.889 639.544 331.48C640.436 331.213 641.126 331.015 642.035 330.799C658.888 324.705 686.489 324.954 703.167 331.705C717.274 337.416 708.777 347.496 697.46 347.518C691.357 347.53 686.092 346.019 680.126 345C668.461 343.485 656.937 344.577 645.812 348.081C627.123 355.57 617.556 364.905 608.611 382.71L610.963 382.979C635.361 366.611 664.738 362.682 693.25 368.668C710.439 372.277 756.54 383.503 751.825 407.629C751.306 410.285 749.751 412.625 747.504 414.133C738.463 420.192 712.811 404.633 703.298 400.366C675.615 387.886 643.565 389.821 617.585 405.539C616.375 406.263 615.188 407.023 614.023 407.817C640.18 402.013 667.473 409.899 689.814 424.219C717.442 441.927 740.173 469.334 753.041 499.563C756.513 507.72 762.562 524.392 757.04 532.787C752.061 540.357 740.218 545.51 732.582 538.526C720.947 528.49 718.093 511.182 711.351 497.986C692.976 460.607 657.143 434.536 614.316 438.873C607.02 439.612 594.795 441.788 588.032 444.512C597.815 446.344 607.041 448.836 615.944 453.502C659.214 476.182 686.987 530.862 679.59 579.069C677.983 589.542 672.176 600.063 668.316 609.84C662.02 624.847 658.109 641.651 657.616 657.919C657.283 668.902 658.655 677.017 655.301 687.769C646.704 715.327 619.936 715.314 606.349 691.273C595.716 672.459 595.738 653.131 600.636 632.473C604.603 616.363 612.009 606.949 619.295 592.874C631.672 568.965 630.736 540.69 617.107 517.32C605.358 497.207 586.038 482.64 563.468 476.879C559.035 475.759 554.568 474.775 550.074 473.928C568.442 486.76 582.023 505.264 586.092 527.635C589.123 544.301 586.065 561.745 576.265 575.718C571.81 582.071 565.421 588.079 557.501 589.397C553.285 590.099 548.487 589.488 544.994 586.878C541.362 584.164 539.608 579.941 539.09 575.539C536.793 556.028 556.588 540.075 546.056 513.702C543.922 508.358 540.831 503.325 536.311 499.682C526.366 491.663 512.047 491.441 499.956 493.002C485.591 494.856 471.308 499.624 457.92 505.061C403.324 527.235 358.725 565.118 317.336 606.175C301.998 621.165 287.24 636.737 273.093 652.857L271.771 652.519C276.276 642.193 283.447 628.692 288.514 618.427C299.4 595.879 310.502 573.436 321.817 551.101L361.709 470.35C367.152 459.472 372.416 448.429 378.164 437.717C374.35 439 370.483 440.256 366.618 441.376C341.524 448.651 316.865 457.404 291.908 465.067C313.254 427.809 334.865 390.704 356.739 353.754L379.851 314.541C383.552 308.226 389.274 297.731 393.24 292.005C399.253 280.284 407.711 267.455 414.383 255.768C421.036 244.181 427.763 232.637 434.565 221.136C439.422 212.783 444.533 203.406 449.977 195.505Z"/><path fill="#00C8C8" d="M449.977 195.505L751.848 195.335C733.844 231.932 712.254 271.382 692.977 307.524L583.814 307.635L548.037 307.64C542.61 307.638 534.543 307.867 529.351 307.551C534.005 305.621 558.091 307.608 565.123 306.675L564.556 304.787C545.656 293.289 517.85 285.615 495.699 284.921C486.786 284.641 472.253 286.55 462.621 287.051C455.739 287.409 449.963 287.217 442.687 288.121C430.03 289.694 416.334 289.5 403.622 287.673C402.991 287.582 399.395 285.154 398.758 284.733C396.386 286.327 396.181 290.95 393.24 292.005C399.253 280.284 407.711 267.455 414.383 255.768C421.036 244.181 427.763 232.637 434.565 221.136C439.422 212.783 444.533 203.406 449.977 195.505Z"/><path fill="#00C8C8" d="M642.035 330.799C658.888 324.705 686.489 324.954 703.167 331.705C717.274 337.416 708.777 347.496 697.46 347.518C691.357 347.53 686.092 346.019 680.126 345C668.461 343.485 656.937 344.577 645.812 348.081C648.498 345.066 662.492 343.501 666.619 343.376L667.077 343.366C667.516 340.55 661.67 328.632 658.333 327.712C656.749 328.476 645.403 330.681 642.879 331.274L642.035 330.799Z"/><path fill="#0A0F2E" d="M608.611 382.71L610.963 382.979C610.509 383.357 610.061 383.741 609.62 384.133C609.477 384.262 608.301 385.644 607.864 385.148C607.741 384.609 608.072 384.069 608.279 383.594L608.611 382.71Z"/><path fill="#00C8C8" d="M560.412 303.151C560.503 303.144 560.595 303.137 560.686 303.13C560.788 303.268 560.735 303.16 560.799 303.545C560.716 303.518 560.634 303.491 560.552 303.464C560.435 303.317 560.487 303.414 560.412 303.151Z"/><path fill="#567FB1" d="M271.771 652.519L273.093 652.857C270.223 656.551 269.508 655.522 271.771 652.519Z"/><path fill="#BFEDEB" d="M298.961 87.8129C300.78 89.4858 297.017 90.4997 295.515 91.5299C292.065 93.8964 288.175 95.7882 284.687 98.0903L283.443 98.9204C282.151 99.7784 273.743 106.25 273.35 106.293C272.382 107.453 267.645 112.491 266.749 111.734C265.675 112.512 266.667 113.575 265.257 114.095C265.13 113.989 265.004 113.884 264.877 113.779C264.884 113.777 261.221 119.305 259.846 118.008C260.009 116.702 261.489 116.866 261.819 116.244C261.703 116.02 261.586 115.795 261.47 115.57C261.356 115.59 261.241 115.61 261.127 115.63C260.393 116.196 257.46 118.302 256.624 117.508C256.583 117.329 260.443 113.477 260.963 112.471C261.694 111.057 265.644 108.754 266.191 107.711C267.267 105.663 271.012 103.256 273.378 102.829C273.239 102.856 278.596 99.0554 278.675 99.0635C278.911 99.3125 279.171 99.5924 279.405 99.8457L279.38 99.846C283.524 95.7901 293.577 91.41 298.961 87.8129Z"/><path fill="#4ECDC4" d="M452.136 811.922C451.602 811.979 444.667 812.256 444.978 812.124C440.561 814.008 436.596 812.04 432.025 812.145C431.924 812.148 427.905 811.265 427.701 811.026L427.805 810.839C429.07 810.212 441.545 810.773 444.545 810.647C447.071 811.097 449.602 811.522 452.136 811.922Z"/><path fill="#BFEDEB" d="M210.511 162.806C210.621 162.857 210.731 162.908 210.841 162.959C210.944 163.614 209.216 164.301 209.235 164.892C209.537 165.018 209.9 165.014 210.105 165.287C209.843 165.951 208.274 166.751 207.554 166.835C206.623 166.482 205.666 166.161 204.874 165.547L204.856 165.5L204.781 165.536C204.775 165.456 209.821 163.118 210.511 162.806Z"/><path fill="#BFEDEB" d="M893.716 553.116C895.616 554.386 895.159 554.951 894.55 557.14C893.177 556.909 893.742 555.499 893.732 554.138L893.716 553.116Z"/><path fill="#BFEDEB" d="M296.413 768.986L297.011 768.919C299.508 768.611 299.607 768.98 301.986 770.542C299.487 770.386 298.652 770.159 296.413 768.986Z"/><defs><linearGradient id="gradient_0" gradientUnits="userSpaceOnUse" x1="483.89767" y1="974.09747" x2="487.07324" y2="863.41602"><stop offset="0" stop-color="#08909F"/><stop offset="1" stop-color="#02E9D4"/></linearGradient></defs><path fill="url(#gradient_0)" d="M482.853 862.643C513.94 861.079 540.426 884.976 542.056 916.06C543.686 947.143 519.846 973.679 488.766 975.376C457.592 977.077 430.959 953.149 429.323 921.972C427.688 890.795 451.673 864.212 482.853 862.643Z"/><path fill="#FDFEFE" d="M478.586 877.285C501.523 873.375 523.282 888.812 527.17 911.753C531.058 934.693 515.601 956.438 492.657 960.305C469.743 964.166 448.033 948.734 444.15 925.823C440.267 902.913 455.68 881.189 478.586 877.285Z"/><defs><linearGradient id="gradient_1" gradientUnits="userSpaceOnUse" x1="742.18646" y1="971.11139" x2="730.11426" y2="860.82068"><stop offset="0" stop-color="#0895A2"/><stop offset="1" stop-color="#04EAD5"/></linearGradient></defs><path fill="url(#gradient_1)" d="M720.883 863.746C748.85 864.085 774.024 875.942 781.391 904.771C788.176 931.327 776.515 955.077 752.624 967.475C734.56 975.849 715.19 974.047 695.516 974.025L695.416 863.854L720.883 863.746Z"/><path fill="#FDFEFE" d="M709.834 876.809C725.21 877.143 743.358 876.628 755.061 888.063C772.221 904.832 772.45 930.33 756.339 947.703C742.015 960.816 727.874 959.643 709.955 959.582C709.922 932.241 709.471 904.066 709.834 876.809Z"/><path fill="#00C8C8" d="M579.192 864.013C593.248 863.937 622.187 861.944 633.957 866.857C642.905 870.592 650.543 877.407 654.226 886.489C657.57 894.734 657.489 905.058 653.982 913.233C649.834 922.9 642.189 927.794 632.759 931.544C637.35 939.219 644.188 947.713 649.444 955.092C653.88 961.321 658.147 967.697 662.611 973.852C656.566 973.937 650.521 973.944 644.476 973.874C636.987 961.852 625.485 945.6 617.297 933.799C609.312 933.661 601.324 933.723 593.342 933.984L593.534 973.982L579.406 973.99C578.47 938.273 579.613 900.143 579.192 864.013Z"/><path fill="#FDFEFE" d="M593.483 876.894C611.286 876.944 642.164 872.614 641.58 899.627C641.452 905.534 639.283 909.484 635.222 913.655C624.773 922.351 607.45 919.995 593.613 920.018C593.401 905.776 593.507 891.164 593.483 876.894Z"/><defs><linearGradient id="gradient_2" gradientUnits="userSpaceOnUse" x1="277.74908" y1="972.27496" x2="276.74588" y2="864.18219"><stop offset="0" stop-color="#0891A0"/><stop offset="1" stop-color="#04E5D3"/></linearGradient></defs><path fill="url(#gradient_2)" d="M312.687 863.734C313.175 863.726 312.809 863.703 313.68 864.207C314.176 867.294 313.902 873.736 313.857 877.109C294.274 877.097 274.896 877.542 255.292 877.452L255.49 915.549L307.906 915.549L307.852 929.415C293.874 928.695 279.641 929.294 265.633 929.022C262.524 928.961 259.282 928.972 256.189 929.218C255.257 930.437 255.586 930.486 255.537 932.375L255.354 973.945L241.073 973.956C240.649 937.459 241.293 900.565 241.054 863.981C264.751 863.945 289.045 864.147 312.687 863.734Z"/><defs><linearGradient id="gradient_3" gradientUnits="userSpaceOnUse" x1="353.08139" y1="974.29327" x2="391.08093" y2="864.35516"><stop offset="0" stop-color="#078F9E"/><stop offset="1" stop-color="#05ECD7"/></linearGradient></defs><path fill="url(#gradient_3)" d="M379.037 863.938L393.619 863.896C393.203 882.069 393.783 900.405 393.56 918.582C393.461 926.68 394.243 936.701 393.21 944.574C389.585 972.228 359.958 982.141 337.202 968.765C332.279 964.849 331.086 963.672 327.719 958.39C331.386 955.606 335.031 952.793 338.653 949.951C347.368 962.232 361.911 964.55 373.564 954.271C381.635 947.151 379.359 925.44 379.294 914.766L379.037 863.938Z"/><path fill="#BFEDEB" d="M917.728 415.876C918.843 414.929 919.939 413.264 919.941 411.764L919.85 411.629C919.577 411.668 919.433 411.918 919.147 411.897C918.834 411.198 919.894 409.677 920.244 408.966C920.596 408.843 920.394 408.878 920.859 408.919C921.617 409.742 920.638 410.455 920.841 411.356L921.095 411.397C923.869 408.842 920.567 414.597 921.245 415.743C921.586 416.319 920.692 420.149 921.671 421.04C922.091 421.423 921.865 425.175 921.235 425.374C920.664 424.844 921.22 422.546 920.87 421.629L920.783 421.569C920.75 422.464 919.952 429.92 919.996 429.878C919.729 429.948 919.846 429.97 919.641 429.863C919.721 430.003 917.999 423.841 917.83 423.373C917.674 420.987 917.766 418.312 917.728 415.876Z"/><path fill="#BFEDEB" d="M772.008 730.551C772.816 730.025 774.997 728.555 775.674 727.908L776.36 727.273L776.306 728.231C776.225 729.858 775.324 733.118 775.854 733.502C777.279 734.536 774.662 737.01 773.269 737.517C772.758 737.352 772.369 736.788 772.539 736.259C774.377 734.638 773.095 732.967 772.008 730.551Z"/><path fill="#BFEDEB" d="M161.165 632.082C159.196 633.544 159.73 631.165 158.606 631.249C158.49 631.495 158.434 631.738 158.374 632.011L158.233 632.059C157.686 631.816 157.16 631.233 156.871 630.715C156.852 626.81 153.321 626.713 154.526 625.537C154.728 625.648 154.93 625.759 155.132 625.87C157.453 624.21 155.988 627.165 159.551 629.034C160.523 630.408 160.663 630.463 161.165 632.082Z"/></svg>