<?xml version="1.0" encoding="utf-8" ?><svg xmlns="http://www.w3.org/2000/svg" xmlns:xlink="http://www.w3.org/1999/xlink" width="1024" height="1024" viewBox="0 0 1024 1024"><defs><clipPath id="c"><rect width="1024" height="1024" rx="202" ry="202"/></clipPath></defs><g clip-path="url(#c)"><path fill="#2C1558" d="M425.085 216.744C400.687 209.65 401.875 182.911 407.791 163.448C415.982 136.504 435.465 112.943 459.966 99.5701C485.094 86.1072 514.481 82.9708 541.885 90.8271C569.561 99.0064 593.347 116.814 607.552 142.313C615.522 156.619 623.765 180.534 618.877 196.851C616.568 204.519 611.286 210.945 604.208 214.692C602.585 215.539 600.895 216.309 599.154 216.874C605.852 238.644 611.577 260.549 617.56 282.521L638.497 358.587L654.039 416.158L659.761 436.905C660.467 439.429 661.969 443.776 662.419 446.02C646.466 441.629 640.178 433.715 626.238 426.539C605.579 415.904 581.153 417.039 561.569 429.471C551.147 436.088 546.046 441.194 533.474 445.387C514.955 451.43 494.744 449.359 477.836 439.687C470.111 435.207 464.067 430.307 455.889 426.219C436.519 415.882 410.824 417.194 392.256 428.865C379.968 436.59 376.224 440.516 362.044 445.274C362.768 443.646 365.922 430.127 366.605 427.501C370.036 414.519 373.579 401.567 377.236 388.646C388.74 347.936 400.022 307.163 411.083 266.33C415.593 249.954 420.787 233.013 425.085 216.744Z"/><path fill="#9B6DD4" d="M425.085 216.744C400.687 209.65 401.875 182.911 407.791 163.448C415.982 136.504 435.465 112.943 459.966 99.5701C485.094 86.1072 514.481 82.9708 541.885 90.8271C569.561 99.0064 593.347 116.814 607.552 142.313C615.522 156.619 623.765 180.534 618.877 196.851C616.568 204.519 611.286 210.945 604.208 214.692C602.585 215.539 600.895 216.309 599.154 216.874C592.49 218.569 586.979 218.067 580.128 217.949C586.126 228.007 591.612 235.061 590.884 247.359C590.11 260.441 582.441 267.818 573.197 276.037C568.229 280.455 564.024 284.806 563.774 291.887C563.408 302.28 574.01 309.441 580.205 316.488C587.218 324.466 591.355 333.245 590.539 344.037C589.021 364.099 575.341 366.273 568.971 379.705C566.252 385.438 567.224 397.516 562.862 401.013C560.799 402.667 558.106 403.642 555.451 403.201C553.524 402.881 551.84 401.901 550.704 400.301C548.316 396.939 547.979 392.422 548.327 388.441C550.338 365.456 571.43 356.874 573.004 344.445C574.838 329.958 559.785 322.051 552.452 311.826C548.453 306.25 546.37 300.161 546.284 293.28C545.961 267.433 571.361 262.672 573.456 247.558C574.892 237.199 564.035 225.702 558.344 217.75C546.362 218.041 534.376 218.121 522.391 217.991C534.865 236.517 539.799 252.844 521.188 270.397C515.188 276.057 507.037 281.025 505.84 289.804C503.842 304.466 519.38 310.188 526.248 320.653C536.333 334.708 535.654 349.33 525.196 362.973C520.014 369.343 514.407 374.449 510.69 381.939C507.444 388.479 510.686 397.992 504.234 402.48C501.045 405.276 494.394 403.589 492.702 399.695C487.861 388.56 494.383 372.466 501.794 363.909C506.976 357.926 513.772 350.746 515.305 343.546C518.477 328.644 498.569 320.757 492.493 309.312C485.297 295.879 487.116 281.844 496.593 270.267C502.344 263.243 513.556 256.402 515.437 247.508C515.974 244.994 515.813 242.381 514.97 239.952C513.731 236.387 503.716 222.17 500.867 217.689C489.01 217.823 477.152 217.849 465.294 217.768C471.395 227.02 476.399 234.629 475.84 245.966C475.055 261.87 465.996 268.553 454.788 277.999C450.61 281.52 447.764 286.533 447.569 292.215C447.239 301.824 457.479 309.156 464.29 316.034C477.385 329.258 479.62 346.848 468.609 362.157C464.361 368.065 457.882 372.64 454.665 379.929C451.764 386.503 451.705 390.866 451.504 397.918C449.141 401.309 445.021 405.558 440.368 403.672C433.739 400.986 433.163 392.745 433.904 386.593C435.399 374.177 442.656 364.841 450.821 355.934C453.242 353.277 456.42 349.056 457.607 345.534C461.255 327.815 438.8 321.304 432.899 306.655C430.419 300.499 430.32 298.124 430.276 292.302C430.17 278.326 438.959 268.744 448.666 259.832C452.438 256.369 456.218 253.136 458.039 248.034C461.401 238.615 453.786 232.801 449.054 225.726C447.006 222.664 446.29 221.196 444.758 217.862C436.77 217.747 432.955 218.678 425.085 216.744Z"/><path fill="#FFFEFE" d="M509.661 98.806C517.987 97.6887 525.645 103.527 526.773 111.852C527.9 120.178 522.071 127.843 513.747 128.98C505.409 130.12 497.728 124.278 496.598 115.939C495.469 107.599 501.32 99.9253 509.661 98.806Z"/><path fill="#9B6DD4" d="M662.419 446.02C683.599 453.227 709.421 448.107 727.127 435.347C755.055 415.219 777.733 414.15 808.579 429.435C805.156 439.633 802.423 449.965 799.197 460.321C794.362 475.844 790.627 497.562 774.699 505.599C768.665 508.643 762.784 508.393 756.369 508.566C749.514 508.751 741.162 508.466 734.546 509.598C721.04 511.91 711.325 523.022 707.001 535.554C702.802 547.723 699.361 560.285 695.046 572.52C678.385 575.032 656.992 573.573 643.033 563.659C624.173 550.263 615.163 545.443 591.536 544.959C560.279 544.318 547.934 570.021 518.87 573.192C517.654 573.324 516.435 573.421 515.215 573.485C476.364 575.538 468.269 544.882 431.627 544.971C419.879 545 402.948 547.91 393.358 554.791C370.503 571.19 357.134 575.552 328.725 572.678C323.172 554.759 317.483 528.862 303.715 516.607C281.699 497.012 251.175 523.501 235 491.052C225.497 471.99 222.998 450.205 215.54 430.648L215.322 430.088C236.583 414.691 270.261 416.022 290.764 431.416C310.767 446.433 337.411 454.942 362.044 445.274C376.224 440.516 379.968 436.59 392.256 428.865C410.824 417.194 436.519 415.882 455.889 426.219C464.067 430.307 470.111 435.207 477.836 439.687C494.744 449.359 514.955 451.43 533.474 445.387C546.046 441.194 551.147 436.088 561.569 429.471C581.153 417.039 605.579 415.904 626.238 426.539C640.178 433.715 646.466 441.629 662.419 446.02Z"/><path fill="#2C1558" d="M328.725 572.678C357.134 575.552 370.503 571.19 393.358 554.791C402.948 547.91 419.879 545 431.627 544.971C468.269 544.882 476.364 575.538 515.215 573.485C516.435 573.421 517.654 573.324 518.87 573.192C547.934 570.021 560.279 544.318 591.536 544.959C615.163 545.443 624.173 550.263 643.033 563.659C656.992 573.573 678.385 575.032 695.046 572.52C690.181 586.67 685.239 600.792 680.22 614.888C675.376 628.404 667.637 654.327 652.871 659.689C631.567 667.148 605.684 660.324 583.391 664.054C560.993 667.802 548.659 688.321 526.069 692.211C513.471 694.706 500.416 693.768 488.216 689.541C471.084 683.604 461.735 670.124 443.745 664.969C412.557 656.031 368.664 678.38 352.417 639.355C345.358 622.399 340.929 605.652 334.227 588.649C332.213 583.52 330.789 577.755 328.725 572.678Z"/><path fill="#9B6DD4" d="M474.434 782.344C512.854 778.781 546.881 807.053 550.417 845.475C553.952 883.897 525.655 917.904 487.23 921.412C448.845 924.916 414.88 896.654 411.348 858.271C407.817 819.888 436.054 785.903 474.434 782.344Z"/><path fill="#1A0D3E" d="M478.273 804.199C488.388 802.924 499.68 807.076 507.38 813.742C527.168 830.871 530.155 865.834 512.476 885.464C504.17 894.687 495.567 898.965 483.124 899.723C472.95 900.818 462.252 896.927 454.511 890.469C423.792 864.844 435.949 807.869 478.273 804.199Z"/><path fill="#9B6DD4" d="M687.607 783.996L719.098 784.082C741.66 784.174 766.12 784.183 783.191 800.928C810.38 827.597 808.423 874.091 783.651 900.815C764.052 919.757 745.39 919.604 720.458 919.547L687.783 919.519C687.256 904.862 687.641 887.462 687.634 872.647L687.607 783.996Z"/><path fill="#1A0D3E" d="M722.952 805.745C737.632 805.487 756.154 806.031 765.791 818.841C782.169 840.614 780.885 872.328 759.584 889.936C744.639 900.725 731.045 898.273 713.106 898.043L712.964 805.84L722.952 805.745Z"/><path fill="#9B6DD4" d="M566.196 784.045L605.9 784.014C617.841 784.006 631.431 782.96 643.027 785.93C666.154 791.853 676.056 813.913 669.487 836.1C665.949 848.049 658.645 853.448 648.013 859.111L673.203 919.459L646.845 919.517L645.206 915.86C637.333 899.511 630.803 881.364 623.013 864.595C612.352 864.828 601.688 864.889 591.024 864.778C590.971 883.035 591.04 901.292 591.231 919.548L566.144 919.661L566.196 784.045Z"/><path fill="#1A0D3E" d="M604.145 805.75C615.662 805.633 638.729 802.602 643.85 816.231C648.307 828.093 644.334 838.604 632.465 843.66C625.482 845.017 599.854 844.425 591.404 844.416L591.5 805.873L604.145 805.75Z"/><path fill="#9B6DD4" d="M221.461 783.922L314.115 783.979L313.946 805.217L246.791 805.335C246.425 816.183 246.766 829.128 246.783 840.128C265.246 840.238 283.71 840.201 302.173 840.016L302.234 852.221L302.195 861.435L246.586 861.414C246.539 880.779 246.631 900.143 246.863 919.507L221.45 919.619L221.461 783.922Z"/><path fill="#9B6DD4" d="M369.431 784.134L395.555 784.119L395.545 847.292C395.551 878.275 399.928 919.848 356.781 922.197C343.672 922.91 332.119 920.077 322.261 911.088C311.988 900.777 311.212 888.184 311.003 874.514L335.695 874.506C336.295 886.311 336.677 900.309 352.728 900.594C362.265 900.763 367.558 892.916 368.605 884.188C369.986 872.675 369.553 860.678 369.562 849.011L369.431 784.134Z"/></g></svg>