<?xml version="1.0" encoding="utf-8" ?><svg xmlns="http://www.w3.org/2000/svg" xmlns:xlink="http://www.w3.org/1999/xlink" width="1024" height="1024" viewBox="0 0 1024 1024"><path fill="white" d="M0 0L1024 0L1024 1024L0 1024L0 0Z"/><path fill="#0D1224" d="M249.931 311.786C293.289 209.677 392.1 142.131 502.983 138.803C613.866 135.475 716.55 196.974 765.953 296.299C767.447 299.302 768.888 302.331 770.274 305.385C819.119 412.979 796.288 539.572 712.935 623.324C629.582 707.077 503.1 730.512 395.274 682.182C287.448 633.853 220.779 523.843 227.833 405.892C229.771 373.492 237.245 341.662 249.931 311.786Z"/><defs><linearGradient id="gradient_0" gradientUnits="userSpaceOnUse" x1="498.81015" y1="406.46884" x2="499.77271" y2="137.90599"><stop offset="0" stop-color="#1B4371"/><stop offset="1" stop-color="#CD78C2"/></linearGradient></defs><path fill="url(#gradient_0)" d="M249.931 311.786C293.289 209.677 392.1 142.131 502.983 138.803C613.866 135.475 716.55 196.974 765.953 296.299C767.447 299.302 768.888 302.331 770.274 305.385C767.158 307.304 759.498 315.353 756.402 318.469L724.265 350.929C721.709 353.508 711 364.519 708.775 366.16C692.811 347.365 670.698 328.253 654.087 309.559C653.067 308.954 645.184 300.88 643.918 299.655C632.221 288.333 620.568 274.79 608.366 264.159C604.035 268.112 599.997 272.485 595.946 276.732C585.881 267.98 576.753 257.013 567.002 247.709C553.799 235.112 541.651 221.42 528.275 208.959L455.821 282.399C447.21 291.043 437.833 301.076 429.074 309.307C426.837 309.173 426.065 311.56 424.33 312.919L424.74 312.51C421.231 312.201 418.892 312.153 415.511 311.252C413.456 310.704 410.858 311.03 408.735 311.22C405.356 311.523 401.848 311.687 398.502 312.077C396.428 312.411 394.38 312.74 392.224 313.076C390.036 313.417 387.239 313.863 385.164 314.725C382.11 317.245 382.357 314.968 381.101 316.279L381.996 318.324C364.72 335.493 347.646 352.865 330.778 370.436C326.106 375.278 321.489 380.174 316.928 385.121C314.52 387.736 310.334 392.62 307.787 394.649C297.07 383.853 284.192 371.596 274.045 360.564C268.61 365.788 230.158 405.205 227.833 405.892C229.771 373.492 237.245 341.662 249.931 311.786Z"/><path fill="#6B3FA0" d="M370.649 315.871C371.543 314.737 374.459 315.619 375.604 316.378C372.44 317.273 373.311 317.746 370.649 315.871Z"/><path fill="#6B3FA0" d="M368.381 315.499C369.478 315.154 369.342 315.134 369.876 315.9C368.911 316.229 368.829 316.481 368.381 315.499Z"/><path fill="#6B3FA0" d="M375.604 316.378C375.894 316.208 375.965 316.106 376.23 316.098C376.411 316.258 376.386 316.343 376.482 316.643C375.92 316.632 375.956 316.696 375.604 316.378Z"/><path fill="#6B3FA0" d="M251.002 315C251.566 314.765 251.501 314.77 252.098 314.899C251.487 315.161 251.577 315.188 251.002 315Z"/><path fill="#2E3A6E" d="M528.275 208.959C541.651 221.42 553.799 235.112 567.002 247.709C576.753 257.013 585.881 267.98 595.946 276.732C599.997 272.485 604.035 268.112 608.366 264.159C620.568 274.79 632.221 288.333 643.918 299.655C645.184 300.88 653.067 308.954 654.087 309.559C670.698 328.253 692.811 347.365 708.775 366.16C701.754 374.027 691.162 383.896 683.53 391.608C664.83 410.825 645.979 429.895 626.978 448.814C615.708 460.167 599.982 475.454 589.684 487.175C584.213 466.039 566.964 456.866 559.501 438.466C575.009 433.409 588.839 426.362 601.582 441.023C606.322 434.126 610.241 427.126 611.06 418.63C614.246 385.54 587.434 352.841 560.01 337.731C539.738 326.852 517.257 322.323 494.604 327.052C457.525 334.792 422.686 363.551 414.719 401.563C411.908 414.976 413.804 432.044 423.521 442.413C439.176 429.793 444.952 428.99 464.252 435.019C462.07 445.908 459.245 449.635 452.043 457.976C444.07 467.21 437.252 476.811 433.976 488.697C424.358 479.739 415.339 470.622 406.033 461.337C400.601 466.718 395.097 472.024 389.521 477.255C362.317 450.495 334.766 421.853 307.787 394.649C310.334 392.62 314.52 387.736 316.928 385.121C321.489 380.174 326.106 375.278 330.778 370.436C347.646 352.865 364.72 335.493 381.996 318.324L381.101 316.279C382.357 314.968 382.11 317.245 385.164 314.725C387.239 313.863 390.036 313.417 392.224 313.076C394.38 312.74 396.428 312.411 398.502 312.077C401.848 311.687 405.356 311.523 408.735 311.22C410.858 311.03 413.456 310.704 415.511 311.252C418.892 312.153 421.231 312.201 424.74 312.51L424.33 312.919C426.065 311.56 426.837 309.173 429.074 309.307C437.833 301.076 447.21 291.043 455.821 282.399L528.275 208.959Z"/><path fill="#6B3FA0" d="M424.74 312.51L424.33 312.919C426.065 311.56 426.837 309.173 429.074 309.307C428.473 310.268 425.672 312.865 424.681 313.765C417.462 320.327 410.959 327.626 404.096 334.503C397.635 328.193 391.562 321.757 384.999 315.479L381.996 318.324L381.101 316.279C382.357 314.968 382.11 317.245 385.164 314.725C387.239 313.863 390.036 313.417 392.224 313.076C394.38 312.74 396.428 312.411 398.502 312.077C401.848 311.687 405.356 311.523 408.735 311.22C410.858 311.03 413.456 310.704 415.511 311.252C418.892 312.153 421.231 312.201 424.74 312.51Z"/><path fill="#FF3DA6" d="M423.521 442.413C413.804 432.044 411.908 414.976 414.719 401.563C422.686 363.551 457.525 334.792 494.604 327.052C517.257 322.323 539.738 326.852 560.01 337.731C587.434 352.841 614.246 385.54 611.06 418.63C610.241 427.126 606.322 434.126 601.582 441.023C588.839 426.362 575.009 433.409 559.501 438.466C566.964 456.866 584.213 466.039 589.684 487.175C600.834 529.766 552.752 532.023 562.019 572.315C564.08 581.277 571.267 590.244 576.861 597.452C587.864 611.63 591.677 624.355 584.069 641.289L583.468 639.828C585.67 635.799 586.603 631.009 586.68 626.46C587.071 603.376 563.693 592.129 558.938 571.524C555.523 557.227 560.071 542.788 569.61 531.826C580.857 518.901 589.919 510.051 585.3 491.553C577.433 499.304 566.875 510.048 558.95 517.263C553.797 513.095 549.471 508.2 544.613 504.057C540.948 512.025 534.729 518.443 530.136 525.312C515.17 547.696 522.2 566.196 537.395 585.379C546.97 597.467 548.247 619.31 541.607 632.686C536.054 645.067 526.133 651.536 524.762 666.027C524.09 667.879 524.69 669.056 524.318 670.984L524.709 671.306L524.577 671.843C524.524 672.064 524.503 672.427 524.32 672.594L524.257 672.567C524.412 672.254 524.371 671.933 524.386 671.557C523.887 671.137 523.972 671.381 523.931 670.93L524.369 670.774C524.094 668.165 524.253 665.739 523.937 662.767C527.7 647.628 536.299 642.54 541.248 629.07C546.471 614.854 542.883 597.6 534.335 585.42C530.127 579.425 524.725 573.891 521.66 567.159C514.918 552.354 517.387 535.914 526.392 522.638C531.537 515.053 536.581 509.683 539.697 501.053C537.46 498.587 535.812 497.583 533.08 495.693C524.833 506.46 508.566 517.751 500.734 527.131C506.676 538.945 508.147 550.065 504.316 563.156C501.962 571.199 494.253 579.215 489.399 586.231C479.461 600.684 478.029 619.354 485.647 635.153C492.859 650.079 501.669 652.967 500.956 672.859L499.791 672.565C502.648 659.126 489.394 645.9 483.812 634.968C475.083 617.872 476.995 600.24 487.324 584.372C491.906 577.333 497.716 570.932 500.176 562.775C503.619 551.359 502.16 540.721 496.825 530.271C493.353 532.527 487.476 537.86 483.872 540.721C469.029 524.785 453.888 509.131 438.454 493.767C433.323 527.947 471.985 531.256 466.109 568.01C462.032 593.508 439.397 600.189 437.497 624.679C437.351 625.013 437.5 624.764 436.722 625.578C436.119 624.512 436.335 623.014 436.325 621.617C437.029 602.994 460.389 588.744 462.855 569.707C467.866 531.041 426.175 530.857 433.976 488.697C437.252 476.811 444.07 467.21 452.043 457.976C459.245 449.635 462.07 445.908 464.252 435.019C444.952 428.99 439.176 429.793 423.521 442.413Z"/><path fill="#2E3A6E" d="M499.434 442.032C508.601 442.934 516.068 442.812 525.126 442.439C527.104 450.923 530.877 454.65 535.244 461.873C542.906 474.545 543.097 487.104 539.697 501.053C537.46 498.587 535.812 497.583 533.08 495.693C524.833 506.46 508.566 517.751 500.734 527.131C496.817 520.982 491.176 513.681 487.953 507.303C480.829 492.881 481.193 475.889 488.93 461.786C493.574 453.183 496.118 452.374 499.434 442.032Z"/><path fill="#2E3A6E" d="M471.248 437.158C478.637 439.191 484.906 439.825 492.287 441.288C484.672 459.832 476.21 462.988 476.232 485.264C476.255 508.972 486.418 513.252 496.825 530.271C493.353 532.527 487.476 537.86 483.872 540.721C469.029 524.785 453.888 509.131 438.454 493.767C441.755 480.826 448.841 470.677 458.068 461.2C466.625 452.411 468.842 449.264 471.248 437.158Z"/><path fill="#2E3A6E" d="M532.345 442.247C539.129 441.827 545.335 440.8 552.007 439.694C556.54 449.848 559.658 454.611 567.478 462.764C575.749 471.387 581.526 480.184 585.3 491.553C577.433 499.304 566.875 510.048 558.95 517.263C553.797 513.095 549.471 508.2 544.613 504.057C545.168 502.6 545.665 501.122 546.105 499.627C552.976 475.589 543.327 461.778 532.345 442.247Z"/><path fill="#933269" d="M456.83 679.941C459.864 660.702 442.731 651.965 437.188 635.468C436.029 632.017 434.89 624.99 436.325 621.617C436.335 623.014 436.119 624.512 436.722 625.578C437.5 624.764 437.351 625.013 437.497 624.679C437.592 627.384 437.657 631.051 438.366 633.611C443.778 653.143 460.387 657.247 457.875 680.307L456.83 679.941Z"/><path fill="#602C56" d="M584.069 641.289C582.401 645.989 573.549 655.565 570.438 661.048C565.349 669.248 565.933 676.88 567.724 685.782C568.914 691.695 572.794 693.494 573.933 697.318L573.043 697.757C571.799 693.932 568.353 691.853 566.844 686.091C560.972 663.668 572.935 657.251 582.952 640.688L583.468 639.828L584.069 641.289Z"/><path fill="#602C56" d="M524.762 666.027C525.602 668.572 525.075 672.832 525.767 676.176C527.76 685.799 534.246 692.862 542.572 697.643C543.969 698.445 546.584 699.149 547.745 700.249C545.491 700.303 542.417 698.244 540.483 697.296C528.739 691.545 520.633 675.713 523.937 662.767C524.253 665.739 524.094 668.165 524.369 670.774L523.931 670.93C523.972 671.381 523.887 671.137 524.386 671.557C524.371 671.933 524.412 672.254 524.257 672.567L524.32 672.594C524.503 672.427 524.524 672.064 524.577 671.843L524.709 671.306L524.318 670.984C524.69 669.056 524.09 667.879 524.762 666.027Z"/><path fill="#602C56" d="M500.956 672.859C501.36 685.995 489.484 694.29 480.127 700.576C479.223 700.514 477.913 701.479 477.373 701.072C476.831 700.661 479.75 699.695 480.014 699.504C481.158 698.678 482.473 698.023 483.655 697.262C484.44 696.716 485.351 695.846 486.227 695.374C487.962 694.128 490.2 692.145 491.604 690.597C495.263 686.54 497.9 681.628 499.038 676.27C499.313 674.973 499.4 673.812 499.791 672.565L500.956 672.859Z"/><path fill="#1A1E3C" d="M457.875 680.307C456.916 687.165 454.632 692.289 449.461 696.476C449.188 696.698 448.888 696.759 448.574 696.694C448.316 696.247 448.342 696.393 448.346 696.188C449.566 695.058 450.793 694.699 451.868 692.991C453.928 689.718 455.839 685.855 456.375 681.993C456.533 680.856 456.298 681.032 456.83 679.941L457.875 680.307Z"/><path fill="#0D1224" d="M482.014 780.47C509.787 776.549 535.454 795.954 539.253 823.744C543.052 851.534 523.533 877.116 495.727 880.792C468.094 884.445 442.705 865.074 438.93 837.457C435.155 809.84 454.414 784.366 482.014 780.47Z"/><path fill="white" d="M482.264 798.792C499.905 795.047 517.22 806.39 520.833 824.059C524.446 841.728 512.974 858.957 495.279 862.438C477.77 865.883 460.761 854.557 457.186 837.074C453.61 819.591 464.808 802.498 482.264 798.792Z"/><path fill="#0D1224" d="M660.216 780.966C682.35 781.139 706.67 777.052 724.328 793.029C746.539 813.125 745.879 843.971 726.89 865.884C709.011 883.807 683.944 880.004 660.251 880.13C660.004 847.076 659.992 814.02 660.216 780.966Z"/><path fill="white" d="M678.553 799.075C691.837 798.728 701.935 797.799 712.815 807.21C718.933 812.501 722.469 820.85 722.721 828.867C723.038 838.922 720.282 845.955 713.64 853.286C703.507 862.813 691.499 862.469 678.46 861.466L678.553 799.075Z"/><path fill="#0D1224" d="M561.985 780.923C567.623 780.907 573.432 780.923 579.054 780.82C598.958 780.454 618.002 778.21 629.818 797.877C634.488 805.629 635.835 814.936 633.554 823.693C630.997 833.704 624.852 840.519 616.151 845.647C622.213 857.143 628.996 868.744 635.381 880.07C631.107 880.192 626.642 880.16 622.351 880.195L614.499 880.197C609.002 869.713 603.31 859.332 597.428 849.059L580.613 849.026L580.553 880.136L562.491 880.196L561.985 780.923Z"/><path fill="white" d="M580.521 799.425C588.861 799.153 605.422 797.597 612.046 802.907C619.822 809.141 619.052 818.348 613.046 825.733C610.547 827.6 607.478 829.768 604.252 830.017C596.685 830.603 588.157 830.359 580.508 830.404L580.521 799.425Z"/><path fill="#0D1224" d="M281.832 780.992C305.081 780.828 328.331 780.831 351.581 781.001C351.693 786.937 351.648 793.05 351.677 799.002L299.962 798.994L299.963 824.124C310.439 824.078 330.374 823.411 340.11 824.232C341.218 825.396 340.841 825.211 340.89 827.375L340.962 840.204C327.702 840.602 313.536 840.436 300.231 840.482C299.993 853.449 300.134 866.896 300.08 879.912C294.103 880.056 287.839 880.002 281.837 880.041L281.832 780.992Z"/><path fill="#0D1224" d="M395.827 781.059L414.424 780.999L414.2 824.774C414.194 836.758 415.525 852.93 410.139 863.686C406.4 871.134 399.848 876.785 391.932 879.39C381.61 882.77 371.122 881.377 361.56 876.553C355.969 872.657 353.474 869.434 349.92 863.711C354.582 859.686 359.216 855.63 363.823 851.542C370.774 867.449 392.454 866.498 395.363 850.195C396.572 843.421 395.781 831.051 395.739 823.838L395.827 781.059Z"/></svg>