<?xml version="1.0" encoding="utf-8" ?><svg xmlns="http://www.w3.org/2000/svg" xmlns:xlink="http://www.w3.org/1999/xlink" width="1024" height="1024" viewBox="0 0 1024 1024"><path fill="#0A0F2E" d="M784.668 581.297C781.618 589.249 771.525 603.301 766.308 610.292C744.828 639.076 719.707 664.494 690.293 685.284C615.997 738.411 523.637 759.842 433.538 744.861C341.381 729.284 259.287 677.485 205.554 601.011C152.794 526.613 132.097 434.155 148.103 344.363C163.956 252.255 215.65 170.176 291.873 116.09C366.299 63.3964 458.634 42.4832 548.501 57.9651C632.655 72.9217 708.459 118.072 761.69 184.944C767.715 192.454 772.462 199.535 777.934 207.376C772.756 208.989 766.101 204.674 761.334 204.291L760.701 204.388C762.367 205.027 763.731 205.483 765.439 206.003C761.576 212.722 758.527 217.916 755.179 224.853C753.864 224.124 752.13 222.964 750.726 222.885L750.013 223.241C755.449 226.041 760.509 228.738 766.303 230.825C769.212 231.873 775.993 232.386 778.067 233.53C782.569 233.608 787.451 233.892 791.856 233.236C803.291 251.239 813.62 277.824 820.352 298.033C817.347 299.006 808.751 295.521 806.022 293.9C793.628 288.206 785.589 281.112 774.714 276.221C775.526 278.035 777.644 278.336 776.705 279.359C773.346 283.02 766.737 299.153 763.367 300.647C762.458 300.476 761.811 300.282 760.885 300.356C778.664 311.98 792.682 324.617 815.522 327.8C819.501 328.396 824.556 329.35 828.441 329.576C835.764 362.697 836.754 388.658 835.949 421.971L837.449 422.757C837.705 422.761 837.961 422.766 838.218 422.77C872.864 428.538 899.936 421.47 926.447 397.288C927.697 396.146 928.916 394.969 930.103 393.76C927.405 399.857 923.811 405.17 919.961 410.52C908.435 426.537 898.896 435.17 880.336 442.264C872.121 445.454 863.466 447.372 854.671 447.951C851.744 448.17 833.684 447.439 832.634 447.926C832.116 459.236 828.276 473.982 825.596 485.061C824.331 490.293 822.45 495.746 821.536 501.032C842.744 509.67 851.912 516.196 875.847 512.662C884.048 511.466 892.071 509.267 899.735 506.114C908.211 502.542 914.408 498.398 921.016 491.972C912.362 506.405 903.786 516.201 890.194 526.015C865.965 543.508 838.688 536.3 812.815 525.175C807.391 536.045 802.627 548.929 796.975 560.342C799.5 561.882 803.018 563.332 805.099 564.727C809.552 565.68 815.074 569.059 820.031 570.228C836.732 574.17 854.165 573.956 869.461 565.526C874.059 562.99 878.365 559.957 882.302 556.482C869.134 574.141 851.822 584.204 829.845 588.411C821.368 590.034 797.466 588.019 790.622 583.673C787.976 582.864 787.084 582.595 784.668 581.297Z"/><defs><linearGradient id="gradient_0" gradientUnits="userSpaceOnUse" x1="490.1954" y1="554.5769" x2="543.54907" y2="340.47437"><stop offset="0" stop-color="#B0ACD5"/><stop offset="1" stop-color="#4EC7D5"/></linearGradient></defs><path fill="url(#gradient_0)" d="M579.199 302.531C585.629 306.946 592.462 310.746 599.606 313.88C623.052 324.412 648.695 326.519 672.721 317.486C676.705 315.818 685.766 313.196 688.927 310.592C715.541 288.664 728.471 285.671 760.885 300.356C778.664 311.98 792.682 324.617 815.522 327.8C819.501 328.396 824.556 329.35 828.441 329.576C835.764 362.697 836.754 388.658 835.949 421.971L837.449 422.757C837.705 422.761 837.961 422.766 838.218 422.77C872.864 428.538 899.936 421.47 926.447 397.288C927.697 396.146 928.916 394.969 930.103 393.76C927.405 399.857 923.811 405.17 919.961 410.52C908.435 426.537 898.896 435.17 880.336 442.264C872.121 445.454 863.466 447.372 854.671 447.951C851.744 448.17 833.684 447.439 832.634 447.926L832.637 446.761C827.582 445.772 826.143 445.458 821.337 443.632C812.875 442.016 797.028 431.433 789.257 427.227C784.101 424.437 778.232 422.506 772.676 420.584C740.955 411.719 717.055 428.182 695.618 449.908C690.945 454.643 685.24 459.718 679.729 463.387C653.088 481.137 619.042 483.457 590.24 469.485C575.314 462.31 564.75 451.596 547.338 449.235C537.952 447.962 529.463 448.114 520.067 448.078C490.916 447.966 461.757 446.726 432.618 446.566C426.311 453.087 414.992 467.695 409.078 475.196C395.58 492.208 382.346 509.429 369.381 526.851C367.314 521.152 365.463 511.22 364.076 505.096L355.107 465.125C362.969 452.471 370.425 437.794 378.138 424.665C351.686 439.141 323.989 454.853 297.448 468.744C303.454 445.896 309.315 423.009 315.029 400.086C319.737 380.763 324.622 359.652 330.052 340.586C330.688 339.797 331.951 337.721 333.076 337.842C343.101 338.926 353.085 341.206 363.159 341.817C375.791 342.584 388.219 344.65 400.686 346.693C402.412 346.975 408.032 349.925 409.495 351.128C419.168 335.438 428.054 318.422 437.176 302.357C484.517 302.072 531.859 302.13 579.199 302.531Z"/><path fill="#0A0F2E" d="M579.199 302.531C585.629 306.946 592.462 310.746 599.606 313.88C623.052 324.412 648.695 326.519 672.721 317.486C676.705 315.818 685.766 313.196 688.927 310.592C715.541 288.664 728.471 285.671 760.885 300.356C778.664 311.98 792.682 324.617 815.522 327.8C819.501 328.396 824.556 329.35 828.441 329.576C835.764 362.697 836.754 388.658 835.949 421.971C832.814 421.04 827.333 419.273 824.487 417.917C815.081 414.049 803.503 403.222 792.502 399.231C787.391 396.143 779.66 393.796 774.015 392.189C741.293 382.876 714.025 394.486 689.584 416.214C682.543 422.474 673.159 431.496 665.06 435.991C647.383 446.325 619.117 447.391 600.876 437.331C584.104 428.08 571.709 419.48 552.278 414.086C555.072 407.044 558.484 397.97 560.579 390.787C575.615 400.741 585.637 408.231 604.577 409.863C629.155 411.98 655.609 401.692 674.379 386.152C672.739 386.528 671.483 387.276 669.98 388.032C665.29 385.203 654.769 374.117 653.185 368.158C654.166 365.878 656.721 366.176 658.125 363.279C650.891 367.445 644.97 370.606 636.78 372.337C618.258 376.252 596.907 376.191 581.206 364.225C578.376 362.068 575.198 359.973 572.185 358.075L405.765 357.495L409.495 351.128C419.168 335.438 428.054 318.422 437.176 302.357C484.517 302.072 531.859 302.13 579.199 302.531Z"/><path fill="#4ECDC4" d="M658.125 363.279C664.742 358.598 670.311 353.724 676.459 348.445C678.716 346.508 684.2 344.125 686.893 342.667C720.822 324.31 757.765 341.266 785.985 362.026C790.663 365.468 795.651 368.647 800.053 372.647L798.278 373.546C790.429 370.501 778.342 365.445 770.735 363.193C751.84 357.597 727.281 355.479 709.028 364.426C700.504 368.604 692.955 372.581 685.071 378.087C682.439 379.924 676.317 385.03 674.379 386.152C672.739 386.528 671.483 387.276 669.98 388.032C665.29 385.203 654.769 374.117 653.185 368.158C654.166 365.878 656.721 366.176 658.125 363.279Z"/><path fill="#4ECDC4" d="M815.522 327.8C819.501 328.396 824.556 329.35 828.441 329.576C835.764 362.697 836.754 388.658 835.949 421.971C832.814 421.04 827.333 419.273 824.487 417.917C824.562 383.229 823.289 361.636 815.522 327.8Z"/><path fill="#00C8C8" d="M800.053 372.647C801.793 373.637 804.181 375.883 805.715 377.224C802.969 375.963 800.955 374.978 798.278 373.546L800.053 372.647Z"/><path fill="#7EB8C9" d="M772.676 420.584C768.767 416.308 754.005 417.111 748.516 417.63C745.543 417.91 741.609 419.064 738.349 419.448C737.347 416.013 724.722 397.558 720.645 397.274L720.33 396.712C724.638 393.787 729.381 393.615 733.877 392.347C750.102 387.771 764.175 389.891 780.043 394.824C783.236 395.818 789.273 399.413 792.502 399.231C803.503 403.222 815.081 414.049 824.487 417.917C827.333 419.273 832.814 421.04 835.949 421.971L837.449 422.757C837.705 422.761 837.961 422.766 838.218 422.77C872.864 428.538 899.936 421.47 926.447 397.288C927.697 396.146 928.916 394.969 930.103 393.76C927.405 399.857 923.811 405.17 919.961 410.52C908.435 426.537 898.896 435.17 880.336 442.264C872.121 445.454 863.466 447.372 854.671 447.951C851.744 448.17 833.684 447.439 832.634 447.926L832.637 446.761C827.582 445.772 826.143 445.458 821.337 443.632C812.875 442.016 797.028 431.433 789.257 427.227C784.101 424.437 778.232 422.506 772.676 420.584Z"/><path fill="#97BDD9" d="M930.103 393.76C927.405 399.857 923.811 405.17 919.961 410.52C908.435 426.537 898.896 435.17 880.336 442.264C872.121 445.454 863.466 447.372 854.671 447.951C851.744 448.17 833.684 447.439 832.634 447.926L832.637 446.761L832.668 446.615L832.371 445.915L832.73 445.656C834.362 447.148 834.503 447.126 836.59 447.035C841.542 446.775 845.994 447.238 851.015 447.137C871.366 446.728 896.045 438.026 909.293 421.969C910.578 420.412 912.847 419.041 913.457 417.235C912.39 418.009 912.275 418.134 911.116 418.734C911.407 416.5 911.437 414.69 910.497 412.667C909.529 412.121 908.8 411.841 907.767 412.504C888.257 425.045 860.024 428.578 837.724 423.068C837.632 422.964 837.541 422.86 837.449 422.757C837.705 422.761 837.961 422.766 838.218 422.77C872.864 428.538 899.936 421.47 926.447 397.288C927.697 396.146 928.916 394.969 930.103 393.76Z"/><path fill="#4ECDC4" d="M601.465 223.298C603.862 224.055 605.858 224.465 608.24 224.881C636.942 229.893 647.575 219.372 669.301 203.54C689.064 189.383 718.042 185.014 741.015 193.16C744.715 194.473 756.511 201.141 758.438 201.337L761.334 204.291L760.701 204.388C762.367 205.027 763.731 205.483 765.439 206.003C761.576 212.722 758.527 217.916 755.179 224.853C753.864 224.124 752.13 222.964 750.726 222.885L750.013 223.241C755.449 226.041 760.509 228.738 766.303 230.825C769.212 231.873 775.993 232.386 778.067 233.53C782.569 233.608 787.451 233.892 791.856 233.236C803.291 251.239 813.62 277.824 820.352 298.033C817.347 299.006 808.751 295.521 806.022 293.9C793.628 288.206 785.589 281.112 774.714 276.221C775.526 278.035 777.644 278.336 776.705 279.359C773.346 283.02 766.737 299.153 763.367 300.647C762.458 300.476 761.811 300.282 760.885 300.356C728.471 285.671 715.541 288.664 688.927 310.592C685.766 313.196 676.705 315.818 672.721 317.486C648.695 326.519 623.052 324.412 599.606 313.88C592.462 310.746 585.629 306.946 579.199 302.531C531.859 302.13 484.517 302.072 437.176 302.357C428.054 318.422 419.168 335.438 409.495 351.128C408.032 349.925 402.412 346.975 400.686 346.693C388.219 344.65 375.791 342.584 363.159 341.817C353.085 341.206 343.101 338.926 333.076 337.842C331.951 337.721 330.688 339.797 330.052 340.586L363.385 211.638C392.855 212.551 425.433 211.954 455.029 211.96C505.031 212.129 555.033 212.029 605.033 211.661C603.762 215.432 602.617 219.47 601.465 223.298Z"/><path fill="#0A0F2E" d="M595.025 252.338C605.692 256.24 618.337 256.892 629.545 255.721C672.769 251.205 670.066 233.534 702.946 220.453C719.448 213.888 734.051 216.373 750.013 223.241C755.449 226.041 760.509 228.738 766.303 230.825C769.212 231.873 775.993 232.386 778.067 233.53C782.569 233.608 787.451 233.892 791.856 233.236C803.291 251.239 813.62 277.824 820.352 298.033C817.347 299.006 808.751 295.521 806.022 293.9C793.628 288.206 785.589 281.112 774.714 276.221C774.139 275.572 769.511 273.04 768.506 272.55C740.684 258.993 719.673 255.01 692.071 272.146C681.845 278.495 673.864 284.696 662.406 288.127C631.787 297.296 614.231 286.857 588.603 273.385C590.654 266.342 592.795 259.326 595.025 252.338Z"/><path fill="#4ECDC4" d="M778.067 233.53C782.569 233.608 787.451 233.892 791.856 233.236C803.291 251.239 813.62 277.824 820.352 298.033C817.347 299.006 808.751 295.521 806.022 293.9C805.563 291.745 802.997 285.783 802.165 283.429C795.908 265.714 787.472 249.811 778.067 233.53Z"/><path fill="#4ECDC4" d="M784.668 581.297C781.618 589.249 771.525 603.301 766.308 610.292C744.828 639.076 719.707 664.494 690.293 685.284C615.997 738.411 523.637 759.842 433.538 744.861C341.381 729.284 259.287 677.485 205.554 601.011C152.794 526.613 132.097 434.155 148.103 344.363C163.956 252.255 215.65 170.176 291.873 116.09C366.299 63.3964 458.634 42.4832 548.501 57.9651C632.655 72.9217 708.459 118.072 761.69 184.944C767.715 192.454 772.462 199.535 777.934 207.376C772.756 208.989 766.101 204.674 761.334 204.291L758.438 201.337C705.276 129.953 626.157 82.3589 538.184 68.8446C451.709 56.3795 363.802 78.4322 293.451 130.239C219.384 185.215 170.628 267.746 158.218 359.147C146.306 444.755 168.751 531.599 220.651 600.715C274.471 673.191 355.004 721.174 444.362 734.006C532.117 745.929 621.013 722.479 691.469 668.82C722.937 645.201 754.083 609.767 774.354 576.04C776.151 576.761 782.908 580.149 784.668 581.297Z"/><path fill="#7EB8C9" d="M570.56 564.468C599.339 581.858 635.386 583.999 664.633 566.314C669.939 562.935 674.749 558.705 679.687 554.814C713.073 528.508 752.024 531.362 786.654 553.476C789.594 555.94 793.886 557.976 796.975 560.342C799.5 561.882 803.018 563.332 805.099 564.727C809.552 565.68 815.074 569.059 820.031 570.228C836.732 574.17 854.165 573.956 869.461 565.526C874.059 562.99 878.365 559.957 882.302 556.482C869.134 574.141 851.822 584.204 829.845 588.411C821.368 590.034 797.466 588.019 790.622 583.673C787.976 582.864 787.084 582.595 784.668 581.297C782.908 580.149 776.151 576.761 774.354 576.04C767.615 571.379 759.153 569.202 751.498 567.299C721.001 559.718 702.433 575.34 679.184 591.738C646.884 614.521 615.777 613.483 578.354 605.262C575.343 591.746 572.743 578.142 570.56 564.468Z"/><path fill="#97BDD9" d="M805.099 564.727C809.552 565.68 815.074 569.059 820.031 570.228C836.732 574.17 854.165 573.956 869.461 565.526C874.059 562.99 878.365 559.957 882.302 556.482C869.134 574.141 851.822 584.204 829.845 588.411C821.368 590.034 797.466 588.019 790.622 583.673L790.856 583.39C793.583 583.229 802.632 586.586 805.985 587.156C832.538 591.673 856.548 581.662 875.689 563.712C871.08 565.276 865.251 569.218 861.17 570.516C846.904 575.052 829.366 574.435 815.219 569.702C812.769 568.882 806.124 566.668 805.099 564.727Z"/><defs><linearGradient id="gradient_1" gradientUnits="userSpaceOnUse" x1="614.18127" y1="550.65979" x2="648.07629" y2="461.33313"><stop offset="0" stop-color="#79AAD3"/><stop offset="1" stop-color="#33C7D6"/></linearGradient></defs><path fill="url(#gradient_1)" d="M689.177 478.763L690.187 479.209L691.996 478.298C695.147 480.573 696.051 484.498 699.814 487.313C705.439 491.521 714.957 492.135 719.731 495.835C719.046 496.322 718.371 496.822 717.706 497.335L717.654 497.801C691.891 508.867 681.856 527.194 656.397 537.096C635.333 545.289 606.95 546.681 585.234 540.321C577.171 537.959 570.562 534.955 562.904 531.583C559.672 522.682 553.843 497.573 552.095 487.885C556.827 489.544 563.666 492.09 568.047 494.478C577.237 499.486 582.818 504.26 593.17 506.958C602.21 509.315 606.715 509.417 615.73 509.734C634.948 510.675 651.65 505.609 667.576 494.847C674.525 490.152 682.036 482.648 689.177 478.763Z"/><path fill="#4ECDC4" d="M689.177 478.763C710.103 465.806 735.312 461.668 759.282 467.256C774.869 470.908 798.066 482.68 810.155 493.771L811.878 495.505C806.329 499.793 798.06 508.551 796.282 515.427C782.637 505.911 773.54 498.195 756.779 494.793C741.546 491.702 732.109 493.155 717.654 497.801L717.706 497.335C718.371 496.822 719.046 496.322 719.731 495.835C714.957 492.135 705.439 491.521 699.814 487.313C696.051 484.498 695.147 480.573 691.996 478.298L690.187 479.209L689.177 478.763Z"/><path fill="#7EB8C9" d="M821.536 501.032C842.744 509.67 851.912 516.196 875.847 512.662C884.048 511.466 892.071 509.267 899.735 506.114C908.211 502.542 914.408 498.398 921.016 491.972C912.362 506.405 903.786 516.201 890.194 526.015C865.965 543.508 838.688 536.3 812.815 525.175C812.514 523.476 804.06 519.353 801.909 519.146C800.045 518.049 798.09 516.651 796.282 515.427C798.06 508.551 806.329 499.793 811.878 495.505C814.466 496.946 819.266 500.04 821.536 501.032Z"/><path fill="#4ECDC4" d="M821.337 443.632C826.143 445.458 827.582 445.772 832.637 446.761L832.634 447.926C832.116 459.236 828.276 473.982 825.596 485.061C824.331 490.293 822.45 495.746 821.536 501.032C819.266 500.04 814.466 496.946 811.878 495.505L810.155 493.771C815.135 479.157 819.05 458.88 821.337 443.632Z"/><path fill="#4ECDC4" d="M801.909 519.146C804.06 519.353 812.514 523.476 812.815 525.175C807.391 536.045 802.627 548.929 796.975 560.342C793.886 557.976 789.594 555.94 786.654 553.476C791.978 542.388 796.653 531.528 801.477 520.234C801.758 519.577 801.715 519.918 801.909 519.146Z"/><path fill="#97BDD9" d="M344.492 490.779C352.448 502.906 358.14 517.056 366.934 529.647C346.621 553.859 326.469 578.206 306.48 602.686C302.958 607.085 299.383 611.442 295.757 615.755C298.418 608.28 301.76 600.525 304.633 593.061L325.034 539.914C330.458 525.866 338.109 503.336 344.492 490.779Z"/><path fill="#4ECDC4" d="M462.183 806.179C504.454 803.259 541.124 835.08 544.189 877.341C547.254 919.602 515.559 956.381 473.309 959.591C430.853 962.816 393.857 930.933 390.777 888.467C387.697 846.001 419.706 809.113 462.183 806.179Z"/><path fill="white" d="M467.355 830.847C496.204 830.88 519.565 854.291 519.537 883.14C519.508 911.989 496.1 935.353 467.251 935.328C438.396 935.303 415.027 911.89 415.056 883.035C415.085 854.181 438.501 830.815 467.355 830.847Z"/><path fill="#4ECDC4" d="M721.8 808.465L758.099 808.37C785.357 808.324 811.072 808.014 832.145 828.421C852.995 848.612 858.827 880.772 850.138 907.943C846.641 918.878 840.296 927.391 832.325 935.461C808.975 957.194 786.595 956.682 757.492 956.585C745.659 956.611 733.827 956.72 721.996 956.915L721.8 808.465Z"/><path fill="white" d="M747.514 832.04C767.985 832.018 795.201 828.126 811.185 843.103C833.712 864.212 833.632 896.593 814.317 919.439C795.152 936.724 772.18 933.213 747.905 933.101C747.124 922.878 747.486 907.943 747.468 897.29L747.514 832.04Z"/><path fill="#4ECDC4" d="M575.2 808.368L609.495 808.384C624.519 808.399 639.887 807.577 654.336 812.05C667.29 816.038 678.101 825.059 684.346 837.088C690.164 848.57 691.201 861.888 687.232 874.132C682.551 888.194 672.516 898.248 659.418 904.823C662.296 911.522 668.732 921.398 672.763 927.712L691.536 956.911L670.988 956.919L660.463 957.022C650.939 942.921 641.542 923.776 633.045 908.61L602.483 908.82C602.238 924.748 602.358 941.047 602.299 957.001L575.466 957.027L575.155 871.25C575.233 850.963 575.804 828.566 575.2 808.368Z"/><path fill="white" d="M625.621 831.759C633.365 831.541 641.143 831.522 648.232 835.036C654.815 838.24 659.793 844.009 661.998 850.991C665.366 861.724 661.93 873.892 653.147 881.045C649.001 884.422 644.597 885.663 639.587 887.085C630.462 888.46 612.791 887.353 602.282 887.837L602.399 831.975L625.621 831.759Z"/><path fill="#4ECDC4" d="M173.665 808.351C207.405 808.893 241.7 807.801 275.319 808.491C275.312 816.255 275.264 824.019 275.174 831.782C250.575 832.532 224.687 831.838 199.849 832.197C199.585 845.749 199.954 860.519 199.921 874.22C220.443 874.26 241.434 874.069 261.92 874.405L261.823 882.013L261.702 896.371C241.355 896.768 220.306 896.57 199.907 896.584C199.412 916.289 199.807 937.192 199.854 957.007L173.807 957.011C173.158 907.624 173.831 857.847 173.665 808.351Z"/><path fill="#4ECDC4" d="M332.115 808.182C341.217 807.993 350.663 808.102 359.792 808.085L359.025 875.682C358.998 889.669 359.323 904.075 358.525 918.046C358.273 922.452 356.954 927.745 355.17 931.789C343.507 958.228 317.508 965.334 291.866 954.329C283.746 950.665 278.446 946.935 271.786 941.145C276.563 935.906 282.402 927.272 286.452 921.416C294.555 928.633 300.849 934.264 312.299 934.318C330.275 934.598 333.765 919.059 333.351 904.438C332.698 881.365 332.266 858.167 332.383 835.064C332.429 826.146 332.425 817.104 332.115 808.182Z"/><path fill="#7EB8C9" d="M841.307 301.016C847.569 301.047 853.247 301.168 859.433 299.966C875.117 296.918 891.814 282.812 903.158 272.174C890.554 295.529 870.356 318.087 844.295 326.485C840.192 327.807 833.617 329.064 829.339 328.889L828.441 329.576C824.556 329.35 819.501 328.396 815.522 327.8C792.682 324.617 778.664 311.98 760.885 300.356C761.811 300.282 762.458 300.476 763.367 300.647C766.737 299.153 773.346 283.02 776.705 279.359C777.644 278.336 775.526 278.035 774.714 276.221C785.589 281.112 793.628 288.206 806.022 293.9C808.751 295.521 817.347 299.006 820.352 298.033C822.195 300.131 837.442 300.742 841.307 301.016Z"/><path fill="#97BDD9" d="M841.307 301.016C847.569 301.047 853.247 301.168 859.433 299.966C875.117 296.918 891.814 282.812 903.158 272.174C890.554 295.529 870.356 318.087 844.295 326.485C840.192 327.807 833.617 329.064 829.339 328.889C829.996 328.393 830.173 328.219 831.025 328.123C840.742 327.022 850.156 324.046 858.657 319.177C862.671 316.877 869.195 313.814 869.495 308.448C869.664 305.442 871.119 302.928 869.409 300.102C869.186 299.733 869.024 299.023 868.424 299.006C864.785 298.868 861.263 300.449 857.714 301.093C852.18 302.098 846.713 303.114 841.307 301.016Z"/><path fill="#7EB8C9" d="M777.934 207.376C782.288 210.364 799.561 210.584 805.279 210.427C826.932 209.832 841.958 200.821 858.928 188.509C843.602 211.334 822.716 226.719 795.518 232.424C794.16 232.708 793.188 232.816 791.856 233.236C787.451 233.892 782.569 233.608 778.067 233.53C775.993 232.386 769.212 231.873 766.303 230.825C760.509 228.738 755.449 226.041 750.013 223.241L750.726 222.885C752.13 222.964 753.864 224.124 755.179 224.853C758.527 217.916 761.576 212.722 765.439 206.003C763.731 205.483 762.367 205.027 760.701 204.388L761.334 204.291C766.101 204.674 772.756 208.989 777.934 207.376Z"/></svg>