<?xml version="1.0" encoding="utf-8" ?><svg xmlns="http://www.w3.org/2000/svg" xmlns:xlink="http://www.w3.org/1999/xlink" width="1024" height="1024" viewBox="0 0 1024 1024"><defs><linearGradient id="gradient_0" gradientUnits="userSpaceOnUse" x1="507.58807" y1="526.48022" x2="532.30951" y2="77.48951"><stop offset="0" stop-color="#1E3D7C"/><stop offset="1" stop-color="#D85EC5"/></linearGradient></defs><path fill="url(#gradient_0)" d="M210.951 302.434C213.616 289.512 225.057 262.893 230.827 251.134C259.72 192.165 306.685 143.96 364.883 113.543C378.721 106.221 391.824 100.099 406.68 95.0357C486.661 66.9055 574.575 71.9594 650.807 109.07C707.051 136.554 753.676 180.393 784.568 234.84C793.718 250.858 800.743 265.278 806.73 282.918C818.502 311.344 826.915 360.761 825.275 391.485C829.246 401.037 836.783 413.385 841.549 423.621C844.725 425.613 855.046 429.679 859.307 431.427C869.738 435.708 880.227 440.357 890.647 444.577L912.001 494.877C917.804 498.135 945.342 513.014 949.108 516.809C952.451 520.177 964.718 544.663 968.612 551L828.011 550.796C817.038 550.71 806.065 550.729 795.092 550.852C789.576 550.901 781.678 551.202 776.454 550.923C766.144 567.899 756.862 581.645 743.901 596.931C701.673 646.225 644.984 680.957 581.888 696.19C578.048 687.403 572.894 686.28 570.328 676.529C573.422 662.177 591.018 661.927 587.794 640.973C584.207 617.665 555.044 618.467 563.284 592.687L563.856 592.844C576.443 596.213 581.752 590.803 592.177 585.309C606.225 577.907 604.526 557.574 601.424 544.577C599.562 536.772 596.191 530.34 592.131 523.566C588.992 520.48 585.331 514.735 581.892 511.247C567.601 496.75 551.817 488.831 532.624 483.285C519.115 480.322 507.844 479.143 494.238 482.521C462.673 490.359 431.843 513.948 423.551 546.519L314 546.561C291.709 546.605 267.622 546.226 245.537 547.005L37.0318 547.52C44.8781 531.514 54.6443 512.386 63.0479 496.595C81.2305 485.221 100.139 473.961 118.065 462.355C127.702 437.327 139.992 409.043 150.4 384.098C166.305 377.027 184.655 367.794 200.402 361.398C201.083 343.732 205.714 319.411 210.951 302.434Z"/><path fill="#0D1224" d="M338.722 201.022C348.815 212.735 358.891 226.715 368.78 239.023C371.489 242.312 379.244 251.129 380.479 254.244C382.866 260.262 385.363 269.384 387.314 275.707C391.34 288.327 395.504 300.903 399.806 313.431C405.8 330.431 415.715 348.998 422.722 365.82C424.8 370.807 433.963 392.313 436.678 395.884C439.436 397.408 443.732 399.938 446.477 401.152C454.11 405.499 506.719 434.89 509.097 438.034C511.965 441.825 514.02 446.58 516.211 450.787C521.811 461.541 526.941 472.593 532.624 483.285C519.115 480.322 507.844 479.143 494.238 482.521C462.673 490.359 431.843 513.948 423.551 546.519L314 546.561C291.709 546.605 267.622 546.226 245.537 547.005L37.0318 547.52C44.8781 531.514 54.6443 512.386 63.0479 496.595C81.2305 485.221 100.139 473.961 118.065 462.355C127.702 437.327 139.992 409.043 150.4 384.098C166.305 377.027 184.655 367.794 200.402 361.398C201.083 343.732 205.714 319.411 210.951 302.434L211.307 302.463C211.777 303.205 209.744 310.776 209.569 313.035L210.016 313.206L210.828 312.19C214.213 311.676 217.488 311.436 220.908 311.568C222.068 311.613 225.251 311.104 226.862 310.965C235.154 310.254 243.028 311.44 250.682 314.732C252.511 315.52 252.175 315.663 252.716 317.34L253.205 317.174C255.68 311.319 256.695 307.77 259.787 301.396L260.75 301.049C265.958 290.934 272.014 276.568 276.293 266.09C283.119 249.374 283.678 250.705 296.302 238.935C310.113 226.06 325.085 213.915 338.722 201.022Z"/><path fill="#6B3FA0" d="M210.951 302.434L211.307 302.463C211.777 303.205 209.744 310.776 209.569 313.035L210.016 313.206L210.828 312.19C214.213 311.676 217.488 311.436 220.908 311.568C222.068 311.613 225.251 311.104 226.862 310.965C235.154 310.254 243.028 311.44 250.682 314.732C252.511 315.52 252.175 315.663 252.716 317.34L253.205 317.174C255.68 311.319 256.695 307.77 259.787 301.396L260.75 301.049C256.809 312.513 248.251 329.547 243.252 341.259C232.793 347.109 212.074 355.842 200.402 361.398C201.083 343.732 205.714 319.411 210.951 302.434Z"/><path fill="#0D1224" d="M779.118 338.536C787.519 345.789 805.272 358.166 811.549 365.757C812.967 367.472 822.771 387.294 825.275 391.485C829.246 401.037 836.783 413.385 841.549 423.621C844.725 425.613 855.046 429.679 859.307 431.427C869.738 435.708 880.227 440.357 890.647 444.577L912.001 494.877C917.804 498.135 945.342 513.014 949.108 516.809C952.451 520.177 964.718 544.663 968.612 551L828.011 550.796C817.038 550.71 806.065 550.729 795.092 550.852C789.576 550.901 781.678 551.202 776.454 550.923C774.023 550.221 768.095 550.506 765.27 550.496C716.244 550.311 667.169 550.981 618.149 550.432C620.931 544.582 624.154 539.021 626.806 533.114C628.49 530.451 634.178 518.327 635.043 517.154C638.244 512.812 658.068 506.018 663.687 503.789C666.35 496.424 672.28 479.065 675.681 472.988C685.116 467.901 708.559 458.333 718.991 454.716C722.028 448.049 725.786 437.101 728.41 430.04C734.032 414.462 739.878 398.966 745.945 383.556C747.468 379.675 750.493 369.1 752.714 366.342C760.497 356.676 770.996 348.159 779.118 338.536Z"/><path fill="#2E3A6E" d="M592.131 523.566L592.643 522.713C591.038 521.548 592.135 522.35 591.473 521.395C580.469 505.504 564.646 494.149 546.819 486.914C542.331 485.093 533.503 483.936 531.832 480.02C528.767 472.836 524.674 465.766 521.25 458.837C521.418 458.776 521.587 458.718 521.753 458.655C525.808 457.107 529.461 454.933 533.928 456.195C538.023 457.352 545.554 454.148 550.443 455.479C554.389 456.553 559.724 456.861 563.792 456.887C570.735 456.931 623.2 453.468 625.63 455.379C627.107 456.54 627.96 456.596 629.772 456.718C635.216 457.085 643.826 459.451 649.09 461.013C654.102 462.5 657.361 464.133 662.747 463.984C663.871 464.688 664.453 465.355 665.551 465.267C672.457 464.716 675.732 469.277 682.396 467.176L683.168 467.577C681.456 472.013 675.832 468.449 672.614 477.325C669.761 485.193 666.576 494.577 663.137 502.262C662.674 503.196 659.802 504.535 658.689 505.086C651.249 508.784 640.25 510.316 634.552 516.423C633.126 517.951 631.054 523.467 630.104 525.566C628.973 528.061 626.763 530.206 626.43 532.666L626.806 533.114C624.154 539.021 620.931 544.582 618.149 550.432C667.169 550.981 716.244 550.311 765.27 550.496C768.095 550.506 774.023 550.221 776.454 550.923C766.144 567.899 756.862 581.645 743.901 596.931C701.673 646.225 644.984 680.957 581.888 696.19C578.048 687.403 572.894 686.28 570.328 676.529C573.422 662.177 591.018 661.927 587.794 640.973C584.207 617.665 555.044 618.467 563.284 592.687L563.856 592.844C576.443 596.213 581.752 590.803 592.177 585.309C606.225 577.907 604.526 557.574 601.424 544.577C599.562 536.772 596.191 530.34 592.131 523.566Z"/><path fill="#2E3A6E" d="M579.712 232.421C586.316 238.89 596.021 248.995 601.124 256.77C602.533 258.916 604.376 266.932 606.154 269.416C610.922 283.839 617.779 302.708 623.79 316.53C630.003 320.566 650.714 328.55 658.177 331.472C664.11 341.653 669.255 354.305 675.176 363.828C703.041 378.076 697.182 373.949 713.531 400.924L534.996 400.766C514.22 400.675 493.444 400.692 472.669 400.818C466.409 400.865 451.989 400.543 446.477 401.152C443.732 399.938 439.436 397.408 436.678 395.884C446.924 377.263 447.263 377.843 466.305 367.163C468.091 366.161 473.103 363.331 474.253 361.794C479.211 355.168 491.207 326.486 495.801 321.974C499.25 318.586 525.884 305.221 532.074 301.888C535.563 294.081 550.498 258.559 554.535 253.973C559.28 248.583 565.927 244.871 570.972 239.722C571.081 239.611 571.187 239.497 571.295 239.384C574.301 237.184 576.904 234.861 579.712 232.421Z"/><path fill="#FC11A3" d="M423.551 546.519C431.843 513.948 462.673 490.359 494.238 482.521C507.844 479.143 519.115 480.322 532.624 483.285C551.817 488.831 567.601 496.75 581.892 511.247C585.331 514.735 588.992 520.48 592.131 523.566C596.191 530.34 599.562 536.772 601.424 544.577C604.526 557.574 606.225 577.907 592.177 585.309C581.752 590.803 576.443 596.213 563.856 592.844L563.284 592.687C555.044 618.467 584.207 617.665 587.794 640.973C591.018 661.927 573.422 662.177 570.328 676.529C572.894 686.28 578.048 687.403 581.888 696.19C581.858 709.416 576.628 720.668 567.985 730.646C570.586 721.631 577.793 705.816 575.845 697.276C565.787 699.937 559.651 700.29 549.924 701.97C553.536 726.291 529.377 722.459 530.981 742.818C531.172 745.239 532.256 748.503 532.404 750.952C532.932 752.502 534.411 757.849 534.171 759.405L533.855 759.559L534.107 759.468L533.621 759.414C532.886 758.694 532.51 757.912 532.225 756.929C530.329 754.187 527.327 747.868 526.434 744.56C520.914 724.109 543.319 725.111 544.994 708.427C545.19 706.465 545.47 703.889 544.198 702.344C527.66 703.92 497.929 705.899 481.459 702.76C480.306 703.89 480.5 704.156 480.389 705.744C480.13 709.434 481.725 716.334 484.905 718.61C502.321 731.076 503.017 737.763 492.989 757.647L491.592 756.047C497.455 731.659 493.893 734.54 478.022 718.004C474.444 714.277 474.422 708.041 475.264 703.03L475.398 702.277L474.64 701.809C464.847 701.041 458.382 699.915 448.741 697.974C448.232 708.234 454.181 720.84 457.376 730.867C449.013 720.511 442.664 710.285 443.741 696.814C434.644 694.363 425.614 691.666 416.661 688.727C358 669.183 306.608 632.378 269.219 583.133C262.108 573.856 250.736 557.48 245.537 547.005C267.622 546.226 291.709 546.605 314 546.561L423.551 546.519Z"/><defs><linearGradient id="gradient_1" gradientUnits="userSpaceOnUse" x1="371.61917" y1="704.08447" x2="350.03036" y2="534.45123"><stop offset="0" stop-color="#031422"/><stop offset="1" stop-color="#073171"/></linearGradient></defs><path fill="url(#gradient_1)" d="M245.537 547.005C267.622 546.226 291.709 546.605 314 546.561L423.551 546.519C421.166 558.158 420.089 569.646 427.248 579.738C434.339 589.735 451.076 594.614 462.681 593.406C470.12 617.354 442.428 617.907 437.519 640.47C432.292 664.493 460.43 663.287 453.058 681.869C451.315 686.261 445.872 689.413 443.741 696.814C434.644 694.363 425.614 691.666 416.661 688.727C358 669.183 306.608 632.378 269.219 583.133C262.108 573.856 250.736 557.48 245.537 547.005Z"/><defs><linearGradient id="gradient_2" gradientUnits="userSpaceOnUse" x1="511.83392" y1="703.04553" x2="512.15338" y2="588.49207"><stop offset="0" stop-color="#051729"/><stop offset="1" stop-color="#052653"/></linearGradient></defs><path fill="url(#gradient_2)" d="M497.263 594.504C501.048 592.539 505.776 589.875 509.578 588.227C515.337 585.733 521.46 591.582 527.037 594.181L527.509 594.396C526.91 595.959 526.46 597.576 526.166 599.224C522.228 620.996 538.852 622.209 546 633.001C547.775 635.679 548.694 638.834 548.634 642.046C548.293 657.233 528.504 660.139 526.54 674.91C524.824 687.819 537.368 693.103 543.772 701.761L544.198 702.344C527.66 703.92 497.929 705.899 481.459 702.76C484.168 693.598 501.47 690.139 498.342 674.054C495.516 659.524 480.669 658.965 476.977 646.51C472.471 631.309 490.944 625.359 496.861 614.959C499.995 609.422 499.076 600.426 497.263 594.504Z"/><defs><linearGradient id="gradient_3" gradientUnits="userSpaceOnUse" x1="565.53864" y1="698.54181" x2="541.75378" y2="590.48492"><stop offset="0" stop-color="#041728"/><stop offset="1" stop-color="#08295D"/></linearGradient></defs><path fill="url(#gradient_3)" d="M533.4 595.048C539.193 592.097 549.374 585.891 556.151 588.643C556.444 588.762 558.114 589.976 558.066 590.163C556.463 596.572 554.68 604.479 558.28 610.661C566.669 625.072 587.338 630.345 581.773 651.246C579.764 658.791 570.446 662.466 566.657 669.443C559.951 681.793 573.246 688.145 575.845 697.276C565.787 699.937 559.651 700.29 549.924 701.97C544.516 691.796 537.796 690.29 533.656 682.935C525.57 666.565 551.247 661.374 553.567 646.883C558.377 616.827 524.074 627.235 533.4 595.048Z"/><path fill="#1A1E3C" d="M467.435 591.047C480.147 583.436 479.148 588.909 491.122 593.939C504.274 625.508 463.258 618.44 472.422 648.952C476.652 663.038 498.426 665.928 491.707 682.473C489.218 688.436 479.411 693.498 476.482 699.993C475.914 701.252 475.62 701.411 474.64 701.809C464.847 701.041 458.382 699.915 448.741 697.974C453.409 687.545 469.792 676.781 453.525 662.886C445.227 655.797 438.769 648.333 444.169 636.612C452.387 620.138 476.229 616.077 467.936 592.415C467.774 591.957 467.607 591.501 467.435 591.047Z"/><path fill="#FF3DA6" d="M532.404 750.952C532.932 752.502 534.411 757.849 534.171 759.405L533.855 759.559L534.107 759.468L533.621 759.414C532.886 758.694 532.51 757.912 532.225 756.929C532.863 755.541 532.462 752.573 532.404 750.952Z"/><path fill="#ffffff" fill-rule="evenodd" d="M454.926 770.222C496.166 766.373 532.741 796.63 536.689 837.861C540.636 879.092 510.467 915.74 469.246 919.786C427.884 923.846 391.085 893.552 387.124 852.181C383.163 810.81 413.545 774.084 454.926 770.222ZM457.075 787.638C488.625 784.924 516.421 808.254 519.217 839.797C522.013 871.34 498.754 899.197 467.218 902.074C435.567 904.962 407.586 881.6 404.78 849.941C401.974 818.282 425.409 790.362 457.075 787.638Z"/><path fill="#ffffff" fill-rule="evenodd" d="M710.483 770.487C726.396 770.297 745.891 769.626 761.46 770.781C799.054 773.57 829.747 801.829 830.521 840.503C831 864.424 825.656 879.436 809.292 897.285C788.536 917.111 768.412 918.532 741.952 918.534L710.482 918.505L710.483 770.487ZM728.477 788.64C752.928 788.54 778.398 785.441 797.098 804.092C819.795 826.731 817.943 862.366 796.512 884.667C774.386 904.048 756.945 900.215 728.421 900.152C727.896 872.361 728.519 844.4 728.224 816.59C728.127 807.363 728.123 797.848 728.477 788.64Z"/><path fill="#ffffff" fill-rule="evenodd" d="M571.286 770.507C588.374 770.69 605.465 770.386 622.554 770.469C626.327 770.488 630.124 770.405 633.875 770.883C638.349 771.431 642.715 772.649 646.826 774.496C658.372 779.555 667.362 789.094 671.73 800.918C678.42 818.818 674.193 840.306 659.35 852.797C653.437 857.773 648.641 859.789 641.47 862.455C643.895 867.329 650.621 876.92 653.907 881.901L678.135 918.508C670.909 918.559 663.682 918.562 656.455 918.517C655.157 916.595 653.885 914.451 652.653 912.471C642.529 896.213 631.914 880.285 621.983 863.907C611.237 863.773 600.095 863.929 589.323 863.954C588.616 881.039 589.059 901.161 589.094 918.49C583.212 918.429 577.33 918.421 571.448 918.467L571.286 770.507ZM589.265 788.608C597.077 788.535 627.74 787.996 633.485 789.271C637.864 790.25 641.955 792.232 645.438 795.061C659.004 806.03 659.011 824.801 648.006 837.799C635.77 849.199 605.701 845.566 589.078 845.48C588.917 826.523 588.979 807.564 589.265 788.608Z"/><path fill="#ffffff" d="M192.22 770.545L286.009 770.56C285.994 776.542 286.024 782.524 286.097 788.506L209.933 788.48L209.932 837.045L271.035 837.06L271.049 843.875L271.107 854.969C250.695 854.751 230.282 854.656 209.869 854.684L209.815 918.566C203.999 918.724 198.012 918.654 192.182 918.656L192.22 770.545Z"/><path fill="#ffffff" d="M334.423 770.596L352.004 770.87L351.978 843.311C351.956 857.991 353.677 886.231 347.976 898.729C343.786 907.839 336.081 914.861 326.622 918.188C314.66 922.512 302.897 921.182 291.55 915.903C286.221 913.047 282.606 909.95 277.998 906.144C282.92 901.717 287.053 897.662 291.721 892.958C297.548 898.387 303.167 902.117 311.534 902.475C322.018 903.075 332.401 894.856 333.631 884.174C335.05 871.86 334.46 857.659 334.446 845.123L334.423 770.596Z"/><path fill="#FF3DA6" d="M492.989 757.647C490.58 762.678 491.284 758.103 491.592 756.047L492.989 757.647Z"/></svg>