<?xml version="1.0" encoding="utf-8" ?><svg xmlns="http://www.w3.org/2000/svg" xmlns:xlink="http://www.w3.org/1999/xlink" width="1024" height="1024" viewBox="0 0 1024 1024"><defs><linearGradient id="gradient_0" gradientUnits="userSpaceOnUse" x1="518.4649" y1="1028.5421" x2="508.47437" y2="495.4697"><stop offset="0" stop-color="#01000B"/><stop offset="1" stop-color="#033E46"/></linearGradient></defs><path fill="url(#gradient_0)" d="M0 0L236.781 0L787.774 0L1024 0L1024 234.032L1024 465.485L1024 520.376L1024 554.928L1024 789.494L1024 1024L787.214 1024L238.61 1024L0 1024L0 785.875L0 555.07L0 519.362L0 465.534L0 235.728L0 0Z"/><defs><linearGradient id="gradient_1" gradientUnits="userSpaceOnUse" x1="558.90088" y1="-43.230186" x2="462.17212" y2="475.77362"><stop offset="0" stop-color="#010A1A"/><stop offset="1" stop-color="#042745"/></linearGradient></defs><path fill="url(#gradient_1)" d="M0 0L236.781 0L787.774 0L1024 0L1024 234.032L1024 465.485L822.262 465.531C791.19 465.523 759.261 465.903 728.249 465.438C715.043 466.12 695.391 465.53 681.718 465.539L588.861 465.544L588.004 461.705C585.191 450.67 583.963 434.832 585.484 423.395C585.332 420.101 585.663 415.976 586.114 412.702C596.637 410.759 607.073 409.097 615.218 401.43C615.925 400.764 616.194 400.386 617.052 399.953C625.008 389.209 625.481 384.536 625.012 371.333C624.827 371.045 623.219 363.873 622.891 362.695C621.202 356.624 619.115 351.764 616.598 346.073C605.734 367.149 593.031 378.014 568.382 386.148C549.982 392.22 518.942 396.142 498.862 393.559C498.744 393.497 498.626 393.435 498.508 393.373C495.992 394.983 494.36 395.751 491.705 397.009C487.672 395.882 485.552 394.902 482.201 392.582C480.293 393.11 469.268 390.024 466.94 389.437C448.489 384.785 431.009 378.313 417.602 364.251C412.349 358.741 411.017 354.642 406.754 348.76L406.438 348.333C403.403 354.656 402.081 359.06 400.521 365.886C400.155 367.49 399.58 371.238 399.098 372.416C398.564 383.416 399.06 389.9 405.848 398.967C405.637 401.017 407.932 402.193 409.651 403.619C414.131 407.313 422.73 411.157 428.511 411.804C433.847 412.402 431.354 414.152 435.987 415.353C443.268 417.241 439.148 419.69 440.716 424.82C441.085 426.024 441.005 426.808 441.406 428.086L441.569 428.62C442.976 437.27 439.981 457.674 436.655 465.663C423.237 465.235 408.04 465.556 394.494 465.528L0 465.534L0 235.728L0 0Z"/><defs><linearGradient id="gradient_2" gradientUnits="userSpaceOnUse" x1="3.3792105" y1="467.0141" x2="257.27258" y2="277.23575"><stop offset="0" stop-color="black"/><stop offset="1" stop-color="#01021B"/></linearGradient></defs><path fill="url(#gradient_2)" d="M16.4918 164.649C22.2306 167.187 47.7567 190.125 53.4241 195.802C55.8352 198.218 61.6615 205.854 65.2828 209.415C73.533 217.528 88.3849 222.482 92.3704 233.152C95.7162 242.11 98.9794 254.425 102.917 262.737C103.644 264.274 114.05 276.555 116.132 279.177C130.918 297.849 145.949 316.326 161.22 334.603C174.254 325.116 189.255 315.014 201.789 305.392C215.477 316.884 233.718 331.915 247.917 342.703L269.363 358.911C272.584 361.329 279.358 366.092 282.075 368.692C290.708 376.951 297.971 391.33 305.291 400.379C311.362 405.937 319.298 411.17 325.709 416.158C337.025 424.964 347.996 434.058 359.509 442.531C369.921 450.195 382.768 455.166 393.945 461.541C395.288 462.307 396.195 463.071 396.724 464.512C395.639 465.51 396.11 465.158 394.494 465.528L0 465.534L0 235.728C1.31072 230.322 2.2264 218.021 3.4099 211.389C6.51651 193.979 10.4844 181.069 16.4918 164.649Z"/><defs><linearGradient id="gradient_3" gradientUnits="userSpaceOnUse" x1="977.68585" y1="500.87378" x2="827.9068" y2="320.87244"><stop offset="0" stop-color="black"/><stop offset="1" stop-color="#01011D"/></linearGradient></defs><path fill="url(#gradient_3)" d="M1017.91 197.619C1021.01 211.272 1021.59 221.536 1024 234.032L1024 465.485L822.262 465.531C791.19 465.523 759.261 465.903 728.249 465.438C720.302 464.531 658.178 466.012 655.951 464.383L656.227 463.553C660.045 460.279 688.073 450.845 694.742 447.882C706.376 443.254 717.853 436.602 729.124 431.463C745.501 423.996 754.706 419.896 767.545 406.779C777.495 396.615 791.029 386.837 801.695 377.02C808.695 370.577 816.814 363.684 824.586 358.253C829.443 355.095 846.999 353.56 851.421 351.001C860.353 345.492 869.313 338.896 877.815 332.548C886.403 326.136 906.421 320.337 913.7 314.604C930.675 301.236 947.451 284.024 962.721 268.643C965.125 265.622 967.547 253.802 970.199 251.884C981.677 243.582 1009.46 201.317 1017.91 197.619Z"/><path fill="#E8F4F8" d="M406.438 348.333C417.764 322.787 442.286 299.944 467.62 288.442C494.605 276.189 523.579 276.583 551.126 286.747C577.337 296.418 605.072 320.506 616.598 346.073C605.734 367.149 593.031 378.014 568.382 386.148C549.982 392.22 518.942 396.142 498.862 393.559C498.744 393.497 498.626 393.435 498.508 393.373C495.992 394.983 494.36 395.751 491.705 397.009C487.672 395.882 485.552 394.902 482.201 392.582C480.293 393.11 469.268 390.024 466.94 389.437C448.489 384.785 431.009 378.313 417.602 364.251C412.349 358.741 411.017 354.642 406.754 348.76L406.438 348.333Z"/><path fill="#00B4CC" d="M481.056 316.049C487.283 305.85 491.595 307.727 500.083 313.309L528.576 332.288C534.763 336.337 542.71 340.314 547.887 345.516C549.236 346.872 550.081 348.773 550.448 350.631C550.886 352.855 550.807 355.325 549.434 357.211C544.615 363.828 508.394 386.086 498.508 393.373C495.992 394.983 494.36 395.751 491.705 397.009C487.672 395.882 485.552 394.902 482.201 392.582C480.054 385.817 480.833 365.421 480.858 357.532L481.056 316.049Z"/><path fill="#1A6B7A" d="M436.655 465.663C436.158 461.755 438.122 459.042 437.978 454.946C434.594 453.903 431.232 452.785 427.896 451.595C422.569 449.661 418.437 446.621 413.842 443.401C400.848 434.292 389.126 423.838 382.413 409.129C370.898 383.895 373.468 351.544 383.085 326.169C386.99 315.866 395.451 302.722 403.243 294.783C405.489 292.493 408.148 290.609 410.483 288.41C413.286 285.771 415.756 282.903 418.682 280.361C429.111 271.298 442.178 263.714 454.786 258.133C488.43 243.24 528.772 244.695 562.775 257.957C595.172 270.592 624.028 289.43 638.467 322.326C649.647 347.797 652.663 376.127 642.247 402.483C636.1 418.037 626.422 430.665 612.421 439.887C610.37 441.238 608.161 443.034 605.906 443.963C603.629 444.901 587.99 451.93 587.498 453.27C586.823 455.112 589.326 459.06 588.004 461.705C585.191 450.67 583.963 434.832 585.484 423.395C585.332 420.101 585.663 415.976 586.114 412.702C596.637 410.759 607.073 409.097 615.218 401.43C615.925 400.764 616.194 400.386 617.052 399.953C625.008 389.209 625.481 384.536 625.012 371.333C624.827 371.045 623.219 363.873 622.891 362.695C621.202 356.624 619.115 351.764 616.598 346.073C605.072 320.506 577.337 296.418 551.126 286.747C523.579 276.583 494.605 276.189 467.62 288.442C442.286 299.944 417.764 322.787 406.438 348.333C403.403 354.656 402.081 359.06 400.521 365.886C400.155 367.49 399.58 371.238 399.098 372.416C398.564 383.416 399.06 389.9 405.848 398.967C405.637 401.017 407.932 402.193 409.651 403.619C414.131 407.313 422.73 411.157 428.511 411.804C433.847 412.402 431.354 414.152 435.987 415.353C443.268 417.241 439.148 419.69 440.716 424.82C441.085 426.024 441.005 426.808 441.406 428.086L441.569 428.62C442.976 437.27 439.981 457.674 436.655 465.663Z"/><path fill="#0A92AA" d="M399.098 372.416L398.418 371.731C398.879 368.076 402.972 344.142 403.808 342.125C410.73 325.447 423.107 309.041 437.065 297.631C457.796 279.865 474.304 272.948 501.066 270.316C563.063 264.219 617.989 306.717 625.663 370.52L625.012 371.333C624.827 371.045 623.219 363.873 622.891 362.695C621.202 356.624 619.115 351.764 616.598 346.073C605.072 320.506 577.337 296.418 551.126 286.747C523.579 276.583 494.605 276.189 467.62 288.442C442.286 299.944 417.764 322.787 406.438 348.333C403.403 354.656 402.081 359.06 400.521 365.886C400.155 367.49 399.58 371.238 399.098 372.416Z"/><path fill="#0287A1" d="M586.114 412.702C596.637 410.759 607.073 409.097 615.218 401.43C615.925 400.764 616.194 400.386 617.052 399.953C617.533 402.343 611.608 405.276 609.711 406.679C608.519 407.546 607.188 408.201 605.775 408.617C603.964 409.14 602.147 410.191 600.037 410.618C598.631 410.902 596.648 411.915 594.987 412.032C594.259 412.083 593.382 412.246 592.72 412.526C591.882 412.798 591.028 412.547 590.215 413.03C590.151 413.068 589.407 413.243 589.256 413.267C588.976 413.31 586.634 414.435 586.635 414.434C586.498 414.996 586.786 416.086 586.668 416.736C586.583 418.315 587.167 419.006 586.263 420.332C585.463 421.505 586.62 422 585.484 423.395C585.332 420.101 585.663 415.976 586.114 412.702Z"/><path fill="#E8F4F8" d="M0 0L236.781 0C220.674 2.97517 207.956 3.51015 191.314 7.87529C130.957 24.0838 78.4676 61.5112 43.4753 113.292C31.774 130.327 24.3022 145.689 16.4918 164.649C10.4844 181.069 6.51651 193.979 3.4099 211.389C2.2264 218.021 1.31072 230.322 0 235.728L0 0Z"/><path fill="#E8F4F8" d="M787.774 0L1024 0L1024 234.032C1021.59 221.536 1021.01 211.272 1017.91 197.619C1009 163.172 997.69 138.135 977.501 108.758C942.075 58.2901 889.687 22.2387 829.894 7.17956C821.936 5.13 813.869 3.52412 805.732 2.36932C799.873 1.55212 793.525 1.0623 787.774 0Z"/><defs><linearGradient id="gradient_4" gradientUnits="userSpaceOnUse" x1="217.93472" y1="554.66138" x2="218.00085" y2="465.33859"><stop offset="0" stop-color="#046C8D"/><stop offset="1" stop-color="#0BFFFF"/></linearGradient></defs><path fill="url(#gradient_4)" d="M394.494 465.528C408.04 465.556 423.237 465.235 436.655 465.663C435.623 472.812 432.525 479.58 431.357 485.74C429.455 489.769 428.272 495.237 426.551 498.574C422.007 498.61 417.212 499.173 412.664 499.635C384.473 502.499 355.991 505.897 328.552 513.153C315.21 516.681 302.382 521.723 288.813 524.46C286.476 524.933 280.567 526.349 278.543 526.473C253.222 532.585 219.975 536.375 193.966 538.762C166.042 541.326 138.076 543.398 110.079 544.979C73.243 547.252 36.5227 549.391 0 555.07L0 519.362L0 465.534L394.494 465.528Z"/><defs><linearGradient id="gradient_5" gradientUnits="userSpaceOnUse" x1="806.25946" y1="554.02338" x2="806.24994" y2="465.47662"><stop offset="0" stop-color="#026A8A"/><stop offset="1" stop-color="#0AFFFF"/></linearGradient></defs><path fill="url(#gradient_5)" d="M728.249 465.438C759.261 465.903 791.19 465.523 822.262 465.531L1024 465.485L1024 520.376L1024 554.928C996.295 546.929 939.481 544.446 909.78 542.932C876.8 541.306 843.893 538.439 811.129 534.338C791.979 531.925 768.953 528.655 750.346 523.965C747.761 523.816 740.087 522.081 737.527 521.294C705.869 511.564 674.858 504.977 641.778 501.666C627.495 500.236 613.134 499.221 598.688 498.042C595.271 490.036 590.866 474.08 588.861 465.544L681.718 465.539C695.391 465.53 715.043 466.12 728.249 465.438Z"/><path fill="#AFF0FC" d="M616.598 346.073C619.115 351.764 621.202 356.624 622.891 362.695C623.219 363.873 624.827 371.045 625.012 371.333C625.481 384.536 625.008 389.209 617.052 399.953C616.194 400.386 615.925 400.764 615.218 401.43C607.073 409.097 596.637 410.759 586.114 412.702L584.074 414.367C580.113 428.932 581.472 450.839 585.287 465.401C580.199 465.439 575.11 465.445 570.022 465.42C570.311 467.468 570.715 469.464 571.092 471.495L571.526 473.746C573.314 481.687 574.771 488.766 577.362 496.518C575.688 497.528 576.594 497.277 574.506 497.123L574.393 497.374C572.459 496.762 559.957 496.593 557.413 496.561C557.353 496.06 557.294 495.559 557.234 495.058L556.774 497.285C555.736 497.623 555.824 497.525 555.05 498.363L554.619 500.795L553.964 496.393C548.525 496.166 542.735 496.162 537.274 496.116C538.739 505.725 540.615 508.537 543.724 517.277C539.828 515.705 539.674 515.176 536.369 512.874C538.08 520.06 539.684 527.13 541.851 534.197C543.612 539.939 546.448 545.8 548.144 551.428C545.465 550.392 544.638 550.156 542.243 548.482L541.615 548.049C541.491 547.959 541.367 547.87 541.244 547.78C545.646 562.745 546.56 563.637 555.196 577.074L547.886 574.969C550.025 581.395 553.938 591.996 554.982 598.229C552.966 596.461 551.028 594.779 549.1 592.907C551.226 605.237 552.659 615.028 555.391 627.386C553.466 624.284 551.753 621.466 549.997 618.27C549.999 625.467 550.335 641.148 549.249 647.506L548.776 647.686L547.449 646.305C545.562 648.34 545.757 662.743 543.405 664.985C542.65 664.067 542.674 664.13 542.281 663.012C542.374 661.776 541.586 660.816 540.92 659.493C540.215 663.26 536.786 674.732 535.368 678.414L534.329 676.563C535.452 673.561 536.351 669.67 537.13 666.52C537.965 661.874 539.381 654.385 540.716 649.867C542.84 641.57 543.945 627.237 544.032 618.769C544.129 609.407 544.196 599.526 542.77 590.292C539.832 571.267 532.858 554.178 529.031 535.276C526.904 534.913 524.893 535.052 522.732 535.089C522.228 536.3 521.84 536.999 521.65 538.297C520.614 540.588 519.606 542.892 518.624 545.206C517.94 533.399 518.186 523.612 520.554 511.907C519.599 512.65 517.563 514.137 516.737 514.902C515.464 522.523 514.778 530.32 513.567 537.902C508.113 572.078 504.525 606.298 508.639 640.867C509.299 646.409 510.392 655.498 511.723 660.874L510.279 660.528C509.92 658.134 509.081 655.027 508.478 652.638C505.238 639.789 503.598 627.106 502.734 613.86C501.71 598.501 502.053 583.082 503.759 567.783C505.226 554.108 507.649 539.993 508.719 526.338C509.433 517.213 508.345 507.03 508.73 497.403C508.1 496.182 507.768 496.241 506.481 495.672C505.796 504.347 505.193 513.027 504.672 521.713C502.048 518.309 499.008 514.632 495.866 511.691C496.667 524.796 498.287 534.103 492.333 546.381C491.802 543.351 491.309 540.022 490.463 537.088C483.601 553.876 484.753 560.058 486.591 578.208C483.057 575.875 481.854 574.999 477.943 573.409C478.421 581.343 479.901 586.911 481.895 594.542C482.67 597.506 484.061 602.03 484.254 604.868L483.709 605.323L482.973 604.402C482.023 602.216 481.254 601.348 479.238 599.934C476.187 597.793 475.454 599.827 474.76 602.183C475.664 608.795 475.4 622.93 478.026 628.487L478.069 629.64C476.282 632.012 479.518 634.185 477.554 634.366C475.678 633.231 478.08 632.191 475.452 628.822C473.686 624.119 472.548 607.253 472.43 601.678C472.982 589.042 472.096 581.665 473.459 568.249L474.745 554.297C474.678 553.973 474.263 551.465 474.222 551.38C473.963 551.73 473.982 553.085 473.521 553.204C471.501 553.728 472.815 551.397 470.16 553.21C467.076 555.316 467.171 553.097 464.205 555.514L463.47 555.316C463.552 553.532 474.408 533.782 476.041 530.33C472.209 530.585 468.379 530.874 464.552 531.198C471.892 519.178 475.373 509.778 481.656 497.53C479.485 498.079 473.819 500.169 472.324 498.471L473.228 496.667C471.635 496.541 470.578 496.572 468.998 496.602L468.906 496.999C467.683 497.522 467.146 497.782 466.259 496.654L465.891 496.203L465.562 496.471C461.473 496.446 457.384 496.457 453.295 496.503C452.641 499.52 452.217 501.399 451.236 504.346C448.967 506.496 448.792 510.412 447.801 513.499C446.184 518.534 444.753 523.697 443.125 528.733C442.691 530.075 441.987 534.682 440.468 533.943C439.934 532.366 449.313 508.081 448.611 502.341C448.788 501.268 449.638 498.58 449.966 497.435C447.522 496.665 433.626 498.129 429.83 498.263C430.577 496.406 433.206 488.892 433.273 487.258C432.454 483.674 439.582 467.703 438.118 466.046C436.026 469.598 433.693 483.7 431.357 485.74C432.525 479.58 435.623 472.812 436.655 465.663C439.981 457.674 442.976 437.27 441.569 428.62L441.406 428.086C441.005 426.808 441.085 426.024 440.716 424.82C439.148 419.69 443.268 417.241 435.987 415.353C431.354 414.152 433.847 412.402 428.511 411.804C422.73 411.157 414.131 407.313 409.651 403.619C407.932 402.193 405.637 401.017 405.848 398.967C399.06 389.9 398.564 383.416 399.098 372.416C399.58 371.238 400.155 367.49 400.521 365.886C402.081 359.06 403.403 354.656 406.438 348.333L406.754 348.76C411.017 354.642 412.349 358.741 417.602 364.251C431.009 378.313 448.489 384.785 466.94 389.437C469.268 390.024 480.293 393.11 482.201 392.582C485.552 394.902 487.672 395.882 491.705 397.009C494.36 395.751 495.992 394.983 498.508 393.373C498.626 393.435 498.744 393.497 498.862 393.559C518.942 396.142 549.982 392.22 568.382 386.148C593.031 378.014 605.734 367.149 616.598 346.073Z"/><defs><linearGradient id="gradient_6" gradientUnits="userSpaceOnUse" x1="447.3988" y1="465.11978" x2="453.37897" y2="413.02692"><stop offset="0" stop-color="#013B57"/><stop offset="1" stop-color="#0299AF"/></linearGradient></defs><path fill="url(#gradient_6)" d="M443.267 413.234C447.995 413.357 454.065 413.347 458.718 412.396C461.714 428.652 460.7 449.252 456.887 465.522C451.273 465.501 445.659 465.51 440.045 465.55C446.127 442.791 444.555 435.728 443.267 413.234Z"/><defs><linearGradient id="gradient_7" gradientUnits="userSpaceOnUse" x1="580.52753" y1="464.47678" x2="572.46088" y2="414.18549"><stop offset="0" stop-color="#003B4F"/><stop offset="1" stop-color="#0495AE"/></linearGradient></defs><path fill="url(#gradient_7)" d="M569.399 413.529C573.469 413.689 580.173 413.128 583.654 413.58L584.074 414.367C580.113 428.932 581.472 450.839 585.287 465.401C580.199 465.439 575.11 465.445 570.022 465.42C566.584 446.28 566.407 432.777 569.399 413.529Z"/><path fill="#E8F4F8" d="M529.031 535.276C521.686 497.305 523.139 460.02 529.555 422.049C530.093 418.865 531.812 408.188 533.934 406.552C535.311 406.773 534.652 406.491 535.736 407.953C534.706 416.499 531.588 426.615 530.396 435.738C527.518 457.762 525.552 481.458 526.865 503.631C527.52 514.688 530.31 526.479 532.401 537.225C536.67 559.17 545.315 576.388 546.46 599.383C547.252 615.288 547.234 626.657 544.294 642.437C543.721 645.511 540.954 657.383 540.92 659.493C540.215 663.26 536.786 674.732 535.368 678.414L534.329 676.563C535.452 673.561 536.351 669.67 537.13 666.52C537.965 661.874 539.381 654.385 540.716 649.867C542.84 641.57 543.945 627.237 544.032 618.769C544.129 609.407 544.196 599.526 542.77 590.292C539.832 571.267 532.858 554.178 529.031 535.276Z"/><defs><linearGradient id="gradient_8" gradientUnits="userSpaceOnUse" x1="443.35501" y1="496.77902" x2="442.63885" y2="466.46127"><stop offset="0" stop-color="#00D5EF"/><stop offset="1" stop-color="#0CFFFF"/></linearGradient></defs><path fill="url(#gradient_8)" d="M433.273 487.258C435.101 481.954 438.17 469.742 440.045 465.55C445.659 465.51 451.273 465.501 456.887 465.522C456.042 472.02 454.893 478.605 453.423 484.992C453.029 486.67 452.609 488.343 452.162 490.008L451.643 492.008C451.149 493.922 450.532 495.579 449.966 497.435C447.522 496.665 433.626 498.129 429.83 498.263C430.577 496.406 433.206 488.892 433.273 487.258Z"/><defs><linearGradient id="gradient_9" gradientUnits="userSpaceOnUse" x1="471.35156" y1="518.67023" x2="496.63477" y2="522.91138"><stop offset="0" stop-color="#FFFFFC"/><stop offset="1" stop-color="#E2FBFF"/></linearGradient></defs><path fill="url(#gradient_9)" d="M474.745 554.297C475.652 542.439 480.796 530.753 483.258 519.323C490.599 485.242 493.847 451.577 489.745 416.837C489.538 415.079 489.465 408.626 490.623 407.421C492.128 411.454 493.469 429.066 493.766 433.967C495.146 455.592 493.739 475.43 490.139 496.686C487.411 512.792 482.614 528.398 479.08 543.696C476.79 553.611 472.378 593.075 474.76 602.183C475.664 608.795 475.4 622.93 478.026 628.487L478.069 629.64C476.282 632.012 479.518 634.185 477.554 634.366C475.678 633.231 478.08 632.191 475.452 628.822C473.686 624.119 472.548 607.253 472.43 601.678C472.982 589.042 472.096 581.665 473.459 568.249L474.745 554.297Z"/><defs><linearGradient id="gradient_10" gradientUnits="userSpaceOnUse" x1="467.04694" y1="464.07034" x2="467.7941" y2="410.46228"><stop offset="0" stop-color="#004A63"/><stop offset="1" stop-color="#00A3BC"/></linearGradient></defs><path fill="url(#gradient_10)" d="M462.401 412.235C464.554 411.565 469.478 409.715 471.209 409.855L471.831 411.056C473.768 431.167 474.248 445.142 471.536 465.419C467.895 465.441 464.253 465.419 460.612 465.352C464.128 450.685 465.363 426.531 462.401 412.235Z"/><path fill="#1A6B7A" d="M553.75 422.518C570.345 419.766 560.193 423.763 563.542 431.655C563.896 441.736 564.006 455.859 567.098 465.518L553.367 465.533C552.608 461.321 551.898 437.178 552.462 432.804C552.946 431.548 553.648 429.286 553.651 427.998C553.641 426.171 553.674 424.344 553.75 422.518Z"/><defs><linearGradient id="gradient_11" gradientUnits="userSpaceOnUse" x1="565.08929" y1="496.4498" x2="561.09479" y2="465.28296"><stop offset="0" stop-color="#00D5EA"/><stop offset="1" stop-color="#0FFDFF"/></linearGradient></defs><path fill="url(#gradient_11)" d="M553.367 465.533L567.098 465.518C570.046 475.379 571.566 486.795 574.506 497.123L574.393 497.374C572.459 496.762 559.957 496.593 557.413 496.561C557.353 496.06 557.294 495.559 557.234 495.058C556.555 492.164 555.943 488.951 555.555 485.998L555.117 482.748C554.253 476.757 554.012 471.458 553.367 465.533Z"/><defs><linearGradient id="gradient_12" gradientUnits="userSpaceOnUse" x1="560.89972" y1="453.65659" x2="546.26862" y2="451.92261"><stop offset="0" stop-color="#A8FFFD"/><stop offset="1" stop-color="#BDEFFF"/></linearGradient></defs><path fill="url(#gradient_12)" d="M550.653 410.049C552.459 409.573 551.58 409.549 553.384 410.181C553.753 410.717 553.967 410.928 554.198 411.523C553.593 418.538 552.348 425.822 552.462 432.804C551.898 437.178 552.608 461.321 553.367 465.533C554.012 471.458 554.253 476.757 555.117 482.748L555.555 485.998C555.943 488.951 556.555 492.164 557.234 495.058L556.774 497.285C555.736 497.623 555.824 497.525 555.05 498.363L554.619 500.795L553.964 496.393C553.313 492.236 552.728 488.337 552.154 484.169C550.265 484.191 544.556 484.871 543.367 483.41C543.847 480.844 541.161 468.336 540.297 465.489L549.976 465.537C549.676 459.628 548.946 453.664 548.562 447.75C548.148 441.376 548.557 435.027 548.518 428.687C549.564 423.576 550.2 415.41 550.653 410.049Z"/><path fill="#05F2FE" d="M540.297 465.489L549.976 465.537C550.252 468.783 550.609 472.021 551.047 475.248C551.437 478.296 551.922 481.082 552.154 484.169C550.265 484.191 544.556 484.871 543.367 483.41C543.847 480.844 541.161 468.336 540.297 465.489Z"/><path fill="#72E4F7" d="M453.295 496.503C453.978 494.044 454.85 490.703 455.36 488.243L457.1 480.007C457.205 479.502 457.309 478.998 457.414 478.494C457.749 476.571 458.138 474.659 458.581 472.758C458.75 472.037 458.934 471.222 459.11 470.508L459.609 468.505C459.98 467.123 460.015 466.602 460.612 465.352C464.253 465.419 467.895 465.441 471.536 465.419C470.931 472.481 469.325 480.815 467.87 487.745L467.435 489.743C467.044 491.453 466.575 493.432 466.153 495.123C466.063 495.482 465.976 495.842 465.891 496.203L465.562 496.471C461.473 496.446 457.384 496.457 453.295 496.503Z"/><path fill="#1A6B7A" d="M541.502 429.201C541.83 426.888 541.633 427.357 541.579 425.251C541.552 424.217 540.173 417.077 541.441 417.69C543.565 418.717 544.888 421.905 546.563 423.516C548.373 425.257 547.498 426.176 548.518 428.687C548.557 435.027 548.148 441.376 548.562 447.75C548.946 453.664 549.676 459.628 549.976 465.537L540.297 465.489C539.136 459.184 538.563 451.568 538.208 445.171C538.199 445.013 538.821 444.889 538.984 444.922C541.307 445.381 543.5 449.265 544.806 450.942C544.226 443.642 541.712 435.841 541.502 429.201Z"/><path fill="#AFF0FC" d="M471.831 411.056L472.309 408.992C473.64 407.967 473.234 408.296 475.401 408.398C476.155 421.056 477.667 431.252 477.359 444.23L479.164 445.807L478.537 446.846C478.081 446.737 477.626 446.628 477.17 446.519C476.732 452.828 476.042 458.833 475.189 465.091C474.358 468.082 473.927 471.644 473.367 474.744L472.896 477.243C472.783 477.748 472.67 478.253 472.558 478.758L470.051 490.259C469.599 492.364 469.089 494.445 468.998 496.602L468.906 496.999C467.683 497.522 467.146 497.782 466.259 496.654L465.891 496.203C465.976 495.842 466.063 495.482 466.153 495.123C466.575 493.432 467.044 491.453 467.435 489.743L467.87 487.745C469.325 480.815 470.931 472.481 471.536 465.419C474.248 445.142 473.768 431.167 471.831 411.056Z"/><path fill="#0287A1" d="M477.359 444.23L479.164 445.807L478.537 446.846C478.081 446.737 477.626 446.628 477.17 446.519C477.246 445.757 477.309 444.994 477.359 444.23Z"/><path fill="#0A92AA" d="M475.401 408.398C476.953 407.698 482.385 407.985 484.386 407.993C484.42 415.354 483.43 417.157 480.713 424.014C481.468 424.023 486.55 423.949 486.825 424.068C488.41 427.376 482.09 443.212 479.164 445.807L477.359 444.23C477.667 431.252 476.155 421.056 475.401 408.398Z"/><path fill="#72E4F7" d="M535.294 476.913C534.624 472.439 534.451 471.463 537.354 474.576C538.936 478.381 540.01 481.036 543.367 483.41C544.556 484.871 550.265 484.191 552.154 484.169C552.728 488.337 553.313 492.236 553.964 496.393C548.525 496.166 542.735 496.162 537.274 496.116C536.317 489.687 536.144 483.221 535.294 476.913Z"/><path fill="#72E4F7" d="M468.998 496.602C469.089 494.445 469.599 492.364 470.051 490.259L472.558 478.758C472.67 478.253 472.783 477.748 472.896 477.243L473.367 474.744C473.927 471.644 474.358 468.082 475.189 465.091C476.892 465.746 478.2 465.609 480.068 465.734C478.504 469.239 475.877 475.639 476.322 479.584C476.569 480.688 478.109 480.267 478.719 479.924C481.347 478.445 483.685 474.375 486.675 473.757C487.734 473.538 485.734 476.939 485.734 476.938C485.395 477.541 484.986 478.165 484.597 478.746C482.344 481.691 475.713 495.351 473.228 496.667C471.635 496.541 470.578 496.572 468.998 496.602Z"/><defs><linearGradient id="gradient_13" gradientUnits="userSpaceOnUse" x1="473.50522" y1="462.13147" x2="485.58487" y2="446.858"><stop offset="0" stop-color="#00556D"/><stop offset="1" stop-color="#00758D"/></linearGradient></defs><path fill="url(#gradient_13)" d="M482.721 447.275C484.439 446.606 485.018 445.647 486.361 447.396C484.757 453.344 481.219 461.147 480.068 465.734C478.2 465.609 476.892 465.746 475.189 465.091C476.042 458.833 476.732 452.828 477.17 446.519C477.626 446.628 478.081 446.737 478.537 446.846L479.518 447.041C480.607 447.278 481.608 447.342 482.721 447.275Z"/><path fill="#0A92AA" d="M554.198 411.523C555.1 411.003 556.316 411.442 557.489 411.64L560.242 412.083C561.947 412.405 563.661 412.633 565.374 412.909C564.472 419.083 564.488 425.699 563.542 431.655C560.193 423.763 570.345 419.766 553.75 422.518C553.674 424.344 553.641 426.171 553.651 427.998C553.648 429.286 552.946 431.548 552.462 432.804C552.348 425.822 553.593 418.538 554.198 411.523Z"/><path fill="#00B4CC" d="M544.091 408.149L545.014 408.382C546.837 408.858 549.177 409.007 550.653 410.049C550.2 415.41 549.564 423.576 548.518 428.687C547.498 426.176 548.373 425.257 546.563 423.516C544.888 421.905 543.565 418.717 541.441 417.69C540.173 417.077 541.552 424.217 541.579 425.251C541.633 427.357 541.83 426.888 541.502 429.201C540.619 425.679 540.002 420.644 540.019 416.986C540.026 415.331 542.987 418.088 543.443 417.166C544.493 415.048 544.137 410.52 544.091 408.149Z"/><path fill="#0287A1" d="M405.848 398.967C406.62 399.391 406.915 399.814 407.545 400.451C416.324 409.331 429.05 411.564 440.88 412.704C441.023 418.184 441.622 423.17 441.569 428.62L441.406 428.086C441.005 426.808 441.085 426.024 440.716 424.82C439.148 419.69 443.268 417.241 435.987 415.353C431.354 414.152 433.847 412.402 428.511 411.804C422.73 411.157 414.131 407.313 409.651 403.619C407.932 402.193 405.637 401.017 405.848 398.967Z"/><path fill="#75D3F0" d="M507.436 480.478C507.332 473.596 506.153 470.441 511.833 475.539C510.347 480.438 510.183 484.061 509.43 489.006C506.857 489.968 507.552 481.856 507.436 480.478Z"/><path fill="#72E4F7" d="M507.436 480.478C507.552 481.856 506.857 489.968 509.43 489.006C509.513 490.326 509.107 496.266 508.73 497.403C508.1 496.182 507.768 496.241 506.481 495.672C506.358 494.012 507.138 482.455 507.436 480.478Z"/><path fill="#0287A1" d="M482.721 447.275L483.844 445.684C486.81 441.513 487.197 443.676 486.361 447.396C485.018 445.647 484.439 446.606 482.721 447.275Z"/><path fill="#E8F4F8" d="M0 785.875C2.40752 801.84 3.28699 821.173 9.11591 836.676C10.8054 845.656 17.7687 862.627 21.6235 871.084C41.5073 914.708 71.1802 951.371 110.887 978.559C139.981 998.823 172.951 1012.85 207.726 1019.76C217.203 1021.6 231.262 1022.31 238.61 1024L0 1024L0 785.875Z"/><path fill="#E8F4F8" d="M1024 789.494L1024 1024L787.214 1024C791.472 1023.06 798.466 1022.52 803 1021.97C808.797 1021.24 814.561 1020.26 820.276 1019.04C858.794 1010.94 894.873 993.917 925.611 969.332C965.478 938.256 995.368 896.183 1011.59 848.31C1014.93 838.451 1019.48 821.751 1020.7 811.459C1021.84 808.729 1023.67 792.862 1023.36 790.057L1024 789.494Z"/><path fill="#72E4F7" d="M522.732 535.089C524.893 535.052 526.904 534.913 529.031 535.276C532.858 554.178 539.832 571.267 542.77 590.292C544.196 599.526 544.129 609.407 544.032 618.769C543.945 627.237 542.84 641.57 540.716 649.867C540.701 648.855 540.816 647.426 540.356 646.526L540.201 646.44C540.041 646.608 539.636 650.944 539.112 651.095C537.524 651.554 537.386 651.182 536.918 652.981C536.082 653.734 536.413 653.478 535.276 653.864C533.534 651.45 541.385 635.356 540.083 630.648L539.31 630.651L537.909 632.515L536.71 631.107C539.994 617.276 540.855 610.264 540.034 596.027L535.449 600.208C535.305 594.628 535.572 588.802 535.736 583.204L530.011 584.477C530.171 580.118 531.819 568.439 531.19 565.607L530.555 565.447C529.372 566.603 529.016 566.954 527.639 567.962L526.84 567.643C522.629 559.059 522.85 551.599 522.952 542.381C521.972 541.029 522.379 540.019 521.65 538.297C521.84 536.999 522.228 536.3 522.732 535.089Z"/><path fill="#0D4D5C" d="M522.732 535.089C523.146 537.747 523.236 539.698 522.952 542.381C521.972 541.029 522.379 540.019 521.65 538.297C521.84 536.999 522.228 536.3 522.732 535.089Z"/><defs><linearGradient id="gradient_14" gradientUnits="userSpaceOnUse" x1="584.22479" y1="497.63519" x2="580.22229" y2="464.93246"><stop offset="0" stop-color="#00D4EA"/><stop offset="1" stop-color="#0CFDFF"/></linearGradient></defs><path fill="url(#gradient_14)" d="M570.022 465.42C575.11 465.445 580.199 465.439 585.287 465.401C586.172 467.37 586.613 469.412 587.165 471.49L587.704 473.452C589.547 480.168 592.891 491.611 595.382 497.994C590.436 497.506 582.924 497.249 577.782 497.11C577.642 496.912 577.502 496.715 577.362 496.518C574.771 488.766 573.314 481.687 571.526 473.746L571.092 471.495C570.715 469.464 570.311 467.468 570.022 465.42Z"/><defs><linearGradient id="gradient_15" gradientUnits="userSpaceOnUse" x1="582.60663" y1="639.60992" x2="534.95496" y2="614.922"><stop offset="0" stop-color="#2D5B6E"/><stop offset="1" stop-color="#65A8D4"/></linearGradient></defs><path fill="url(#gradient_15)" d="M560.682 532.027L561.465 532.286C562.805 537.954 563.457 543.423 565.124 548.955C565.549 550.364 565.399 552.109 566.2 554.612L566.954 554.327C567.815 552.623 563.577 535.403 563.145 531.717L563.72 530.999C566.423 540.677 567.869 552.239 569.975 561.99C579.842 607.684 579.617 650.253 556.087 692.014C553.796 696.081 551.739 699.457 548.897 703.322C553.457 692.53 558.365 683.431 562.728 672.053C575.663 638.317 574.822 607.851 568.772 573.077C566.65 560.876 562.194 543.548 560.682 532.027Z"/><defs><linearGradient id="gradient_16" gradientUnits="userSpaceOnUse" x1="436.14441" y1="640.51605" x2="485.91608" y2="613.45105"><stop offset="0" stop-color="#2D5D73"/><stop offset="1" stop-color="#5C9AB8"/></linearGradient></defs><path fill="url(#gradient_16)" d="M450.284 554.173C451.643 552.315 452.016 550.297 453.669 553.525C444.881 596.667 442.633 636.447 459.832 677.965C463.344 686.442 467.037 695.36 471.779 703.24C471.438 703.296 471.098 703.352 470.758 703.408C469.368 700.665 466.554 696.204 464.908 693.273C445.269 658.295 440.148 622.122 445.446 582.658C446.681 573.461 447.729 563.185 450.284 554.173Z"/><defs><linearGradient id="gradient_17" gradientUnits="userSpaceOnUse" x1="618.85846" y1="637.80109" x2="562.31848" y2="595.95984"><stop offset="0" stop-color="#2C6573"/><stop offset="1" stop-color="#669ECB"/></linearGradient></defs><path fill="url(#gradient_17)" d="M589.362 534.269C592.36 542.161 595.297 553.194 597.49 561.479C607.807 600.446 609.409 633.478 592.482 671.242C591.022 674.457 589.507 677.647 587.935 680.809L587.31 679.821C590.469 674.636 593.53 663.659 595.552 657.592C609.684 615.208 599.097 577.241 586.984 536.284C590.533 539.814 590.973 551.54 593.593 553.205C592.963 546.989 589.365 539.852 589.362 534.269Z"/><defs><linearGradient id="gradient_18" gradientUnits="userSpaceOnUse" x1="405.74738" y1="638.22528" x2="470.82544" y2="588.21875"><stop offset="0" stop-color="#335C74"/><stop offset="1" stop-color="#55A2C0"/></linearGradient></defs><path fill="url(#gradient_18)" d="M439.035 682.253C438.54 681.3 438.058 680.34 437.588 679.374C420.621 644.477 420.512 607.571 429.734 570.751C431.829 562.386 433.439 553.628 436.255 545.416C437.676 546.064 436.999 544.888 439.026 545.923C428.888 583.711 420.156 620.015 432.15 658.882C433.784 664.176 436.893 677.025 439.707 681.261L439.035 682.253Z"/><path fill="#72E4F7" d="M584.074 414.367L586.114 412.702C585.663 415.976 585.332 420.101 585.484 423.395C583.963 434.832 585.191 450.67 588.004 461.705L588.861 465.544C590.866 474.08 595.271 490.036 598.688 498.042C600.734 503.466 604.758 515.66 605.955 521.294C605.476 523.505 607.234 531.096 608.234 533.215C605.441 535.552 606.281 526.102 603.363 522.841C600.8 516.398 598.101 505.479 595.382 497.994C592.891 491.611 589.547 480.168 587.704 473.452L587.165 471.49C586.613 469.412 586.172 467.37 585.287 465.401C581.472 450.839 580.113 428.932 584.074 414.367Z"/><defs><linearGradient id="gradient_19" gradientUnits="userSpaceOnUse" x1="632.62244" y1="612.13434" x2="581.59088" y2="568.11835"><stop offset="0" stop-color="#36617E"/><stop offset="1" stop-color="#5AB0CA"/></linearGradient></defs><path fill="url(#gradient_19)" d="M609.899 536.088C616.732 567.649 619.921 595.101 611.614 627.044C610.236 632.343 607.677 641.094 604.929 645.734C616.101 600.866 616.089 583.245 606.812 537.225C608.377 538.312 609.178 537.569 609.899 536.088Z"/><defs><linearGradient id="gradient_20" gradientUnits="userSpaceOnUse" x1="397.36462" y1="602.03668" x2="437.31213" y2="580.36743"><stop offset="0" stop-color="#32627A"/><stop offset="1" stop-color="#5BA2C3"/></linearGradient></defs><path fill="url(#gradient_20)" d="M415.542 538.44C416.138 541.893 415.515 542.766 418.263 540.003C412.081 568.94 409.342 596.065 415.374 625.448C416.167 629.312 418.095 637.91 419.686 641.285L419.015 642.341C406.448 610.028 406.172 571.788 415.542 538.44Z"/><path fill="#72E4F7" d="M464.205 555.514C467.171 553.097 467.076 555.316 470.16 553.21C472.815 551.397 471.501 553.728 473.521 553.204C473.982 553.085 473.963 551.73 474.222 551.38C474.263 551.465 474.678 553.973 474.745 554.297L473.459 568.249C472.096 581.665 472.982 589.042 472.43 601.678C471.625 596.352 472.497 591.234 471.756 586.017C471.685 585.519 468.847 585.098 468.709 585.068C468.2 585.282 464.417 587.165 464.322 586.184C464.01 582.955 464.925 577.124 465.42 573.995C465.751 571.818 466.162 569.654 466.65 567.507C466.938 566.206 470.414 554.513 470.461 554.609C470.462 554.61 465.878 555.475 464.205 555.514Z"/><path fill="#75D3F0" d="M468.709 585.068C468.847 585.098 471.685 585.519 471.756 586.017C472.497 591.234 471.625 596.352 472.43 601.678C472.548 607.253 473.686 624.119 475.452 628.822C475.543 631.265 476.185 633.883 475.918 635.85C474.883 636.527 474.285 636.822 473.204 637.384L472.603 637.076C471.49 631.711 471.502 623.034 471.469 617.359L466.446 621.104C467.201 609.338 468.386 596.758 468.709 585.068Z"/><path fill="#75D3F0" d="M540.92 659.493C541.586 660.816 542.374 661.776 542.281 663.012C540.68 666.192 538.574 675.968 537.309 679.912C532.933 693.557 526.43 704.615 517.648 715.803L516.972 714.468C524.205 703.408 528.32 692.296 532.909 680.121L532.939 679.435C533.472 678.404 533.856 677.633 534.329 676.563L535.368 678.414C536.786 674.732 540.215 663.26 540.92 659.493Z"/><path fill="#AFF0FC" d="M534.329 676.563L535.368 678.414C535.162 680.224 534.673 682.139 532.909 680.121L532.939 679.435C533.472 678.404 533.856 677.633 534.329 676.563Z"/><path fill="#75D3F0" d="M577.362 496.518C577.502 496.715 577.642 496.912 577.782 497.11C579.732 503.023 588.789 529.709 589.362 534.269C589.365 539.852 592.963 546.989 593.593 553.205C590.973 551.54 590.533 539.814 586.984 536.284C582.87 525.381 578.107 508.793 574.393 497.374L574.506 497.123C576.594 497.277 575.688 497.528 577.362 496.518Z"/><path fill="#75D3F0" d="M557.234 495.058C557.294 495.559 557.353 496.06 557.413 496.561C558.692 503.922 560.041 511.27 561.459 518.605C562.016 521.513 563.5 528.323 563.72 530.999L563.145 531.717C563.577 535.403 567.815 552.623 566.954 554.327L566.2 554.612C565.399 552.109 565.549 550.364 565.124 548.955C563.457 543.423 562.805 537.954 561.465 532.286L560.682 532.027C559.311 527.604 554.917 505.353 554.619 500.795L555.05 498.363C555.824 497.525 555.736 497.623 556.774 497.285L557.234 495.058Z"/><path fill="#72E4F7" d="M480.558 657.038C481.282 656.544 481.555 656.331 482.334 655.957C482.407 656.213 482.48 656.469 482.554 656.725C482.94 658.157 484.247 656.409 485.045 656.876C485.673 657.243 485.757 657.267 486.556 657.188C487.973 666.4 498.886 685.43 503.467 693.816L502.322 693.852C490.567 678.865 487.576 675.243 480.558 657.038Z"/><path fill="#75D3F0" d="M431.357 485.74C433.693 483.7 436.026 469.598 438.118 466.046C439.582 467.703 432.454 483.674 433.273 487.258C433.206 488.892 430.577 496.406 429.83 498.263C427.927 504.427 424.619 517.506 422.697 522.488C420.331 524.945 420.152 531.468 419.127 532.147C417.106 532.264 420.369 526.009 419.643 522.993C420.148 518.709 425.114 503.048 426.551 498.574C428.272 495.237 429.455 489.769 431.357 485.74Z"/><path fill="#AFF0FC" d="M475.452 628.822C478.08 632.191 475.678 633.231 477.554 634.366C479.518 634.185 476.282 632.012 478.069 629.64C478.584 630.94 478.759 632.068 479.102 633.431C480.279 639.321 483.158 646.21 485.794 651.665C486.431 652.983 489.573 657.298 489.547 658.182C489.075 658.607 487.061 657.42 486.556 657.188C485.757 657.267 485.673 657.243 485.045 656.876C484.247 656.409 482.94 658.157 482.554 656.725C482.48 656.469 482.407 656.213 482.334 655.957C481.555 656.331 481.282 656.544 480.558 657.038C480.358 655.85 479.641 653.946 479.248 652.712C478.184 646.77 476.396 642.278 475.918 635.85C476.185 633.883 475.543 631.265 475.452 628.822Z"/><path fill="#75D3F0" d="M479.248 652.712C479.442 651.23 479.734 649.213 480.101 647.733C480.965 650.279 482.153 653.353 482.334 655.957C481.555 656.331 481.282 656.544 480.558 657.038C480.358 655.85 479.641 653.946 479.248 652.712Z"/><path fill="#75D3F0" d="M465.891 496.203L466.259 496.654C467.146 497.782 467.683 497.522 468.906 496.999L468.545 498.998C467.843 502.816 464.911 511.333 463.673 515.359C461.843 521.312 460.263 527.447 458.485 533.346C457.218 535.119 456.472 535.834 456.241 538.245C456.291 537.724 455.505 541.27 455.72 540.746C452.312 540.753 456.97 535.998 455.487 532.904C456.214 528.839 458.032 523.327 459.272 519.324C461.596 511.82 463.292 503.936 465.562 496.471L465.891 496.203Z"/><path fill="#75D3F0" d="M474.76 602.183C475.454 599.827 476.187 597.793 479.238 599.934C481.254 601.348 482.023 602.216 482.973 604.402C480.996 602.913 479.308 601.429 477.253 599.951C477.808 605.717 478.819 613.806 480.075 619.495C480.916 623.305 481.093 627.651 481.832 630.887C480.17 631.941 479.447 630.988 479.102 633.431C478.759 632.068 478.584 630.94 478.069 629.64L478.026 628.487C475.4 622.93 475.664 608.795 474.76 602.183Z"/><path fill="#0D4D5C" d="M478.026 628.487C480.778 627.855 480.688 628.803 481.832 630.887C480.17 631.941 479.447 630.988 479.102 633.431C478.759 632.068 478.584 630.94 478.069 629.64L478.026 628.487Z"/><path fill="#75D3F0" d="M536.918 652.981C537.386 651.182 537.524 651.554 539.112 651.095C539.636 650.944 540.041 646.608 540.201 646.44L540.356 646.526C540.816 647.426 540.701 648.855 540.716 649.867C539.381 654.385 537.965 661.874 537.13 666.52C536.351 669.67 535.452 673.561 534.329 676.563C533.856 677.633 533.472 678.404 532.939 679.435C530.269 680.046 528.489 682.265 526.388 684.168C528.25 679.396 533.042 669.063 534.114 665.026C534.623 663.671 538.147 653.865 538.142 652.88C537.8 652.749 537.218 652.928 536.918 652.981Z"/><path fill="#00B4CC" d="M436.255 545.416C439.009 533.231 443.405 521.109 446.58 509.011C447.191 506.681 447.767 504.597 448.611 502.341C449.313 508.081 439.934 532.366 440.468 533.943C441.987 534.682 442.691 530.075 443.125 528.733C444.753 523.697 446.184 518.534 447.801 513.499C448.792 510.412 448.967 506.496 451.236 504.346C450.762 507.365 449.834 510.428 448.903 513.344C445.452 524.147 442.338 535.091 439.026 545.923C436.999 544.888 437.676 546.064 436.255 545.416Z"/><path fill="#00B4CC" d="M455.487 532.904C456.97 535.998 452.312 540.753 455.72 540.746C455.505 541.27 456.291 537.724 456.241 538.245C456.472 535.834 457.218 535.119 458.485 533.346C456.808 540.313 454.957 546.41 453.669 553.525C452.016 550.297 451.643 552.315 450.284 554.173C450.856 551.276 451.472 548.387 452.133 545.508L452.601 543.508L453.338 540.492L453.838 538.491L454.413 536.24C454.765 534.873 454.97 534.223 455.487 532.904Z"/><path fill="#00B4CC" d="M422.697 522.488C421.644 527.923 419.786 534.598 418.263 540.003C415.515 542.766 416.138 541.893 415.542 538.44C415.779 536.505 417.005 532.111 417.567 530.008L418.097 528.009C418.623 526.08 418.905 524.884 419.643 522.993C420.369 526.009 417.106 532.264 419.127 532.147C420.152 531.468 420.331 524.945 422.697 522.488Z"/><path fill="#00B4CC" d="M605.955 521.294C606.835 523.894 607.284 525.601 607.946 528.257L608.435 530.256L609.147 533.229C609.378 534.172 609.657 535.139 609.899 536.088C609.178 537.569 608.377 538.312 606.812 537.225C606.593 536.303 606.334 535.398 606.12 534.493L605.648 532.494C604.883 529.286 603.943 526.06 603.363 522.841C606.281 526.102 605.441 535.552 608.234 533.215C607.234 531.096 605.476 523.505 605.955 521.294Z"/><path fill="#0B1A2E" d="M1021.53 802.192C1019.53 798.531 1021.27 797.38 1022.35 794.788C1022.88 793.511 1020.98 791.504 1023.36 790.057C1023.67 792.862 1021.84 808.729 1020.7 811.459C1019.13 810.295 1021.5 804.242 1021.53 802.192Z"/><path fill="#00B4CC" d="M516.972 714.468L517.648 715.803C516.047 718.028 514.72 719.424 512.637 721.165C514.069 718.88 515.342 716.618 516.972 714.468Z"/><path fill="#75D3F0" d="M536.71 631.107L537.909 632.515C537.227 634.203 536.408 635.615 535.53 637.195C535.851 635.386 536.148 632.831 536.71 631.107Z"/><path fill="#0A92AA" d="M510.279 660.528L511.723 660.874C511.921 661.772 512.405 664.221 512.417 665.11L512.144 665.469L512.27 665.581L512.213 665.612C511.46 665.317 510.522 661.383 510.279 660.528Z"/><path fill="#0D4D5C" d="M419.686 641.285C419.874 641.989 420.999 645.14 420.718 645.675C419.905 645.828 419.142 642.773 419.015 642.341L419.686 641.285Z"/><path fill="#0A92AA" d="M503.467 693.816C503.783 694.207 505.859 696.236 505.142 696.68C504.394 696.563 502.829 694.472 502.322 693.852L503.467 693.816Z"/><path fill="#0D4D5C" d="M439.707 681.261C440.618 683.347 440.456 685.319 439.306 682.826L439.035 682.253L439.707 681.261Z"/><path fill="#0D4D5C" d="M470.758 703.408C471.098 703.352 471.438 703.296 471.779 703.24C472.006 703.629 472.672 704.366 472.311 704.871C471.569 705 471.06 703.941 470.758 703.408Z"/><path fill="#0D4D5C" d="M587.31 679.821L587.935 680.809C587.741 681.186 587.379 682.168 586.804 682.188C586.304 681.573 587.045 680.405 587.31 679.821Z"/><path fill="#E8F4F8" d="M484.014 835.714C493.861 835.154 505.412 838.285 513.216 844.456C524.796 853.566 528.394 867.424 529.104 881.447C530.119 901.51 521.297 923.196 500.901 929.822C496.551 931.235 492.958 931.558 488.377 932.013C476.647 932.266 466.655 930.379 457.458 922.552C435.317 903.712 436.572 855.871 463.204 841.309C470.042 837.57 476.393 836.357 484.014 835.714Z"/><path fill="#0B1A2E" d="M481.366 845.181C517.48 841.423 524.861 884.302 511.123 909.447C507.072 916.863 498.959 921.015 490.905 922.853C453.906 928.249 444.885 880.036 461.607 855.733C466.2 849.058 473.458 846.124 481.366 845.181Z"/><path fill="#E8F4F8" d="M633.466 836.591C634.12 836.548 634.931 836.488 635.583 836.509C653.35 837.086 676.654 833.397 690.478 847.214C699.641 856.373 702.84 872.458 702.539 884.785C702.186 899.257 699.203 910.767 688.788 920.897C677.487 929.888 665.666 931.094 651.516 930.609C647.274 930.208 633.34 932.1 630.843 928.615C627.872 924.47 628.718 907.935 628.729 903.021L628.874 868.935C628.902 862.434 628.735 855.982 628.647 849.486C628.57 843.857 628.367 839.714 633.466 836.591Z"/><path fill="#0B1A2E" d="M639.563 845.847C651.635 845.684 668.119 844.066 678.442 851.437C695.11 863.338 693.968 897.271 682.746 912.521C672.537 923.347 653.44 921.915 639.711 920.804C639.229 913.881 639.565 902.275 639.564 895.072L639.563 845.847Z"/><path fill="#E8F4F8" d="M550.258 836.703C562.88 836.607 575.667 836.274 588.269 836.756C595.764 837.043 606.506 841.739 609.503 848.951C616.377 865.492 612.552 878.638 596.066 887.04C596.187 887.18 596.312 887.317 596.429 887.461C599.941 891.808 612.745 922.175 611.784 926.97C611.45 928.632 610.3 930.287 608.78 931.09C607.547 931.741 606.576 931.883 605.25 931.408C600.641 929.759 597.824 918.879 596.25 914.59C593.466 907.285 590.867 897.505 586.463 891.273C583.719 887.388 574.091 888.57 569.824 888.553C565.195 888.535 560.303 888.624 555.61 888.659C555.395 900.311 556.361 912.361 555.572 923.958C555.42 926.179 555.125 928.742 553.178 930.176C551.803 931.19 550.124 931.697 548.435 931.175C547.006 930.733 545.872 929.538 545.362 928.152C543.646 923.484 543.91 853.241 544.564 844.025C544.667 842.57 544.933 841.109 545.659 839.823C546.691 837.992 548.331 837.267 550.258 836.703Z"/><path fill="#0B1A2E" d="M556.677 845.74C566.787 845.776 578.813 845.113 588.711 846.196C602.4 847.695 604.747 866.745 596.479 875.832C591.752 878.933 589.162 879.466 583.485 879.479C574.183 879.501 564.875 879.474 555.572 879.492C555.503 872.283 555.404 854.468 555.687 846.155C555.695 845.926 556.491 845.783 556.677 845.74Z"/><path fill="#E8F4F8" d="M325.641 836.698C333.696 836.708 377.521 835.468 380.63 837.765C381.363 838.306 381.856 839.686 381.962 840.582C382.144 842.137 381.736 843.669 380.597 844.797C379.455 845.927 377.961 846.131 376.439 846.285C371.461 846.787 366.164 846.375 361.152 846.383L331.076 846.461L331.194 877.553C343.672 877.637 357.866 876.898 370.334 877.973C374.645 878.345 373.635 882.734 372.392 885.629C368.524 886.827 337.686 886.222 331.058 886.227C331.056 894.826 331.105 903.425 331.205 912.024C331.235 916.584 331.535 921.359 330.867 925.939C330.636 932.754 320.995 932.374 320.708 927.215C319.167 899.581 320.85 871.213 320.533 843.458C320.486 839.358 322.333 837.628 325.641 836.698Z"/><path fill="#E8F4F8" d="M419.937 835.96C420.548 836 421.15 836.033 421.752 836.145C423.569 836.482 424.963 837.26 425.934 838.904C427.718 841.926 426.977 903.559 426.366 911.379C426.195 913.666 425.71 915.919 424.924 918.073C419.775 932.38 402.703 934.78 389.712 930.45C383.964 928.535 380.648 923.721 378.278 918.38C377.341 915.387 375.511 902.702 381.724 903.526C387.509 904.293 387.049 913.038 389.75 917.744C394.331 925.726 402.605 924.696 410.012 921.28C417.315 917.467 415.625 901.19 415.682 893.393C415.815 879.755 415.856 866.116 415.806 852.478C415.799 848.679 415.614 843.381 416.218 839.603C416.499 837.85 418.459 836.79 419.937 835.96Z"/></svg>