<?xml version="1.0" encoding="utf-8" ?><svg xmlns="http://www.w3.org/2000/svg" xmlns:xlink="http://www.w3.org/1999/xlink" width="1024" height="1024" viewBox="0 0 1024 1024"><path fill="#1A1F2E" d="M0 0L245.272 0L778.441 0L1024 0L1024 249.595L1024 775.775L1024 1024L780.278 1024L244.128 1024L0 1024L0 774.939L0 248.216L0 0Z"/><path fill="white" d="M778.441 0L1024 0L1024 249.595C1023.48 247.549 1022.84 240.311 1022.56 237.892C1021.81 231.123 1020.8 224.385 1019.53 217.695C1012.77 183.208 999.36 150.364 980.063 120.991C944.065 66.1503 889.331 26.2932 826.087 8.86863C807.696 3.85754 795.707 3.5328 778.441 0Z"/><path fill="white" d="M0 0L245.272 0C237.963 1.47627 230.246 2.25184 222.834 3.49558C212.567 5.23964 202.409 7.57547 192.411 10.4914C132.334 28.1513 80.3683 66.3524 45.5886 118.424C25.6623 147.871 11.8499 181.018 4.96992 215.901C2.87848 226.481 1.9489 238.826 0 248.216L0 0Z"/><path fill="white" d="M0 774.939C1.05997 781.959 1.54156 789.22 2.60302 796.199C3.8286 804.257 5.67556 812.909 7.67721 820.808C23.2436 881.166 58.8961 934.427 108.766 971.823C139.39 994.672 174.543 1010.71 211.87 1018.88C218.453 1020.29 225.091 1021.42 231.768 1022.28C235.058 1022.71 241.14 1023.26 244.128 1024L0 1024L0 774.939Z"/><path fill="white" d="M780.278 1024C782.558 1023.39 789.543 1022.66 792.254 1022.29C799.009 1021.42 805.727 1020.29 812.393 1018.89C848.329 1010.94 882.249 995.695 912.047 974.092C963.337 936.83 1000.15 882.966 1016.24 821.645C1020.46 805.165 1021.41 792.034 1024 775.775L1024 1024L780.278 1024Z"/><defs><linearGradient id="gradient_0" gradientUnits="userSpaceOnUse" x1="743.48792" y1="396.37604" x2="529.9187" y2="253.28625"><stop offset="0" stop-color="#FCD8A4"/><stop offset="1" stop-color="white"/></linearGradient></defs><path fill="url(#gradient_0)" d="M481.184 174.361C485.235 172.467 509.18 171.077 514.712 171.499C541.867 171.318 561.192 177.593 586.035 186.988C647.455 212.818 703.75 265.662 729.005 327.803C732.03 335.232 734.665 342.813 736.898 350.517C738.368 356.061 739.652 361.653 740.748 367.284C741.215 371.145 741.629 374.718 741.902 378.595C741.96 383.41 742.105 387.944 741.476 392.743C740.945 410.128 727.039 428.634 710.321 433.644C701.485 437.055 692.333 437.87 682.929 437.702C679.872 439.699 672.12 438.945 670.019 436.352L669.124 436.015C657.663 433.831 645.919 430.693 634.401 428.253C625.53 426.373 615.211 424.89 606.63 422.762C605.212 422.554 602.728 421.949 601.627 422.396L600.74 419.324C599.213 418.997 596.165 418.677 594.505 418.447C591.312 418.353 581.846 417.699 579.141 416.629C575.875 416.488 570.241 415.132 567.444 415.917L565.795 417.673L565.439 417.662C564.628 418.806 564.594 418.965 564.054 420.293C559.296 416.186 558.576 418.802 552.768 416.454C551.254 416.034 546.009 415.743 544.145 415.6C537.301 417.945 519.636 414.253 511.497 416.036C504.364 417.599 508.71 416.073 507.98 420.462C523.138 445.123 532.84 466.425 541.582 494.213C554.807 536.246 565.009 574.98 548.219 617.786L547.198 617.041C562.27 573.835 551.181 532.954 535.658 491.791C530.221 476.967 523.874 462.493 516.651 448.453C510.365 436.502 503.399 425.858 496.083 414.507C494.239 414.499 493.505 414.559 491.672 414.804C492.012 414.869 492.91 414.882 492.901 415.397C492.646 415.649 487.236 416.208 486.231 416.37L486.229 416.386C486.741 416.434 487.246 416.535 487.753 416.62C485.673 417.413 477.239 415.894 475.787 417.29C474.001 419.007 484.66 425.976 483.219 427.638C506.121 452.579 525.467 485.544 524.027 520.322C522.761 550.915 504.448 577.001 490.963 603.395C463.51 657.126 451.981 717.853 483.446 773.077C490.692 785.794 496.828 795.676 507.012 806.86C507.403 807.29 507.801 807.714 508.204 808.132L505.596 809.062C496.853 801.216 489.066 792.367 482.396 782.696C442.128 725.086 452.18 659.001 483.11 600.506C494.567 578.839 509.44 557.226 513.837 533.113C519.365 502.796 508.598 475.032 491.398 450.509C487.605 445.102 483.066 440.231 479.34 434.983C472.863 429.177 466.843 422.717 459.696 416.431C453.584 417.522 447.179 417.766 441.089 418.806C441.116 419.028 441.144 419.25 441.172 419.472C439.842 421.125 432.642 419.594 431.35 422.241C432.282 423.19 432.261 423.44 432.06 424.577C431.078 423.982 429.141 421.275 428.069 420.159C425.018 418.841 424.228 420.663 422.166 418.982L420.995 418.355C419.97 418.979 420.239 418.752 419.382 419.616C419.942 420.025 420.133 420.33 420.585 420.867C414.636 423.323 398.975 424.93 391.956 426.229C392.766 427.916 394.253 430.952 394.879 432.595C393.756 433.756 390.058 426.391 392.128 424.789L392.072 424.769L391.991 424.833C390.731 424.652 389.153 424.63 387.812 424.484C382.659 426.339 371.925 428.825 366.412 429.764L366.78 431.899C351.213 436.235 320.49 441.251 306.903 429.861C298.266 425.825 290.195 415.663 287.016 406.759C279.426 385.498 284.573 354.015 293.689 333.905C294.382 330.431 299.964 319.51 301.693 316.126C303.397 312.872 305.168 309.671 306.871 306.428C327.139 269.603 354.206 241.593 387.232 216.256C410.366 198.598 451.934 177.532 481.184 174.361Z"/><defs><linearGradient id="gradient_1" gradientUnits="userSpaceOnUse" x1="324.34576" y1="707.18481" x2="543.00824" y2="316.4404"><stop offset="0" stop-color="#FC4400"/><stop offset="1" stop-color="#FCFBD7"/></linearGradient></defs><path fill="url(#gradient_1)" d="M387.232 216.256L390.783 216.257C386.754 219.567 383.757 221.76 379.398 224.647C397.794 239.294 420.471 259.374 438.979 272.565L439.068 334.927C439.069 344.061 439.471 358.297 438.958 366.985C439.219 370.754 438.67 375.197 439.581 378.786C440.47 381.401 444.076 382.834 446.484 381.707C457.053 376.762 466.828 369.856 477.13 364.326C481.3 362.087 485.171 359.514 489.395 357.421L489.905 357.172C488.48 359.224 488.364 359.129 486.131 360.332L485.561 360.645C485.446 360.705 485.33 360.765 485.215 360.825C489.466 364.98 493.613 366.617 498.283 369.988C518.675 384.708 542.198 394.912 564.02 407.382C567.051 409.114 568.352 412.047 570.998 414.129C572.716 415.321 576.42 414.767 579.141 416.629C575.875 416.488 570.241 415.132 567.444 415.917L565.795 417.673L565.439 417.662C564.628 418.806 564.594 418.965 564.054 420.293C559.296 416.186 558.576 418.802 552.768 416.454C551.254 416.034 546.009 415.743 544.145 415.6C537.301 417.945 519.636 414.253 511.497 416.036C504.364 417.599 508.71 416.073 507.98 420.462C523.138 445.123 532.84 466.425 541.582 494.213C554.807 536.246 565.009 574.98 548.219 617.786L547.198 617.041C562.27 573.835 551.181 532.954 535.658 491.791C530.221 476.967 523.874 462.493 516.651 448.453C510.365 436.502 503.399 425.858 496.083 414.507C494.239 414.499 493.505 414.559 491.672 414.804C492.012 414.869 492.91 414.882 492.901 415.397C492.646 415.649 487.236 416.208 486.231 416.37L486.229 416.386C486.741 416.434 487.246 416.535 487.753 416.62C485.673 417.413 477.239 415.894 475.787 417.29C474.001 419.007 484.66 425.976 483.219 427.638C506.121 452.579 525.467 485.544 524.027 520.322C522.761 550.915 504.448 577.001 490.963 603.395C463.51 657.126 451.981 717.853 483.446 773.077C490.692 785.794 496.828 795.676 507.012 806.86C507.403 807.29 507.801 807.714 508.204 808.132L505.596 809.062C496.853 801.216 489.066 792.367 482.396 782.696C442.128 725.086 452.18 659.001 483.11 600.506C494.567 578.839 509.44 557.226 513.837 533.113C519.365 502.796 508.598 475.032 491.398 450.509C487.605 445.102 483.066 440.231 479.34 434.983C472.863 429.177 466.843 422.717 459.696 416.431C453.584 417.522 447.179 417.766 441.089 418.806C441.116 419.028 441.144 419.25 441.172 419.472C439.842 421.125 432.642 419.594 431.35 422.241C432.282 423.19 432.261 423.44 432.06 424.577C431.078 423.982 429.141 421.275 428.069 420.159C425.018 418.841 424.228 420.663 422.166 418.982L420.995 418.355C419.97 418.979 420.239 418.752 419.382 419.616C419.942 420.025 420.133 420.33 420.585 420.867C414.636 423.323 398.975 424.93 391.956 426.229C392.766 427.916 394.253 430.952 394.879 432.595C393.756 433.756 390.058 426.391 392.128 424.789L392.072 424.769L391.991 424.833C390.731 424.652 389.153 424.63 387.812 424.484C382.659 426.339 371.925 428.825 366.412 429.764L366.78 431.899C351.213 436.235 320.49 441.251 306.903 429.861C298.266 425.825 290.195 415.663 287.016 406.759C279.426 385.498 284.573 354.015 293.689 333.905C294.382 330.431 299.964 319.51 301.693 316.126C303.397 312.872 305.168 309.671 306.871 306.428C327.139 269.603 354.206 241.593 387.232 216.256Z"/><path fill="#FD7640" d="M293.689 333.905C294.382 330.431 299.964 319.51 301.693 316.126C302.017 317.338 302.186 318.103 302.396 319.344C298.791 326.769 296.562 332.687 293.366 340.154C291.928 345.165 289.899 350.978 288.723 355.973C284.563 373.636 283.403 395.171 292.04 411.753C295.426 418.254 299.039 420.987 304.004 425.62C305.015 426.875 306.437 428.398 306.903 429.861C298.266 425.825 290.195 415.663 287.016 406.759C279.426 385.498 284.573 354.015 293.689 333.905Z"/><path fill="#FD7640" d="M387.232 216.256L390.783 216.257C386.754 219.567 383.757 221.76 379.398 224.647C353.745 246.187 324.875 275.97 309.63 306.256L308.642 307.442C308.046 307.115 307.455 306.777 306.871 306.428C327.139 269.603 354.206 241.593 387.232 216.256Z"/><path fill="#FF8C42" d="M304.004 425.62C324.861 436.021 344.168 436.861 366.412 429.764L366.78 431.899C351.213 436.235 320.49 441.251 306.903 429.861C306.437 428.398 305.015 426.875 304.004 425.62Z"/><path fill="#FEA559" d="M422.166 418.982C426.699 418.869 431.213 417.526 435.768 416.892C443.719 415.786 451.719 416.043 459.726 415.998C460.598 415.992 462.323 417.289 462.853 417.854C466.142 421.357 478.274 431.303 479.34 434.983C472.863 429.177 466.843 422.717 459.696 416.431C453.584 417.522 447.179 417.766 441.089 418.806C441.116 419.028 441.144 419.25 441.172 419.472C439.842 421.125 432.642 419.594 431.35 422.241C432.282 423.19 432.261 423.44 432.06 424.577C431.078 423.982 429.141 421.275 428.069 420.159C425.018 418.841 424.228 420.663 422.166 418.982Z"/><path fill="#0D1117" d="M428.069 420.159C429.695 419.565 438.713 418.994 441.089 418.806C441.116 419.028 441.144 419.25 441.172 419.472C439.842 421.125 432.642 419.594 431.35 422.241C432.282 423.19 432.261 423.44 432.06 424.577C431.078 423.982 429.141 421.275 428.069 420.159Z"/><path fill="#FF8C42" d="M419.382 419.616C419.942 420.025 420.133 420.33 420.585 420.867C414.636 423.323 398.975 424.93 391.956 426.229C392.766 427.916 394.253 430.952 394.879 432.595C393.756 433.756 390.058 426.391 392.128 424.789L392.072 424.769L391.991 424.833C390.731 424.652 389.153 424.63 387.812 424.484C391.705 423.59 396.012 423.437 399.996 422.87C406.555 421.937 412.887 420.948 419.382 419.616Z"/><path fill="#0D1117" d="M503.93 414.561C518.038 414.614 530.109 415.032 544.145 415.6C537.301 417.945 519.636 414.253 511.497 416.036C504.364 417.599 508.71 416.073 507.98 420.462C506.597 418.531 505.287 416.405 503.93 414.561Z"/><path fill="#0D1117" d="M470.302 415.574C477.762 415.532 484.248 415.25 491.672 414.804C492.012 414.869 492.91 414.882 492.901 415.397C492.646 415.649 487.236 416.208 486.231 416.37L486.229 416.386C486.741 416.434 487.246 416.535 487.753 416.62C485.673 417.413 477.239 415.894 475.787 417.29C474.001 419.007 484.66 425.976 483.219 427.638C481.389 426.252 473.524 418.266 470.302 415.574Z"/><path fill="#FF8C42" d="M306.871 306.428C307.455 306.777 308.046 307.115 308.642 307.442C306.763 311.26 304.511 315.656 302.396 319.344C302.186 318.103 302.017 317.338 301.693 316.126C303.397 312.872 305.168 309.671 306.871 306.428Z"/><path fill="#0D1117" d="M552.768 416.454C556.873 416.53 561.429 416.789 565.439 417.662C564.628 418.806 564.594 418.965 564.054 420.293C559.296 416.186 558.576 418.802 552.768 416.454Z"/><path fill="#1A1F2E" d="M481.184 174.361C485.235 172.467 509.18 171.077 514.712 171.499C541.867 171.318 561.192 177.593 586.035 186.988C584.458 187.351 583.622 187.58 581.976 187.675L575.97 185.586C574.043 187.449 566.16 200.934 564.14 204.11L547.17 230.957C543.918 236.023 539.391 242.292 536.828 247.436L536.452 248.176L536.232 248.623L578.352 271.793C585.892 275.923 593.694 279.958 600.974 284.526C604.824 286.942 603.592 292.636 599.747 294.34C585.875 302.167 571.984 309.952 558.164 317.873L534.518 331.459C531.403 333.251 525.627 336.803 522.58 338.249C519.033 340.294 490.657 356.228 489.905 357.172L489.395 357.421C485.171 359.514 481.3 362.087 477.13 364.326C466.828 369.856 457.053 376.762 446.484 381.707C444.076 382.834 440.47 381.401 439.581 378.786C438.67 375.197 439.219 370.754 438.958 366.985C439.471 358.297 439.069 344.061 439.068 334.927L438.979 272.565C420.471 259.374 397.794 239.294 379.398 224.647C383.757 221.76 386.754 219.567 390.783 216.257L387.232 216.256C410.366 198.598 451.934 177.532 481.184 174.361Z"/><defs><linearGradient id="gradient_2" gradientUnits="userSpaceOnUse" x1="431.02695" y1="165.7287" x2="531.51672" y2="251.26695"><stop offset="0" stop-color="#F9B061"/><stop offset="1" stop-color="#FCE3AB"/></linearGradient></defs><path fill="url(#gradient_2)" d="M481.184 174.361C485.235 172.467 509.18 171.077 514.712 171.499C541.867 171.318 561.192 177.593 586.035 186.988C584.458 187.351 583.622 187.58 581.976 187.675L575.97 185.586C574.043 187.449 566.16 200.934 564.14 204.11L547.17 230.957C543.918 236.023 539.391 242.292 536.828 247.436L536.452 248.176L536.232 248.623C521.843 240.349 506.802 232.763 492.293 224.678C478.192 216.819 464.344 208.885 449.982 201.475C438.46 194.766 438.612 203 439.119 212.333L438.979 272.565C420.471 259.374 397.794 239.294 379.398 224.647C383.757 221.76 386.754 219.567 390.783 216.257L387.232 216.256C410.366 198.598 451.934 177.532 481.184 174.361Z"/><path fill="#FF8C42" d="M481.184 174.361C485.235 172.467 509.18 171.077 514.712 171.499C541.867 171.318 561.192 177.593 586.035 186.988C584.458 187.351 583.622 187.58 581.976 187.675L575.97 185.586C567.668 182.013 556.392 178.969 547.558 176.869C544.083 176.043 537.294 175.682 534.159 174.577C520.696 173.599 509.142 172.964 495.639 174.42C489.662 175.065 482.402 176.868 476.755 177.313C474.536 176.746 466.326 179.102 462.154 179.536C466.085 178.628 478.403 176.183 481.184 174.361Z"/><path fill="#FEA559" d="M514.712 171.499C541.867 171.318 561.192 177.593 586.035 186.988C584.458 187.351 583.622 187.58 581.976 187.675L575.97 185.586C567.668 182.013 556.392 178.969 547.558 176.869C544.083 176.043 537.294 175.682 534.159 174.577L534.617 174.121C536.687 174.432 554.09 177.291 554.238 177.266C552.387 176.19 537.145 173.815 533.73 173.271C527.922 172.345 521.224 173.158 514.712 171.499Z"/><path fill="#FD7640" d="M387.232 216.256C410.366 198.598 451.934 177.532 481.184 174.361C478.403 176.183 466.085 178.628 462.154 179.536C466.326 179.102 474.536 176.746 476.755 177.313C444.182 184.818 417.909 196.26 390.783 216.257L387.232 216.256Z"/><path fill="#0D1117" d="M439.119 212.333C438.612 203 438.46 194.766 449.982 201.475C447.276 201.606 444.449 199.431 442.236 200.342C439.877 201.313 440.506 217.014 439.799 217.846C439.796 217.843 439.36 213.295 439.119 212.333Z"/><path fill="#FBDAA2" d="M522.58 338.249C525.937 343.556 544.13 356.924 549.416 361.45C565.795 375.476 582.603 389.055 599.017 403.063C607.479 410.284 615.563 415.701 623.591 423.781C619.645 423.731 612.949 422.071 608.86 421.152L600.74 419.324C599.213 418.997 596.165 418.677 594.505 418.447C591.312 418.353 581.846 417.699 579.141 416.629C576.42 414.767 572.716 415.321 570.998 414.129C568.352 412.047 567.051 409.114 564.02 407.382C542.198 394.912 518.675 384.708 498.283 369.988C493.613 366.617 489.466 364.98 485.215 360.825C485.33 360.765 485.446 360.705 485.561 360.645L486.131 360.332C488.364 359.129 488.48 359.224 489.905 357.172C490.657 356.228 519.033 340.294 522.58 338.249Z"/><path fill="#FBDAA2" d="M652.764 230.295C657.185 233.212 660.205 235.805 663.936 239.529C659.72 250.231 655.2 271.934 652.025 283.841C647.279 301.103 642.775 318.431 638.515 335.819C637.254 340.931 633.814 353.791 633.234 358.665L632.334 358.357C632.695 354.945 633.359 351.602 633.963 348.226C638.68 321.861 641.59 295.289 646.212 268.887C648.484 255.913 649.722 243.22 652.764 230.295Z"/><path fill="#FF8C42" d="M586.035 186.988C647.455 212.818 703.75 265.662 729.005 327.803C732.03 335.232 734.665 342.813 736.898 350.517C738.368 356.061 739.652 361.653 740.748 367.284C741.215 371.145 741.629 374.718 741.902 378.595C741.96 383.41 742.105 387.944 741.476 392.743C740.945 410.128 727.039 428.634 710.321 433.644C713.884 430.543 720.064 427.955 723.986 424.2C734.599 414.038 738.929 402.591 739.945 388.406C739.98 384.301 739.924 381.602 739.548 377.53L739.465 373.233C738.186 365.722 737.038 360.009 735.118 352.681C732.028 341.794 729.574 334.236 724.892 323.841C711.312 293.176 689.193 261.703 663.936 239.529C660.205 235.805 657.185 233.212 652.764 230.295C635.459 214.939 603.72 195.292 581.976 187.675C583.622 187.58 584.458 187.351 586.035 186.988Z"/><path fill="#FFB347" d="M600.74 419.324L608.86 421.152C612.949 422.071 619.645 423.731 623.591 423.781C628.501 424.725 640.276 428.248 644.339 428.369C652.589 431.081 662.497 431.469 669.124 436.015C657.663 433.831 645.919 430.693 634.401 428.253C625.53 426.373 615.211 424.89 606.63 422.762C605.212 422.554 602.728 421.949 601.627 422.396L600.74 419.324Z"/><path fill="#0D1117" d="M670.019 436.352C674.414 436.721 678.391 437.427 682.929 437.702C679.872 439.699 672.12 438.945 670.019 436.352Z"/><path fill="#F6DCBC" d="M633.234 358.665C633.111 359.303 631.8 364.877 631.54 365.179C631.391 365.202 631.457 365.217 631.342 365.143C630.919 364.094 631.964 359.362 632.334 358.357L633.234 358.665Z"/><defs><linearGradient id="gradient_3" gradientUnits="userSpaceOnUse" x1="479.1113" y1="742.87921" x2="386.47302" y2="431.15219"><stop offset="0" stop-color="#FE7336"/><stop offset="1" stop-color="#FFAC68"/></linearGradient></defs><path fill="url(#gradient_3)" d="M419.382 419.616C420.239 418.752 419.97 418.979 420.995 418.355L422.166 418.982C424.228 420.663 425.018 418.841 428.069 420.159C429.141 421.275 431.078 423.982 432.06 424.577C434.84 428.79 437.957 432.745 440.954 436.854C466.265 471.422 492.897 516.782 484.269 561.332C477.45 596.544 444.593 622.477 425.607 651.898C401.491 689.268 403.763 720.752 422.9 759.414C422.163 760.246 422.155 760.32 421.34 760.932C418.076 756.657 415.192 752.104 412.723 747.325C404.092 730.991 399.436 714.858 400.172 696.368C402.375 641.079 459.135 613.595 474.237 565.293C486.665 522.338 460.711 479.072 437.707 444.701C433.101 437.819 423.786 427.33 420.585 420.867C420.133 420.33 419.942 420.025 419.382 419.616Z"/><defs><linearGradient id="gradient_4" gradientUnits="userSpaceOnUse" x1="666.008" y1="696.7804" x2="525.09241" y2="460.37158"><stop offset="0" stop-color="#FE8442"/><stop offset="1" stop-color="#FFC681"/></linearGradient></defs><path fill="url(#gradient_4)" d="M594.505 418.447C596.165 418.677 599.213 418.997 600.74 419.324L601.627 422.396C600.622 435.162 598.737 442.508 600.819 456.047C603.414 472.923 609.879 484.076 617.154 499.082C629.049 523.615 639.653 548.69 638.739 576.46C637.039 628.141 590.171 659.597 589.364 710.495C589.214 719.959 591.536 728.875 593.984 737.901C593.803 739.132 594.341 740.015 593.919 740.596C592.563 740.996 591.275 737.25 589.819 735.84C586.817 730.852 584.538 720.96 583.612 715.27C577.412 677.18 604.863 647.363 619.706 615.355C627.366 597.722 630.419 579.131 628.441 560.004C624.251 519.468 593.523 486.422 591.958 445.717C591.705 439.154 592.235 427.141 594.291 420.96C594.544 419.954 594.489 419.501 594.505 418.447Z"/><path fill="white" d="M498.537 921.574C505.348 920.064 512.443 922.341 517.103 927.533C521.763 932.724 523.263 940.024 521.028 946.632C518.794 953.24 513.171 958.132 506.317 959.43C495.945 961.395 485.915 954.673 483.79 944.332C481.665 933.992 488.231 923.859 498.537 921.574Z"/><path fill="#1A1F2E" d="M499.178 928.338C505.833 926.38 512.815 930.197 514.757 936.857C516.7 943.517 512.866 950.489 506.201 952.415C499.559 954.335 492.617 950.517 490.68 943.88C488.744 937.243 492.546 930.291 499.178 928.338Z"/><path fill="white" d="M577.496 922.28C586.385 922.223 597.847 920.836 604.722 926.554C608.53 929.71 610.881 934.286 611.23 939.219C611.611 944.48 609.628 949.045 606.325 953.009C597.695 960.285 588.611 958.603 577.467 958.554L577.496 922.28Z"/><path fill="#1A1F2E" d="M584.719 928.359C588.763 928.333 596.751 927.662 599.863 930.649C605.528 936.086 605.462 943.351 600.353 949.186C594.948 953.382 591.39 952.528 584.631 952.533C584.605 944.602 584.583 936.268 584.719 928.359Z"/><path fill="#FD7640" d="M366.412 429.764C371.925 428.825 382.659 426.339 387.812 424.484C389.153 424.63 390.731 424.652 391.991 424.833L392.072 424.769L392.128 424.789C390.058 426.391 393.756 433.756 394.879 432.595C402.647 444.751 410.539 453.014 418.973 464.222C434.296 484.585 447.093 514.613 441.159 540.574C431.583 582.463 387.346 600.41 374.037 641.094L372.691 640.891C382.499 604.517 422.902 582.525 434.58 548.146C450.728 500.603 407.123 464.028 388.359 426.824L366.78 431.899L366.412 429.764Z"/><path fill="#FEA559" d="M567.444 415.917C567.69 415.979 567.935 416.048 568.183 416.105C568.588 416.198 568.868 416.194 569.317 416.242C569.516 416.264 569.72 416.272 569.911 416.331C570.319 418.004 564.628 429.885 565.339 433.789C555.925 473.413 565.338 494.881 577.025 531.737C593.306 583.08 590.709 618.395 567.695 666.568L567.007 665.536C574.544 648.437 579.242 636.397 582.349 617.804C586.989 591.004 582.72 561.386 573.863 535.596C559.628 494.147 548.592 464.434 564.054 420.293C564.594 418.965 564.628 418.806 565.439 417.662L565.795 417.673L567.444 415.917Z"/><path fill="white" d="M535.586 922.21C543.106 922.059 558.372 920.073 562.992 926.992C567.93 934.389 564.708 940.687 557.812 945.093C560.177 949.502 562.79 953.985 564.953 958.467C562.785 958.545 560.559 958.524 558.386 958.534C556.115 958.089 551.561 948.447 550.21 946.007C547.627 946.002 545.044 946.011 542.461 946.035L542.448 958.529L535.498 958.53C535.508 947.44 535.102 933.029 535.586 922.21Z"/><path fill="#1A1F2E" d="M544.138 928.241C545.39 928.251 548.632 928.414 549.75 928.26C557.344 927.215 561.394 933.764 555.084 939.326C550.882 940.929 546.976 940.435 542.419 940.431C542.424 938.135 542.243 931.198 542.656 928.671C542.714 928.311 543.846 928.271 544.138 928.241Z"/><path fill="white" d="M414.334 922.171C422.862 922.105 431.39 922.124 439.917 922.228C439.945 924.318 439.949 926.409 439.93 928.5C433.763 928.444 427.596 928.429 421.429 928.456L421.359 937.899C423.841 937.888 437.817 936.983 438.371 939.064C438.259 945.103 439.106 944.112 432.81 944.214C428.954 944.276 425.023 944.259 421.162 944.276L421.194 958.567L414.356 958.537C414.218 946.915 414.06 933.726 414.334 922.171Z"/><path fill="white" d="M464.216 922.219C466.309 922.2 468.403 922.206 470.496 922.238C470.503 937.22 475.749 966.634 450.51 958.06C448.526 957.026 447.565 956.368 445.748 955.163C446.804 953.592 447.944 952.08 449.164 950.632C451.267 951.649 453.404 952.75 455.727 953.189C469.469 955.786 460.426 924.766 464.216 922.219Z"/><path fill="#FFB347" d="M567.444 415.917C570.241 415.132 575.875 416.488 579.141 416.629C581.846 417.699 591.312 418.353 594.505 418.447C594.489 419.501 594.544 419.954 594.291 420.96C590.46 419.49 575.384 418.345 570.532 417.82C568.767 423.115 567.16 428.498 565.339 433.789C564.628 429.885 570.319 418.004 569.911 416.331C569.72 416.272 569.516 416.264 569.317 416.242C568.868 416.194 568.588 416.198 568.183 416.105C567.935 416.048 567.69 415.979 567.444 415.917Z"/><path fill="#E45C30" d="M368.041 679.145C368.7 668.355 367.748 658.3 370.885 647.496C371.523 645.302 371.615 643.012 372.691 640.891L374.037 641.094C370.367 652.724 368.407 668.478 369.015 680.719L368.041 679.145Z"/><path fill="#E45C30" d="M508.204 808.132C512.103 812.743 516.777 817.31 520.874 821.805L518.395 820.265C514.758 818.039 508.869 812.112 505.596 809.062L508.204 808.132Z"/><path fill="#E45C30" d="M589.819 735.84C591.275 737.25 592.563 740.996 593.919 740.596C594.341 740.015 593.803 739.132 593.984 737.901C595.949 742.835 597.437 747.126 599.143 752.122C595.852 747.304 591.948 741.266 589.819 735.84Z"/><path fill="#A15031" d="M540.717 630.6L541.54 631.107C539.482 635.659 533.916 643.102 530.933 647.229L530.668 647.588L530.147 646.644C532.146 643.662 538.908 632.612 540.717 630.6Z"/><path fill="#5B3237" d="M562.037 678.097C561.336 679.962 552.727 695.674 551.307 696.073C551.097 695.391 554.285 690.084 554.644 689.493L557.389 684.509C558.263 682.941 560.28 678.877 561.143 677.82L562.037 678.097Z"/><path fill="#E45C30" d="M422.9 759.414C424.616 761.631 427.755 767.68 428.984 770.348C426.254 767.505 423.416 764.298 421.34 760.932C422.155 760.32 422.163 760.246 422.9 759.414Z"/><path fill="#FD7640" d="M547.198 617.041L548.219 617.786C546.186 622.497 544.18 626.699 541.54 631.107L540.717 630.6C542.226 627.371 545.67 619.966 547.198 617.041Z"/><path fill="#FD7640" d="M561.143 677.82C563.205 673.914 564.929 669.239 567.007 665.536L567.695 666.568C566.065 670.683 563.799 674.194 562.037 678.097L561.143 677.82Z"/><path fill="#5B3237" d="M530.147 646.644L530.668 647.588C529.574 648.935 527.466 651.312 526.641 652.568L525.757 652.198C527.248 650.356 528.608 648.501 530.147 646.644Z"/><path fill="#2F1A30" d="M526.641 652.568C526.269 653.072 524.408 655.678 523.78 655.299C523.476 654.445 525.226 652.746 525.757 652.198L526.641 652.568Z"/><path fill="#5B3237" d="M368.041 679.145L369.015 680.719C369.001 681.358 369.058 683.45 368.653 683.642C367.63 684.128 368.037 679.245 368.041 679.145Z"/></svg>